<svg width="64" height="64" viewBox="0 0 64 64" fill="none" xmlns="http://www.w3.org/2000/svg">
<rect width="64" height="64" fill="#F5F6FA"/>
<path fill-rule="evenodd" clip-rule="evenodd" d="M32.8177 18.6667H31.1823C30.8417 18.6667 30.5042 18.7319 30.1882 18.8589L20.8362 22.6164C20.331 22.8194 20 23.3091 20 23.8536V27.3333C20 28.0697 20.597 28.6667 21.3333 28.6667H42.6667C43.403 28.6667 44 28.0697 44 27.3333V23.8536C44 23.3091 43.669 22.8194 43.1638 22.6164L33.8118 18.8589C33.4958 18.7319 33.1583 18.6667 32.8177 18.6667ZM31.1823 20.6667H32.8177C32.9028 20.6667 32.9872 20.683 33.0662 20.7147L42 24.3042V26.6667H22V24.3042L30.9338 20.7147C31.0128 20.683 31.0972 20.6667 31.1823 20.6667Z" fill="#9599A6"/>
<path d="M24.6667 31.3333H22.6667V39.3333H24.6667V31.3333Z" fill="#9599A6"/>
<path d="M30 31.3333H28V39.3333H30V31.3333Z" fill="#9599A6"/>
<path d="M33.3333 31.3333H35.3333V39.3333H33.3333V31.3333Z" fill="#9599A6"/>
<path d="M40.6667 31.3333H38.6667V39.3333H40.6667V31.3333Z" fill="#9599A6"/>
<path d="M20 42H44V44H20V42Z" fill="#9599A6"/>
</svg>
