<svg width="64" height="64" viewBox="0 0 64 64" fill="none" xmlns="http://www.w3.org/2000/svg">
<rect width="64" height="64" fill="#FDFC32"/>
<path fill-rule="evenodd" clip-rule="evenodd" d="M15 26.3333L22.0767 31.0556L30.5767 25.389L27.0384 23.021L31.6408 19.9617L41.5509 26.5727L25.2692 37.4273L28.8075 39.7951L49 26.3335L32 15.0001L15 26.3333ZM49 37.6667L41.91 32.9445L33.41 38.6112L36.9484 40.9655L32.3458 44.0384L22.4359 37.4272L38.7175 26.5729L35.1792 24.2051L15 37.6667L32 49L49 37.6667ZM49 19.7222L45.4484 22.0901L41.91 19.7222L49 15V19.7222ZM15 44.2778L18.5383 41.9099L22.0767 44.2778L15 49V44.2778Z" fill="#465EFC"/>
</svg>
