<svg width="64" height="64" viewBox="0 0 64 64" fill="none" xmlns="http://www.w3.org/2000/svg">
<rect width="64" height="64" fill="#278428"/>
<path d="M42.4363 34.4112C40.1392 34.2238 38.0905 33.4524 36.5563 32.704C35.3955 32.1296 34.5298 31.5804 34.0892 31.3079L30.2847 36.9487C30.4226 37.0797 30.4934 37.1665 30.4934 37.1665C31.7735 37.9708 32.9827 38.5916 34.1279 39.045C37.4122 40.36 40.1721 40.3374 42.4367 39.645C48.0839 37.9136 50.6667 31.9821 50.6667 31.9821C47.8689 34.0927 44.9995 34.6155 42.4363 34.4112V34.4112ZM13.3333 36.8736C16.8878 33.9075 20.1297 33.1556 22.8216 33.3812L26.2473 28.3452C16.2379 26.881 13.3333 36.8736 13.3333 36.8736Z" fill="#FFCC00"/>
<path d="M34.0735 39.0267L32.2591 43.9845H42.3265V39.6504C40.0766 40.3702 37.3357 40.3937 34.0735 39.0267V39.0267ZM32.2591 18.6667L26.2467 27.9032L22.8439 33.1384L15.7165 44.0851H25.5822L30.256 36.8474L34.035 30.9835L40.9299 20.2997L36.486 32.4348C38.0099 33.2128 40.0448 34.0147 42.3265 34.2095V18.6667H32.2591V18.6667Z" fill="white"/>
</svg>
