<svg width="64" height="64" viewBox="0 0 64 64" fill="none" xmlns="http://www.w3.org/2000/svg">
<rect width="64" height="64" fill="#A80A35"/>
<path d="M22.6935 18.9931V25.7526C30.5306 25.4097 33.0086 29.2935 33.0086 29.2935C32.2049 19.6585 22.6935 18.9931 22.6935 18.9931Z" fill="white"/>
<path d="M33.0087 29.2935C33.0087 29.2935 35.4867 25.4097 43.3237 25.7526V18.9931C43.3237 18.9931 33.8124 19.6585 33.0087 29.2935Z" fill="white"/>
<path d="M33.016 29.2859C33.016 29.2859 36.8998 31.764 36.5568 39.601H43.3163C43.3163 39.601 42.651 30.0897 33.016 29.2859Z" fill="white"/>
<path d="M16.0247 49.3333H23.0364C21.616 32.2669 33.0012 29.2859 33.0012 29.2859C14.6189 30.0627 16.0247 49.3333 16.0247 49.3333Z" fill="white"/>
<path d="M42.7947 14.6667H23.2227C20.549 14.6667 18.3815 16.8342 18.3815 19.5079V33.5878C19.1173 32.6595 19.9457 31.7714 20.8796 30.9445V19.7623C20.8796 18.3277 22.0426 17.1648 23.4772 17.1648H42.5404C43.975 17.1648 45.1379 18.3277 45.1379 19.7623V38.8255C45.1379 40.2599 43.9749 41.4231 42.5404 41.4231H25.4855V43.921H42.7947C45.4684 43.921 47.6359 41.7535 47.6359 39.0798V19.5079C47.6359 16.8342 45.4684 14.6667 42.7947 14.6667Z" fill="#F68C1F"/>
</svg>
