<svg width="64" height="64" viewBox="0 0 64 64" fill="none" xmlns="http://www.w3.org/2000/svg">
<rect width="64" height="64" fill="#2A3984"/>
<path d="M16.0971 47.895C16.0648 47.4627 16.0195 47.0827 16.0195 46.7094C16.0131 42.3532 16.026 37.9904 16.0001 33.6342C15.9937 32.8023 16.2198 32.1341 16.7626 31.5184C19.8966 27.9614 23.7672 26.6316 28.284 27.9286C32.7555 29.2125 35.4436 32.3503 36.1609 37.0144C36.8071 41.1937 35.3661 44.659 32.2128 47.3972C31.7604 47.7902 31.2758 48.0064 30.649 47.9998C26.1193 47.9802 21.5896 47.9933 17.0599 47.9867C16.7691 47.9933 16.4783 47.9343 16.0971 47.895Z" fill="white"/>
<path d="M47.5853 47.9142C43.4627 47.9142 39.4176 47.9142 35.2304 47.9142C35.9541 46.8857 36.8523 46.1652 37.6342 45.3463C38.4613 44.4751 39.3142 43.6432 40.1607 42.785C40.9749 41.9596 41.7826 41.1277 42.5968 40.3023C43.4368 39.4507 44.2833 38.5992 45.1234 37.7476C45.9311 36.9287 46.7388 36.1165 47.4625 35.3828C41.1364 28.9697 34.9137 22.6483 28.5618 16.1959C27.5732 17.0671 26.6104 18.1611 25.5829 19.183C24.5167 20.2442 23.4635 21.3251 22.4037 22.3994C21.3698 23.4409 20.3424 24.489 19.3085 25.5371C18.294 26.5656 17.2795 27.6006 16.0906 28.8059C16.0906 24.417 16.0906 20.3163 16.0906 16.2352C17.0534 15.947 46.3059 15.9142 47.5853 16.1894C47.5853 26.6966 47.5853 37.2235 47.5853 47.9142Z" fill="white"/>
</svg>
