<svg width="64" height="64" viewBox="0 0 64 64" fill="none" xmlns="http://www.w3.org/2000/svg">
<rect width="64" height="64" fill="#003662"/>
<path d="M48.1908 41.1047C50.5291 41.8288 52.8673 42.7944 55.4516 44.2428C49.1753 34.1043 38.0995 23.121 27.1467 16C29.9772 18.776 34.5306 24.8108 35.7612 31.2076C40.1916 34.3457 44.3758 37.7252 48.1908 41.1047ZM48.1908 41.1047C42.776 39.4149 38.2225 39.2942 34.8998 39.6563C36.1304 36.8803 36.2535 33.9836 35.7612 31.2076C27.5159 25.4142 18.286 20.345 9.5484 16.6035C15.9478 20.8278 23.0855 33.2595 26.0391 46.536C32.4385 44.7255 42.1606 43.3979 54.8363 47.6222C52.7442 45.4497 50.5291 43.2772 48.1908 41.1047Z" fill="white"/>
</svg>
