<svg width="64" height="64" viewBox="0 0 64 64" fill="none" xmlns="http://www.w3.org/2000/svg">
<rect width="64" height="64" fill="#004B8D"/>
<path fill-rule="evenodd" clip-rule="evenodd" d="M42.3289 41.4069C41.6366 42.0483 40.8025 42.5222 39.6285 42.9434L25.5868 47.8303V35.7328L35.9289 29.7706L35.9372 29.7658C36.151 29.637 36.3325 29.5115 36.5081 29.3895C36.5413 29.3671 36.5749 29.3434 36.608 29.321C39.0605 29.4305 40.9333 30.0959 42.3297 31.3529C43.7996 32.7412 44.5139 34.3859 44.5139 36.379C44.5139 38.3748 43.7975 40.0195 42.3289 41.4069ZM34.4248 29.3139L25.5868 34.41V29.3139H34.4248ZM24.4406 46.5182L20.0255 38.9556L24.4406 36.3972V46.5182ZM30.1065 15.8129C32.9645 15.8129 35.0747 16.4799 36.5562 17.8515C38.0054 19.1921 38.7408 20.8835 38.7408 22.8792C38.7408 25.0197 37.8566 26.8907 36.2471 28.1674H24.4406V35.072L19.8135 37.752V15.8129H30.1065ZM43.112 30.5138L43.1024 30.5056C41.7548 29.2913 39.9807 28.5424 37.8152 28.2728C39.1454 26.8379 39.8872 24.9349 39.8872 22.8792C39.8872 20.5506 39.0281 18.5762 37.3345 17.0099C35.6318 15.4333 33.267 14.6667 30.1065 14.6667H18.6667V38.9027L24.7564 49.3333L40.011 44.0247C41.3238 43.5531 42.308 42.9894 43.112 42.2437C44.8032 40.6487 45.6603 38.6756 45.6603 36.379C45.6603 34.0833 44.8032 32.11 43.112 30.5138Z" fill="white"/>
</svg>
