<svg width="64" height="64" viewBox="0 0 64 64" fill="none" xmlns="http://www.w3.org/2000/svg">
<rect width="64" height="64" fill="#0F2659"/>
<path fill-rule="evenodd" clip-rule="evenodd" d="M35.0533 23.3349H28.9528L31.9883 17.6662L35.0533 23.3349Z" fill="#C79F2A"/>
<path fill-rule="evenodd" clip-rule="evenodd" d="M31.9866 16.8823L35.6778 23.7091H28.331L31.9866 16.8823ZM31.9897 18.4502L29.5744 22.9608H34.4286L31.9897 18.4502Z" fill="#C79F2A"/>
<path fill-rule="evenodd" clip-rule="evenodd" d="M47.2643 46.3299L31.9877 17.6663L16.7116 46.3299L31.9877 16L47.2643 46.3299Z" fill="white"/>
<path fill-rule="evenodd" clip-rule="evenodd" d="M28.8419 22.5929L31.9984 28.3194L35.1552 22.593L38.8429 29.5124H38.8377L41.2644 34.0662L44.3216 39.8012L44.3225 39.7996L44.8805 40.8497L44.9527 40.985L48 46.72H40.508L40.5091 46.718H23.4689L23.47 46.72H16L19.0479 40.985H19.0257L22.7135 34.0659L22.7155 34.0696L25.7716 28.3359L25.7766 28.345L28.8419 22.5929ZM25.783 29.9531L23.3706 34.4791H28.2777L25.783 29.9531ZM28.2907 35.2553H23.3692L25.8715 39.7943L28.2907 35.2553ZM25.2198 40.2088L22.7249 35.6831L20.3127 40.2088H25.2198ZM19.6891 41.4207L17.2853 45.9437H22.1661L19.6891 41.4207ZM22.8164 45.5266L20.3292 40.985H25.2371L22.8164 45.5266ZM23.4685 45.9418H28.2813L25.8752 41.4265L23.4685 45.9418ZM26.5132 40.985L28.9315 45.5232L31.3512 40.983H26.5268L26.5279 40.985H26.5132ZM26.525 40.2068H31.3384L28.9317 35.6911L26.525 40.2068ZM29.5727 35.2553L31.9885 39.7879L34.404 35.2553H34.3966L34.4008 35.2477H29.5815L29.5857 35.2553H29.5727ZM29.5817 34.4715H34.3952L31.9882 29.9558L29.5817 34.4715ZM32.6252 29.5124L35.0523 34.0658L37.5622 29.5124H32.6252ZM32.6488 28.7362H37.5559L35.1438 24.2102L32.6488 28.7362ZM31.348 28.7362L28.8533 24.2102L26.4415 28.7362H31.348ZM26.4201 29.5124L28.9273 34.0609L31.3512 29.5124H26.4201ZM38.1993 29.9532L35.7046 34.4791H40.6111L38.1993 29.9532ZM40.6089 35.2553H35.686L38.106 39.7958L40.6089 35.2553ZM37.4517 40.2068L35.045 35.6912L32.6386 40.2068H37.4517ZM32.6252 40.983L35.0451 45.5227L37.4635 40.985H37.4505L37.4516 40.983H32.6252ZM38.1015 41.4265L35.6951 45.9418H40.5079L38.1015 41.4265ZM41.8159 45.9437H46.7148L44.3102 41.4187L41.8159 45.9437ZM43.6691 40.985L41.1628 45.532L38.7395 40.985H43.6691ZM43.6656 40.2088L41.2532 35.6831L38.7585 40.2088H43.6656ZM34.3952 45.9418L31.9882 41.4264L29.5818 45.9418H34.3952Z" fill="white"/>
</svg>
