<svg width="64" height="64" viewBox="0 0 64 64" fill="none" xmlns="http://www.w3.org/2000/svg">
<rect width="64" height="64" fill="#FE0000"/>
<path fill-rule="evenodd" clip-rule="evenodd" d="M32.5644 14.802C32.5644 19.4714 39.7391 24.656 39.7391 29.9887C39.7391 29.9887 39.7391 30.5028 39.54 31.0541C46.2493 32.5985 51 36.2387 51 40.5047C51 46.2408 42.5293 50.9476 32.0327 50.9838C31.9664 51.0202 31.9 50.9838 31.8337 50.9838C21.4371 50.9838 13 46.4238 13 40.7251C13 36.4602 18.1488 33.0029 24.36 31.1648C24.36 33.5181 31.4356 40.9827 31.601 43.9982C31.601 43.9982 31.6346 44.2547 31.6346 44.5495C31.6346 44.6967 31.6346 44.8432 31.601 44.9903C33.1288 44.1077 33.1288 41.3499 33.1288 41.3499C33.1288 34.805 26.2532 31.9002 26.2532 25.4649C26.2532 22.9647 27.3166 21.1265 28.2791 20.6114V22.4134C28.2791 27.0829 35.72 32.3048 35.72 36.5698V37.9674C37.4469 37.2319 37.4469 33.7385 37.4469 33.7385C37.4469 27.8556 30.5385 24.5827 30.5385 17.8535C30.5385 15.3535 31.601 13.5151 32.5644 13V14.802" fill="white"/>
</svg>
