<svg width="64" height="64" viewBox="0 0 64 64" fill="none" xmlns="http://www.w3.org/2000/svg">
<rect width="64" height="64" fill="#28156C"/>
<path d="M45.9967 16H18.6667V48H45.9967V16Z" fill="#E50019"/>
<path fill-rule="evenodd" clip-rule="evenodd" d="M22.3974 23.4498C27.1901 22.4602 33.8582 22.7536 32.8146 27.342C29.3012 27.0388 25.7635 27.4341 22.3974 28.5061V23.4498Z" fill="white"/>
<path fill-rule="evenodd" clip-rule="evenodd" d="M30.4317 20.2349C34.6951 21.4777 37.2026 23.9602 35.725 27.9666C37.4292 28.3737 38.9076 29.4498 39.8401 30.9617C43.8449 27.5652 42.8649 20.3986 36.8154 20.1454L30.4317 20.2349Z" fill="white"/>
<path fill-rule="evenodd" clip-rule="evenodd" d="M22.4413 32.1208C25.0871 30.9198 27.9516 30.3032 30.8471 30.3114C28.457 32.5578 25.5858 34.2031 22.4625 35.116L22.4413 32.1208Z" fill="white"/>
<path fill-rule="evenodd" clip-rule="evenodd" d="M22.3747 38.3779C27.0435 37.0319 31.2368 34.3488 34.4586 30.6461C36.9086 31.3764 38.4331 33.6305 35.9468 36.8139C32.922 40.1441 27.9614 42.2963 22.4624 43.3832L22.3747 38.3779Z" fill="white"/>
<path fill-rule="evenodd" clip-rule="evenodd" d="M31.3282 43.7913C35.9439 41.1019 39.9759 38.1839 40.6096 32.8637C44.138 36.4146 42.7466 42.3292 37.1069 43.7465L31.3282 43.7913Z" fill="white"/>
</svg>
