<svg width="64" height="64" viewBox="0 0 64 64" fill="none" xmlns="http://www.w3.org/2000/svg">
<rect width="64" height="64" fill="#0095DA"/>
<path fill-rule="evenodd" clip-rule="evenodd" d="M33.2193 47.9415L33.1825 47.9424H33.2193V47.9415ZM33.2193 37.8075V38.8545L27.6813 47.423C27.4368 47.7707 26.9986 47.9424 26.6765 47.9424H14.0002C14.3328 47.9424 14.9143 47.7588 15.1711 47.3874L20.7704 38.7246C20.965 38.4015 21.0605 38.0946 21.0842 37.8075H33.2193ZM33.2193 28.5945L33.1799 28.6556L30.6825 32.5528L24.4548 32.5524H24.2673C23.9627 32.5524 23.7248 32.4804 23.5065 32.3311C23.8339 32.5506 24.4504 32.5014 24.9088 31.9245L30.7452 23.3513C30.9612 22.9908 31.0607 22.6322 31.0642 22.2858H33.2193V28.5875C33.2057 28.6095 33.1921 28.6323 33.1799 28.6556L33.2193 28.5945V28.5937V28.5945ZM33.2193 38.8545L33.3096 38.7149C33.4813 38.452 33.5843 38.1345 33.6097 37.8075H33.2193V38.8545ZM33.2193 47.9424V47.9415C33.5694 47.927 34.1663 47.7149 34.3542 47.3791L39.9536 38.7154C40.1337 38.4116 40.2301 38.1038 40.2559 37.8075H52.7872C52.7622 38.1464 52.6518 38.47 52.4739 38.7347L46.8649 47.4133C46.6335 47.7624 46.1612 47.9424 45.8557 47.9424H33.2193ZM33.2193 22.2858H43.595C43.5946 22.6506 43.5 23.0106 43.3155 23.2968L40.6714 27.3894H35.0554C34.2355 27.3894 33.7197 27.7727 33.2592 28.5274L33.2193 28.5937L33.2592 28.5274C33.2456 28.5467 33.2324 28.5669 33.2193 28.5875V22.2858Z" fill="#00BFF2"/>
<path fill-rule="evenodd" clip-rule="evenodd" d="M33.4373 28.2585C33.3768 28.3419 33.3177 28.4319 33.2594 28.5272C33.3133 28.4508 33.3733 28.385 33.4373 28.3292V28.2585ZM33.4373 12.0001V22.286H31.064C31.0675 21.9019 30.9531 21.5344 30.7472 21.199L25.1627 12.559C24.9165 12.1867 24.324 12.0001 23.9932 12.0001H33.4373ZM14.0696 27.3923L19.9867 27.3897C22.5953 31.2386 22.5953 31.2408 22.5953 31.2408C22.941 31.7663 23.2048 32.1233 23.5068 32.3309C23.725 32.4806 23.9625 32.5526 24.267 32.5526H24.4546H30.6828L33.3186 36.6246C33.3637 36.6922 33.4027 36.7633 33.4373 36.8357V37.8073H21.0844C21.1216 37.3604 20.9849 36.9613 20.7794 36.6206L15.1551 27.9192C14.9701 27.6246 14.4132 27.4182 14.0696 27.3923ZM33.4373 22.286V12.0001H36.6647C36.9552 12.0001 37.3978 12.1301 37.6896 12.5498L43.3104 21.2456C43.5019 21.5494 43.5957 21.9199 43.5953 22.286H33.4373ZM33.4373 28.3292C33.854 27.9688 34.4552 28.0539 34.8229 28.6778L39.9551 36.618C40.1799 36.9543 40.2952 37.3678 40.2562 37.8073H52.787C52.8168 37.3981 52.7221 36.967 52.4711 36.5916L46.87 27.9266C46.6167 27.5675 46.1802 27.3897 45.8555 27.3897H40.6711H35.0551C34.3396 27.3897 33.8553 27.6821 33.4373 28.2585V28.3292ZM33.4373 36.8357C33.5806 37.1387 33.6349 37.478 33.6095 37.8073H33.4373V36.8357Z" fill="#FEFEFE"/>
</svg>
