<svg width="64" height="64" viewBox="0 0 64 64" fill="none" xmlns="http://www.w3.org/2000/svg">
<rect width="64" height="64" fill="#00622A"/>
<path fill-rule="evenodd" clip-rule="evenodd" d="M16 16H47.9997V48H16V41.1592C20.056 41.8915 24.1866 42.9377 29.8016 42.1107C41.3637 40.4082 43.6164 31.6007 43.6164 31.6007C33.5854 40.1265 25.6761 36.7933 16 34.812V32.771C22.6262 31.491 26.9067 34.9008 34.8116 33.7366C44.1951 32.3549 46.0234 25.2068 46.0234 25.2068C37.3797 32.5535 30.6775 29.0499 22.1388 27.5301C19.4687 27.0548 17.4768 27.5134 16 28.3685V16ZM23.4596 27.206C23.4596 27.206 24.5719 21.6346 30.4951 22.6888C36.4182 23.7431 41.0676 26.1734 47.0636 21.0771C47.0636 21.0771 45.7953 26.0357 39.286 26.9942C32.7769 27.9528 29.8108 24.4401 23.4596 27.206Z" fill="white"/>
</svg>
