<svg width="64" height="64" viewBox="0 0 64 64" fill="none" xmlns="http://www.w3.org/2000/svg">
<rect width="64" height="64" fill="#7399C6"/>
<path fill-rule="evenodd" clip-rule="evenodd" d="M55.1727 31.2494H53.0746V23.5306H55.0506V24.3947C55.2967 23.8755 55.9138 23.416 56.7163 23.3572C58.0753 23.2994 59 24.0489 59 25.6614V31.2494H56.8403V25.4312C56.8403 24.7405 56.8403 24.1635 56.3463 24.0489C56.1608 23.9911 55.8523 24.0489 55.6052 24.2213C55.2967 24.5103 55.1727 24.8551 55.1727 25.4312V31.2494V31.2494ZM18.687 27.3896C18.687 28.8297 18.687 29.9818 18.44 30.5587C18.2545 30.8458 18.069 31.0192 17.6365 31.0192C17.2665 31.0192 17.0195 30.8458 16.8964 30.5578C16.5879 29.9818 16.5879 28.8297 16.5879 27.3896C16.5879 26.0072 16.5879 24.7983 16.8955 24.2213C17.0195 23.9333 17.2665 23.7608 17.6365 23.7608C18.069 23.7608 18.2545 23.9333 18.44 24.2213C18.7485 24.7973 18.687 26.0072 18.687 27.3905M19.4886 24.0489C18.9946 23.6453 18.3775 23.3572 17.6365 23.3572C16.8964 23.3572 16.3409 23.6462 15.7853 24.0489C14.9203 24.7405 14.3648 26.0072 14.3648 27.3896C14.3648 28.8297 14.9203 30.0396 15.7853 30.7312C16.3409 31.1339 16.8964 31.4219 17.6365 31.4219C18.3775 31.4219 18.9955 31.1339 19.4896 30.7312C20.4151 30.0396 20.9092 28.8297 20.9092 27.3896C20.9092 26.0072 20.4151 24.7405 19.4896 24.0489M41.0354 34.1875V36.2605H40.6038C40.3568 35.3964 39.9858 34.6479 38.9978 34.5901C38.3807 34.5333 37.8252 34.8791 37.7637 35.3964C37.7021 35.9156 37.8867 36.3751 38.9978 36.953C40.4183 37.7006 41.5294 38.0464 41.5294 39.6021C41.5294 41.2725 39.9858 42.0797 38.6892 42.0797H36.2191V39.1994H36.6516C36.9611 40.6964 37.4542 41.6183 38.6277 41.6761C39.3688 41.6761 39.9234 41.2725 39.9234 40.524C39.9234 39.7746 39.4303 39.3141 38.2577 38.6803C36.9611 37.9318 36.1586 37.4704 36.1586 36.4339C36.1586 35.0515 37.2081 34.1875 38.8747 34.1875H41.0354V34.1875ZM43.7516 31.2494V25.6614C43.7516 24.0489 42.826 23.2994 41.4679 23.3572C40.5414 23.415 39.9858 23.9911 39.7388 24.4515C39.4303 23.6453 38.7508 23.2994 37.7627 23.3572C36.9611 23.415 36.3431 23.8755 36.0961 24.3947V23.5306H34.1825V31.2485H36.2816V25.4321C36.2816 24.8561 36.3431 24.5103 36.7141 24.2222C36.9611 24.0498 37.2081 23.992 37.3927 24.0498C37.8867 24.1644 37.8867 24.7414 37.8867 25.4321V31.2504H39.9858V25.3734C39.9858 24.8542 40.1089 24.5084 40.4183 24.2204C40.6653 24.0479 40.9123 23.9901 41.0969 24.0479C41.5909 24.1626 41.6524 24.7396 41.6524 25.4303V31.2485H43.7516V31.2494ZM22.3288 31.2494H24.4894V21.9171H22.3288V31.2494ZM29.6132 24.1644C30.0457 24.7405 30.0457 26.1219 30.0457 27.2171C30.0457 28.3692 30.1082 29.8671 29.6142 30.5C29.4287 30.7312 29.2432 30.8458 28.9347 30.8458C28.5031 30.8458 28.2561 30.3854 28.1331 29.6359C28.0706 28.9453 28.0706 28.0812 28.0706 27.1593C28.0706 25.6046 28.1936 23.8755 28.9971 23.8755C29.3047 23.8755 29.4287 23.9911 29.6142 24.1644H29.6132ZM32.1458 31.2494V21.9171H29.9842V24.1067C29.7997 23.703 29.3672 23.415 28.7501 23.415C27.2065 23.415 25.9724 24.9129 25.91 27.2171C25.8484 28.7728 26.404 31.365 28.5646 31.365C29.4287 31.365 29.9227 30.9036 30.1082 30.5V31.2494H32.1458V31.2494ZM48.9378 26.6411L48.2583 27.0437C47.5797 27.4473 47.4567 27.9665 47.3942 28.5416C47.3327 29.003 47.3327 29.4057 47.3942 30.0973C47.4558 30.7312 47.8883 30.8458 48.2583 30.7312C48.6908 30.5578 48.9378 29.8093 48.9378 29.003V26.6411ZM50.172 23.7608C50.7284 24.0498 51.0985 24.5093 51.0985 25.5468V31.2494H49.0609V30.3854C48.8148 31.0192 48.1353 31.4219 47.2088 31.4219C46.4687 31.4219 45.1721 31.077 45.1721 29.2911C45.1721 27.6198 46.3447 27.2749 47.6422 26.7557C48.8148 26.2953 48.9378 26.2375 48.9378 25.777V24.5093C48.9378 23.9911 48.6293 23.7608 48.0113 23.7608C47.7652 23.8186 47.3327 23.9333 47.3327 24.2213C47.2703 24.5671 47.7028 24.5671 47.7652 25.0854C47.8268 25.8926 47.1472 26.1797 46.5302 26.1228C46.0977 26.1228 45.6037 25.8926 45.5421 25.2587C45.4806 24.2213 46.7147 23.3572 48.4438 23.3572C49.2464 23.3572 49.7404 23.5306 50.172 23.7608V23.7608ZM18.3775 37.4126L17.699 37.8162C17.0195 38.2198 16.8964 38.738 16.834 39.3141C16.7734 39.7746 16.7734 40.2359 16.834 40.8689C16.834 41.5605 17.2665 41.6761 17.6365 41.5027C18.1305 41.3303 18.3775 40.6396 18.3775 39.7746V37.4126ZM19.6126 34.5323C20.1681 34.8782 20.4767 35.2818 20.4767 36.3183V42.0787H18.5025V41.2147C18.2554 41.7907 17.5769 42.1934 16.6503 42.1934C15.8478 42.1934 14.6127 41.9063 14.6127 40.1204C14.6127 38.45 15.7863 38.1042 17.0204 37.585C18.2554 37.0677 18.3785 37.0099 18.3785 36.6063V35.3386C18.3785 34.7635 18.07 34.5333 17.4529 34.5901C17.2059 34.5901 16.7743 34.7057 16.7743 34.9937C16.7119 35.3973 17.1444 35.3973 17.2059 35.9156C17.2674 36.6641 16.5888 36.9521 15.9708 36.9521C15.5393 36.8943 15.0452 36.6641 14.9828 36.0303C14.9213 35.0515 16.1563 34.1865 17.8845 34.1865C18.6879 34.1865 19.181 34.3021 19.6135 34.5333L19.6126 34.5323ZM34.5535 36.4916C34.5535 34.8791 33.6269 34.0719 32.2688 34.1875C31.5903 34.2443 31.0338 34.5323 30.7253 34.9359V32.6896H28.6252V37.9896C28.6252 39.947 27.1431 41.7907 25.6611 41.7329C24.6125 41.7329 24.3654 40.9844 24.2415 40.1782C24.0569 39.0261 24.0569 37.7015 24.18 36.2605C24.3039 35.3396 24.5509 34.5901 25.292 34.5901C25.8475 34.5901 25.909 34.9359 25.662 35.1662C25.415 35.4551 25.045 35.7422 25.2295 36.3761C25.415 37.0677 26.5876 37.1823 27.1441 36.665C27.5756 36.2036 27.5141 35.4542 27.2056 34.9937C26.8346 34.4177 26.2176 34.1875 25.292 34.1875C24.1184 34.1875 21.8963 35.1662 21.8963 38.2766C21.8963 41.6183 24.18 42.1943 25.4765 42.1943C26.9586 42.1943 28.2542 40.9844 28.6252 40.0048V42.0787H30.7243V36.2605C30.7243 35.6854 30.8474 35.3396 31.1568 35.0506C31.4038 34.8782 31.7124 34.8204 31.8979 34.8782C32.3919 34.9937 32.3919 35.5698 32.3919 36.2605V42.0787H34.5525V36.4916H34.5535ZM12.9452 21.7447V25.0285H12.5127C12.1426 23.416 11.3401 22.2051 10.229 22.1483C9.48798 22.0905 9.05548 22.4932 8.68543 23.0692C8.31538 23.7608 8.12989 25.201 8.12989 26.9282C8.12989 28.5416 8.19141 29.7515 8.3769 30.6156C8.49994 31.0192 8.80847 31.6521 9.61102 31.6521C10.0435 31.6521 10.352 31.5375 10.5375 31.3072C10.8451 30.9614 10.9076 30.2698 10.9076 29.8093V28.2536C10.9076 27.6776 10.723 27.3327 10.4136 27.1593C10.1675 27.0437 9.79651 27.0437 9.61195 26.986V26.5833H13.0682V34.8213H12.6367C12.4512 34.1875 12.3281 33.7261 12.0187 33.2078C11.7111 32.6896 11.1546 32.1135 10.229 32.1135C9.24097 32.0557 8.49994 32.6318 8.49994 33.4958C8.49994 34.6479 9.24097 34.936 10.5991 35.6276C11.8956 36.3183 13.5632 36.8953 13.5632 38.9105C13.5632 40.8689 11.7717 42.0797 9.73499 42.0797H6.46327V38.1042H6.89484C7.45038 41.1 8.80847 41.6183 9.73499 41.6183C10.9076 41.6183 11.4631 40.9266 11.4631 39.9479C11.4016 38.6803 10.4751 38.2198 9.17945 37.5859C7.32734 36.6072 6.46327 36.1458 6.46327 34.5333C6.52479 33.15 7.69739 32.2869 8.99396 31.9411C6.27778 31.6521 5.47523 29.3489 5.53675 26.8713C5.53675 24.3947 7.08033 21.7447 10.105 21.7447H12.9452V21.7447Z" fill="white"/>
</svg>
