<svg width="64" height="64" viewBox="0 0 64 64" fill="none" xmlns="http://www.w3.org/2000/svg">
<rect width="64" height="64" fill="#004293"/>
<path fill-rule="evenodd" clip-rule="evenodd" d="M17.3165 23.1616L14.7216 41.2834C14.2978 44.2433 16.3727 46.665 19.3325 46.665H38.6333C38.3201 44.3649 37.7901 42.232 37.0527 40.2512C36.0874 37.6577 34.7643 35.3183 33.1053 33.1982L24.4695 38.2818L24.2204 37.8548L30.7122 30.5144C28.5809 28.4069 26.0858 26.6081 23.08 25.2004C21.3417 24.3862 19.4298 23.7015 17.3165 23.1616V23.1616Z" fill="white"/>
<path fill-rule="evenodd" clip-rule="evenodd" d="M49.3333 17.3333H18.1506L17.7745 19.9605C20.2213 20.5634 22.4322 21.3457 24.4417 22.2868C28.0231 23.9643 30.9576 26.142 33.4439 28.7072L39.9359 24.4526C40.7742 23.9097 41.2827 24.6974 40.7148 25.2669L35.3538 30.8629C37.3493 33.3341 38.9299 36.0742 40.0668 39.1286C40.9329 41.4555 41.5402 43.961 41.8761 46.665H45.1332L49.3333 17.3333Z" fill="#009EE0"/>
</svg>
