<svg width="64" height="64" viewBox="0 0 64 64" fill="none" xmlns="http://www.w3.org/2000/svg">
<rect width="64" height="64" fill="#FF7A00"/>
<path d="M28.6369 24.4687C29.578 23.9796 30.5211 23.4946 31.4587 23C31.4682 24.4409 31.4607 25.8803 31.4607 27.3192C32.6401 27.3267 33.8195 27.3227 34.9969 27.3212C34.9914 28.2049 34.9929 29.0861 34.9949 29.9678C33.8175 29.9658 32.6381 29.9643 31.4607 29.9698C31.4682 31.2941 31.4553 32.6185 31.4627 33.9428C31.4573 34.4152 31.6429 34.9633 32.1303 35.1409C33.1186 35.5744 34.2002 35.1762 35.0986 34.7149C35.4565 35.5038 35.8655 36.2724 36.1882 37.0799C34.5943 37.9152 32.6724 38.3043 30.9286 37.7209C29.3988 37.2354 28.6299 35.6022 28.6394 34.1053C28.6349 30.8919 28.6389 27.6805 28.6369 24.4687Z" fill="white"/>
<path d="M39.2006 27.3025C40.8674 26.9154 42.8271 26.9523 44.2407 28.0212C45.5214 29.0215 45.8778 30.7385 45.8872 32.2717C44.3142 33.0459 42.7149 33.7626 41.1548 34.5645C40.7046 33.8161 40.3244 33.0293 39.9119 32.2606C40.915 31.7549 41.9371 31.279 42.9139 30.7269C42.9516 30.1899 42.3778 29.8896 41.9242 29.7821C40.994 29.5782 39.7565 29.7301 39.3103 30.684C38.9052 31.6525 38.8923 32.7678 39.1584 33.7752C39.3852 34.618 40.1933 35.2106 41.0635 35.259C42.3555 35.3499 43.649 35.1349 44.9054 34.8573C45.1848 35.687 45.4305 36.5278 45.7378 37.3484C44.1122 37.8355 42.3907 37.9854 40.6961 37.891C39.2954 37.7986 37.8182 37.2631 37.0007 36.0761C35.9637 34.5888 35.9881 32.6719 36.1871 30.9509C36.3991 29.3046 37.5094 27.7118 39.2006 27.3025Z" fill="white"/>
<path d="M47.3775 27.6028C49.5243 27.0285 51.821 26.8952 54.0001 27.3732V27.3989C53.7226 28.2508 53.4397 29.0992 53.1528 29.9476C52.1928 29.6569 51.1822 29.6847 50.1959 29.7937C50.1978 32.4257 50.1939 35.0556 50.1978 37.6856C49.2567 37.6856 48.3151 37.6856 47.376 37.6836C47.3795 34.3243 47.3755 30.9626 47.3775 27.6028Z" fill="white"/>
<path d="M12 27.3247C12.9471 27.3172 13.8937 27.3192 14.8407 27.3227C14.8427 30.7768 14.8407 34.2315 14.8427 37.6856C13.8956 37.6891 12.9471 37.6891 12 37.6856V27.3247V27.3247Z" fill="white"/>
<path d="M17.4129 37.6841C18.3674 37.6916 19.3199 37.6896 20.274 37.6841C20.272 35.0576 20.274 32.4312 20.272 29.8033C21.1813 29.7387 22.1378 29.5903 23.0189 29.8976C23.6151 30.096 23.9844 30.7072 23.9695 31.3143C23.9824 33.4371 23.9695 35.5613 23.9734 37.6841C24.9126 37.6896 25.8522 37.6876 26.7899 37.6861C26.7824 35.686 26.7899 33.6854 26.7879 31.6853C26.7993 30.5941 26.5312 29.4606 25.8319 28.596C25.0441 27.6068 23.7525 27.1309 22.5057 27.0941C20.8875 27.0476 19.0008 27.2223 17.4139 27.5846L17.4129 37.6841Z" fill="white"/>
</svg>
