<svg width="64" height="64" viewBox="0 0 64 64" fill="none" xmlns="http://www.w3.org/2000/svg">
<rect width="64" height="64" fill="#393C40"/>
<g clip-path="url(#clip0_2_288)">
<path d="M33.9369 25.7497L33.939 28.0545C33.9358 28.135 33.9532 28.215 33.9896 28.2869C34.026 28.3587 34.0802 28.4201 34.147 28.465C34.2139 28.51 34.2911 28.5372 34.3714 28.5439C34.4517 28.5506 34.5323 28.5366 34.6057 28.5033C35.1755 28.3457 37.2107 27.4289 37.3817 27.3455C37.6539 27.2057 37.7643 26.7375 37.2579 26.5124C36.1891 26.0207 34.5489 25.3785 34.5489 25.3785C34.5489 25.3785 33.971 25.1948 33.9369 25.7497Z" fill="#50C3C7"/>
<path d="M37.9771 25.7359L37.9793 28.0407C37.9761 28.1212 37.9936 28.2011 38.03 28.2729C38.0664 28.3448 38.1206 28.4061 38.1874 28.4511C38.2542 28.496 38.3314 28.5232 38.4117 28.5299C38.4919 28.5366 38.5726 28.5227 38.6459 28.4895C39.2158 28.3319 41.251 27.4151 41.422 27.3317C41.6942 27.1919 41.8049 26.7237 41.2982 26.4986C40.2294 26.0066 38.5892 25.3645 38.5892 25.3645C38.5892 25.3645 38.0113 25.181 37.9771 25.7359Z" fill="#50C3C7"/>
<path d="M8 29.7545C8.01147 29.4467 8.17626 29.4611 8.38026 29.4579C8.39039 29.4579 8.79386 29.463 8.83973 29.4579C9.25333 29.4118 9.26799 29.0478 9.26986 28.6814C9.27386 28.0347 9.26987 27.3881 9.27147 26.7414C9.27147 26.339 9.3632 26.2475 9.7576 26.2467C9.88267 26.2467 10.008 26.2443 10.1331 26.2467C10.3715 26.2539 10.4797 26.4265 10.4843 26.6673C10.4944 27.279 10.4941 28.3857 10.4941 28.9974C10.4941 29.3051 10.7184 29.4622 11.048 29.4547C11.4443 29.4459 12.0237 29.4547 12.42 29.4582C12.7072 29.4606 12.8107 29.5633 12.8157 29.8454C12.8184 29.9913 12.8189 30.1387 12.8157 30.2835C12.8091 30.5486 12.6925 30.6585 12.4293 30.6617H10.9589C10.7344 30.6617 10.5227 30.7022 10.4973 31.1638C10.4779 31.5169 10.4973 34.4078 10.4973 35.2971C10.4955 35.4406 10.5233 35.583 10.579 35.7153C10.6346 35.8475 10.7169 35.967 10.8207 36.0661C10.9245 36.1651 11.0476 36.2418 11.1823 36.2912C11.317 36.3407 11.4605 36.3618 11.6037 36.3534C12.0128 36.3339 12.3427 36.287 12.5813 35.8046C12.6099 35.7371 12.6584 35.6799 12.7204 35.6408C12.7823 35.6016 12.8548 35.5823 12.928 35.5854C13.088 35.5854 13.4992 35.5942 13.4992 35.5878C13.776 35.603 13.8336 35.8097 13.76 36.0763C13.6688 36.4065 13.4879 36.705 13.2375 36.9388C12.987 37.1725 12.6768 37.3324 12.3411 37.4006C11.6691 37.5619 10.8048 37.4835 10.4011 37.2139C9.74746 36.8531 9.29226 36.3366 9.27332 35.5387C9.27332 35.5387 9.28372 32.6299 9.27332 31.3027C9.26959 30.8358 9.18747 30.6929 8.88107 30.6627C8.872 30.6627 8.32374 30.6361 8.31094 30.6494C8.11387 30.6473 8.00293 30.5862 8.00026 30.3443L8 29.7545Z" fill="white"/>
<path d="M23.2864 36.304C23.2864 34.8374 23.2741 33.3694 23.2904 31.9022C23.2822 31.3691 23.4489 30.848 23.765 30.4187C24.0811 29.9893 24.5291 29.6754 25.0405 29.5248C26.1469 29.1712 27.2075 29.2654 28.1536 29.9944C28.423 30.1947 28.6429 30.454 28.7964 30.7524C28.95 31.0508 29.0331 31.3805 29.0395 31.716C29.0728 32.8763 29.0691 34.0384 29.0419 35.199C29.0339 35.7298 28.8372 36.2405 28.487 36.6395C28.1368 37.0386 27.656 37.2999 27.1307 37.3768C26.5476 37.4488 25.9611 37.4897 25.3736 37.4992C24.7835 37.547 24.5067 37.8227 24.5008 38.416C24.4936 39.1739 24.4992 39.9832 24.4981 40.7414C24.4981 41.1414 24.4088 41.227 24.0053 41.2278C23.8941 41.2278 23.7827 41.2294 23.6715 41.2278C23.3942 41.2216 23.2901 41.1256 23.2856 40.8525C23.2795 40.4771 23.2827 40.1016 23.2827 39.7261C23.2827 38.5857 23.2827 37.4453 23.2827 36.3048L23.2864 36.304ZM27.8411 33.4531H27.8384C27.8384 32.9528 27.8483 32.4523 27.8357 31.952C27.8398 31.7178 27.7788 31.4871 27.6594 31.2856C27.5399 31.0841 27.3669 30.9198 27.1595 30.811C26.8933 30.6596 26.5958 30.5717 26.2902 30.5541C25.9845 30.5365 25.6789 30.5896 25.3971 30.7094C25.1277 30.7994 24.8948 30.9744 24.7333 31.208C24.5718 31.4416 24.4904 31.7213 24.5014 32.0051C24.4907 32.971 24.4907 33.9368 24.5014 34.9027C24.5029 35.1744 24.5851 35.4394 24.7377 35.6642C24.8902 35.889 25.1062 36.0634 25.3581 36.1651C25.7171 36.3446 26.7685 36.319 27.1275 36.0624C27.2301 36.0358 27.8763 35.6709 27.8438 34.724C27.8288 34.3013 27.8411 33.8774 27.8411 33.4534V33.4531Z" fill="white"/>
<path d="M36.8083 33.5017C36.8083 33.9817 36.8083 34.4617 36.8083 34.9417C36.8392 35.5205 36.6572 36.0907 36.2966 36.5446C35.936 36.9984 35.4218 37.3046 34.851 37.4054C33.9283 37.649 32.9477 37.5364 32.1043 37.09C31.2605 36.6366 30.9541 35.8073 31.0291 34.9361C31.0447 34.4101 31.2582 33.9094 31.6269 33.534C31.9783 33.1918 32.4436 32.9913 32.9336 32.971C33.5856 32.9396 34.2403 32.9444 34.8928 32.9361C35.0102 32.9531 35.13 32.9355 35.2375 32.8854C35.345 32.8353 35.4355 32.7548 35.4979 32.654C35.5369 32.5737 35.5613 32.4871 35.5699 32.3982C35.6934 31.4254 35.2459 30.7449 34.2493 30.5881C33.9937 30.5328 33.7291 30.5343 33.4742 30.5924C33.2192 30.6505 32.9801 30.7638 32.7736 30.9244C32.5305 31.1656 32.3425 31.4568 32.2227 31.7777C32.2016 31.8526 32.1531 31.9169 32.0869 31.9578C32.0207 31.9987 31.9415 32.0134 31.8651 31.9988C31.8616 31.9988 31.5158 32.002 31.4046 31.9988C31.0923 31.9897 31.0254 31.7697 31.08 31.4633C31.3048 30.2046 32.352 29.4924 33.5013 29.3668C34.1655 29.276 34.8416 29.3901 35.4392 29.6937C35.8472 29.8937 36.1911 30.2041 36.4318 30.5895C36.6725 30.9749 36.8004 31.4201 36.8011 31.8745C36.8254 32.4158 36.8054 32.959 36.8054 33.5012L36.8083 33.5017ZM34.0822 34.1764V34.1777C33.7832 34.1777 33.484 34.17 33.1853 34.1798C33.0499 34.1706 32.9141 34.1912 32.7875 34.2402C32.6608 34.2892 32.5465 34.3653 32.4526 34.4633C32.283 34.7009 32.2118 34.9949 32.2538 35.2838C32.2958 35.5727 32.4479 35.8342 32.6782 36.0137C33.1461 36.2822 33.6932 36.3789 34.2248 36.287C35.0195 36.1966 35.5181 35.8145 35.5875 35.0377C35.6349 34.5065 35.3803 34.1761 34.8531 34.1761L34.0822 34.1764Z" fill="white"/>
<path d="M20.8733 35.1019C20.8508 35.6445 20.6485 36.1643 20.2983 36.5794C19.9481 36.9946 19.4698 37.2815 18.9387 37.3952C18.4985 37.5272 18.0355 37.5657 17.5796 37.5081C17.1236 37.4505 16.6848 37.2982 16.2912 37.0608C15.9346 36.8532 15.6388 36.5556 15.4333 36.1978C15.2277 35.84 15.1197 35.4345 15.12 35.0219C15.0867 33.9659 15.0979 32.9077 15.1152 31.8509C15.1264 31.2865 15.3283 30.7426 15.6882 30.3077C16.0481 29.8728 16.5448 29.5727 17.0971 29.4563C17.5709 29.314 18.071 29.283 18.5587 29.3657C19.0464 29.4484 19.5084 29.6426 19.9088 29.9331C20.6149 30.4493 20.8869 31.1864 20.9019 32.0352C20.9112 32.4955 20.8973 34.6909 20.8733 35.1019ZM19.6766 32.112C19.6941 31.8967 19.6608 31.6804 19.5794 31.4804C19.498 31.2804 19.3707 31.1023 19.2078 30.9605C18.9998 30.7985 18.7607 30.681 18.5053 30.6152C18.25 30.5495 17.9839 30.5369 17.7235 30.5784C17.3407 30.5924 16.979 30.7573 16.7174 31.0371C16.4557 31.3169 16.3155 31.6888 16.3272 32.0717C16.3155 32.9819 16.3182 33.892 16.3272 34.8021C16.3165 34.9968 16.3485 35.1914 16.4209 35.3724C16.4933 35.5534 16.6044 35.7163 16.7464 35.8499C16.9886 36.0597 17.2797 36.2051 17.5929 36.2728C17.9061 36.3404 18.2313 36.328 18.5384 36.2368C18.8551 36.1786 19.1415 36.0116 19.3481 35.7646C19.5546 35.5177 19.6684 35.2062 19.6696 34.8843C19.6696 34.4115 19.6768 32.5637 19.6779 32.112H19.6766Z" fill="white"/>
<path d="M50.2045 33.4337C50.2045 32.947 50.2008 32.4601 50.2045 31.9734C50.2181 30.4851 51.2605 29.5571 52.5811 29.3758C53.3197 29.2531 54.078 29.386 54.7309 29.7523C55.1073 29.9542 55.4221 30.2541 55.642 30.6202C55.8618 30.9864 55.9785 31.4052 55.9797 31.8323C56.0123 32.9158 56.0021 34.0017 55.9693 35.0857C55.9489 35.6358 55.7448 36.1631 55.3896 36.5836C55.0343 37.0041 54.5485 37.2936 54.0096 37.4057C53.5746 37.5309 53.1186 37.5658 52.6697 37.5083C52.2207 37.4507 51.7882 37.3019 51.3989 37.071C51.0379 36.8583 50.7384 36.5553 50.5299 36.1918C50.3215 35.8283 50.2113 35.4167 50.2101 34.9977C50.1856 34.4771 50.2056 33.9547 50.2056 33.4331L50.2045 33.4337ZM54.7645 33.4673H54.7723C54.7723 33.0155 54.7723 32.5641 54.7723 32.1126C54.7899 31.8974 54.7566 31.681 54.6752 31.481C54.5938 31.281 54.4666 31.1029 54.3037 30.9611C54.0956 30.7989 53.8563 30.6812 53.6007 30.6154C53.3451 30.5496 53.0787 30.5371 52.8181 30.5787C52.4353 30.5927 52.0736 30.7576 51.8119 31.0374C51.5503 31.3172 51.41 31.6892 51.4216 32.0721C51.4099 32.9819 51.4126 33.8923 51.4216 34.8025C51.4109 34.9971 51.4428 35.1917 51.5152 35.3727C51.5875 35.5537 51.6986 35.7166 51.8405 35.8502C52.0827 36.0601 52.3738 36.2055 52.687 36.2731C53.0002 36.3408 53.3254 36.3284 53.6325 36.2371C53.9492 36.179 54.2357 36.012 54.4423 35.765C54.649 35.518 54.7628 35.2066 54.7643 34.8846C54.7627 34.4121 54.7635 33.9398 54.7635 33.4673H54.7645Z" fill="white"/>
<path d="M41.3776 29.4585C42.0867 29.4585 42.7957 29.4566 43.5048 29.4585C43.9832 29.4598 44.1539 29.6718 44.2032 30.1417C44.2749 30.8238 43.9829 31.1372 43.6771 31.5262C43.1349 32.1793 40.6757 35.0956 40.5472 35.3238C40.2784 35.8009 40.4387 36.238 41.0779 36.21C41.9328 36.2201 43.7891 36.202 43.8576 36.21C44.0976 36.2382 44.1859 36.37 44.1928 36.6084C44.1976 36.7684 44.1992 36.9284 44.1915 37.0884C44.1951 37.134 44.1888 37.1798 44.1728 37.2227C44.1569 37.2656 44.1318 37.3045 44.0992 37.3367C44.0667 37.3689 44.0275 37.3936 43.9844 37.4091C43.9414 37.4245 43.8954 37.4304 43.8499 37.4262C43.6277 37.4345 43.4051 37.4294 43.1832 37.4294C41.9875 37.4294 40.7918 37.4294 39.5963 37.4294C39.0363 37.4294 38.8763 37.238 38.8389 36.6798C38.8032 36.0002 39.0255 35.3321 39.4613 34.8094C40.0363 34.0841 41.9005 31.8564 42.0557 31.6604C42.2109 31.4644 42.4221 31.2014 42.3091 30.9513C42.196 30.7012 42.0184 30.6646 41.7621 30.6633C41.0323 30.6598 39.2947 30.6649 39.2947 30.6649C39.0365 30.6588 38.8581 30.5972 38.8397 30.3449C38.8341 30.1782 38.8352 29.9764 38.8397 29.81C38.8459 29.5641 38.956 29.4609 39.2301 29.4596C39.9461 29.4569 40.6616 29.4588 41.3776 29.4585Z" fill="white"/>
<path d="M47.7483 33.4472C47.7483 34.6077 47.7483 35.845 47.7483 37.0058C47.7366 37.3085 47.6464 37.4245 47.3438 37.4301C47.2464 37.4301 47.0592 37.4301 46.9619 37.4301C46.6454 37.4253 46.5352 37.3202 46.5339 37.0034C46.5307 36.3501 46.5339 35.6968 46.5339 35.0434C46.5339 33.3477 46.5339 31.4941 46.5339 29.7981C46.5339 29.5274 46.6672 29.4602 46.9582 29.4602C47.0832 29.4602 47.2862 29.4576 47.4115 29.4626C47.4569 29.4573 47.5029 29.4624 47.546 29.4775C47.5891 29.4926 47.6282 29.5174 47.6604 29.5499C47.6925 29.5824 47.7168 29.6218 47.7314 29.665C47.7461 29.7083 47.7507 29.7544 47.7448 29.7997C47.7518 30.2861 47.7494 30.7725 47.7496 31.2589C47.7493 31.9878 47.7488 32.7172 47.7483 33.4472Z" fill="white"/>
<path d="M12.3058 25.3771H13.3661C13.6094 25.3629 13.8487 25.4444 14.0327 25.6043C14.0861 25.6569 14.1283 25.7198 14.1567 25.7891C14.185 25.8585 14.199 25.9329 14.1978 26.0078V26.015C14.1991 26.1497 14.1576 26.2814 14.0791 26.3909C14.0006 26.5004 13.8893 26.5821 13.7613 26.6241C14.0695 26.7041 14.3407 26.8809 14.3407 27.2374V27.2449C14.3407 27.674 13.9738 27.9457 13.4199 27.9457H12.3047L12.3058 25.3771ZM13.3439 26.5619C13.729 26.5619 14.0042 26.3753 14.0042 26.0337V26.0262C14.0042 25.7438 13.7733 25.5529 13.3623 25.5529H12.4964V26.5617L13.3439 26.5619ZM13.4282 27.7689C13.8685 27.7689 14.1482 27.567 14.1482 27.2443V27.2369C14.1482 26.9214 13.873 26.738 13.3669 26.738H12.4975V27.7689H13.4282Z" fill="white"/>
<path d="M16.444 25.3587H16.6275L17.8232 27.9454H17.6141L17.2877 27.2254H15.7728L15.4461 27.9454H15.248L16.444 25.3587ZM17.2069 27.0534L16.532 25.5678L15.8533 27.0534H17.2069Z" fill="white"/>
<path d="M18.8799 25.3773H19.0596L20.8313 27.6112V25.3773H21.0148V27.945H20.8721L19.0636 25.6634V27.945H18.8801L18.8799 25.3773Z" fill="white"/>
<path d="M22.1781 26.6686V26.6614C22.1732 26.4893 22.2026 26.318 22.2649 26.1575C22.3271 25.997 22.4208 25.8506 22.5404 25.7269C22.66 25.6032 22.8032 25.5046 22.9615 25.437C23.1198 25.3694 23.29 25.3342 23.4621 25.3334C23.6477 25.3298 23.8321 25.3645 24.0038 25.4351C24.1754 25.5058 24.3307 25.6111 24.46 25.7443L24.3243 25.8838C24.2139 25.7645 24.08 25.6693 23.931 25.6043C23.782 25.5393 23.6212 25.5058 23.4587 25.5059C23.3115 25.5079 23.1662 25.5394 23.0315 25.5986C22.8968 25.6578 22.7753 25.7435 22.6744 25.8506C22.5734 25.9577 22.495 26.084 22.4439 26.222C22.3927 26.36 22.3698 26.5069 22.3765 26.6539V26.6614C22.3701 26.809 22.3932 26.9564 22.4446 27.095C22.496 27.2335 22.5747 27.3604 22.6759 27.4681C22.7771 27.5757 22.8988 27.6621 23.0339 27.722C23.169 27.7819 23.3147 27.8141 23.4624 27.8168C23.6297 27.8169 23.7951 27.7812 23.9476 27.7123C24.1 27.6433 24.236 27.5426 24.3464 27.4168L24.4747 27.5416C24.3461 27.6843 24.1887 27.7979 24.0129 27.875C23.8371 27.9522 23.6469 27.9911 23.4549 27.9891C23.2835 27.9893 23.1138 27.9549 22.9559 27.8881C22.7981 27.8212 22.6553 27.7232 22.5361 27.6C22.417 27.4767 22.3238 27.3307 22.2623 27.1707C22.2008 27.0107 22.1722 26.8399 22.1781 26.6686V26.6686Z" fill="white"/>
<path d="M25.3258 26.6687V26.6615C25.3204 26.4888 25.3496 26.3168 25.4118 26.1557C25.474 25.9945 25.5679 25.8475 25.6879 25.7233C25.808 25.599 25.9517 25.5002 26.1106 25.4325C26.2695 25.3647 26.4404 25.3296 26.6131 25.3291C26.7859 25.3286 26.957 25.3628 27.1163 25.4295C27.2756 25.4963 27.4199 25.5944 27.5406 25.7179C27.6614 25.8414 27.7561 25.9879 27.8193 26.1487C27.8824 26.3095 27.9126 26.4813 27.9082 26.654C27.9119 26.6578 27.9119 26.6578 27.9082 26.6615C27.9136 26.8341 27.8844 27.0061 27.8221 27.1673C27.7599 27.3284 27.666 27.4755 27.546 27.5997C27.4259 27.7239 27.2822 27.8228 27.1233 27.8905C26.9643 27.9581 26.7934 27.9933 26.6207 27.9938C26.448 27.9942 26.2769 27.9601 26.1176 27.8933C25.9583 27.8265 25.814 27.7284 25.6932 27.6048C25.5725 27.4813 25.4778 27.3348 25.4147 27.174C25.3516 27.0132 25.3213 26.8414 25.3258 26.6687ZM27.7101 26.6687V26.6615C27.716 26.5131 27.6921 26.365 27.6398 26.226C27.5875 26.087 27.5079 25.9598 27.4057 25.8521C27.3034 25.7444 27.1806 25.6583 27.0445 25.5988C26.9084 25.5394 26.7618 25.5078 26.6133 25.506C26.4655 25.5071 26.3195 25.538 26.184 25.5968C26.0484 25.6557 25.9261 25.7412 25.8244 25.8484C25.7227 25.9556 25.6437 26.0821 25.592 26.2206C25.5403 26.359 25.5171 26.5064 25.5237 26.654V26.6615C25.5177 26.8099 25.5416 26.958 25.5939 27.097C25.6462 27.236 25.7258 27.3631 25.828 27.4708C25.9303 27.5786 26.0531 27.6647 26.1892 27.7242C26.3253 27.7836 26.4719 27.8152 26.6205 27.817C26.7682 27.8159 26.9143 27.7849 27.0498 27.7261C27.1854 27.6673 27.3077 27.5817 27.4094 27.4745C27.5111 27.3673 27.5902 27.2407 27.6418 27.1022C27.6935 26.9638 27.7167 26.8163 27.7101 26.6687V26.6687Z" fill="white"/>
<path d="M47.7208 27.883C47.7208 27.5478 47.449 27.2761 47.1138 27.2761C46.7786 27.2761 46.5069 27.5478 46.5069 27.883V27.9763C46.5069 28.3115 46.7786 28.5833 47.1138 28.5833C47.449 28.5833 47.7208 28.3115 47.7208 27.9763V27.883Z" fill="white"/>
</g>
<defs>
<clipPath id="clip0_2_288">
<rect width="48" height="15.8952" fill="white" transform="translate(8 25.3333)"/>
</clipPath>
</defs>
</svg>
