<svg width="64" height="64" viewBox="0 0 64 64" fill="none" xmlns="http://www.w3.org/2000/svg">
<rect width="64" height="64" fill="#0070AF"/>
<path fill-rule="evenodd" clip-rule="evenodd" d="M21.3714 31.0391L20.0812 34.3897H21.8667L21.3772 31.0254L21.3714 31.0391ZM14.5365 38.7309L19.8288 27.3754H23.8303L26.0616 38.7309H22.5488L22.2899 37.2174H18.8819L18.0979 38.7309H14.5365ZM27.7248 38.7309L29.2579 27.3754H32.7976L31.2652 38.7309H27.7248ZM51.2674 31.0254L49.9721 34.3897H51.7568L51.2674 31.0254ZM44.4267 38.7309L49.7197 27.3754H53.7205L55.9525 38.7309H52.439L52.1808 37.2174H48.7721L47.9881 38.7309H44.4267Z" fill="white"/>
<path fill-rule="evenodd" clip-rule="evenodd" d="M36.6012 33.4211H41.0368L44.0761 38.6665H39.6397L36.6012 33.4211" fill="white"/>
<path fill-rule="evenodd" clip-rule="evenodd" d="M37.0623 32.6155H41.647L45.6288 27.3921H41.0441L37.0623 32.6155" fill="#F6822A"/>
<path fill-rule="evenodd" clip-rule="evenodd" d="M32.4783 38.6983H37.0623L41.0441 33.4113H36.4594L32.4783 38.6983" fill="#F6822A"/>
<path fill-rule="evenodd" clip-rule="evenodd" d="M34.1314 27.3284H38.4099L41.3416 32.6155H37.0623L34.1314 27.3284" fill="white"/>
<path fill-rule="evenodd" clip-rule="evenodd" d="M14.6412 27.7816L14.3008 31.1217C12.9962 29.2459 9.97233 30.5404 9.73487 32.877C9.43313 35.8426 12.3434 36.5338 13.927 34.7876L13.5859 38.1352C13.1133 38.377 12.651 38.565 12.1948 38.6915C11.7411 38.8188 11.2863 38.8863 10.8351 38.8962C10.2678 38.909 9.75385 38.8469 9.2908 38.7112C8.82775 38.5778 8.40869 38.3656 8.03793 38.0791C7.32287 37.5342 6.80585 36.8415 6.48738 35.9987C6.16891 35.1529 6.06411 34.1987 6.17262 33.1324C6.26011 32.2752 6.46724 31.4938 6.79735 30.7852C7.12462 30.0773 7.578 29.4331 8.15531 28.8495C8.70105 28.2932 9.29538 27.8733 9.93851 27.5884C10.5792 27.3057 11.2783 27.1548 12.034 27.1382C12.4854 27.1283 12.9283 27.1753 13.3581 27.2837C13.7903 27.3913 14.2165 27.5596 14.6412 27.7816" fill="white"/>
</svg>
