<svg width="64" height="64" viewBox="0 0 64 64" fill="none" xmlns="http://www.w3.org/2000/svg">
<rect width="64" height="64" fill="black"/>
<path d="M40.1878 23L35.3925 40.6211H31.9126L28.2798 28.9387L24.6469 40.6211H21.19L16.3488 23H20.1193L23.0829 34.1509L26.5475 23H30.035L33.5608 34.235L36.4593 23H40.1878ZM51.266 23V33.8526V33.8794C51.266 33.8947 51.3425 35.3707 50.3903 36.3841C49.7708 37.0418 48.8416 37.3745 47.6255 37.3745C46.4095 37.3745 45.4802 37.0418 44.8608 36.3841C43.9086 35.3707 43.9851 33.8947 43.9851 33.8794V23H42.421L40.1878 31.2064V33.757C40.1878 35.929 40.8914 37.7684 42.2222 39.08C43.5529 40.3879 45.4191 41.08 47.6255 41.08C49.8282 41.08 51.6981 40.3879 53.0289 39.08C54.3596 37.7722 55.0633 35.929 55.0633 33.757V23H51.266Z" fill="#FFE500"/>
<path d="M14.3603 40.6211L9.51904 23H10.7542L15.5992 40.6211H14.3603ZM19.0141 40.6211L14.1729 23H12.9377L17.7751 40.6211H19.0141Z" fill="white"/>
</svg>
