<svg width="64" height="64" viewBox="0 0 64 64" fill="none" xmlns="http://www.w3.org/2000/svg">
<rect width="64" height="64" fill="#1052E0"/>
<g clip-path="url(#clip0_2_191)">
<path d="M51.6021 19.3728C51.6132 20.7411 50.4369 21.7326 49.219 21.7237C48.1119 21.716 46.8696 20.8505 46.8679 19.3645C46.8667 17.9927 47.942 16.9982 49.241 17C50.63 17.0024 51.63 18.1364 51.6021 19.3728Z" fill="#00CC3B"/>
<path d="M47.4688 31.6142C47.4688 28.9835 47.4688 26.3522 47.4688 23.7215C47.4688 23.3718 47.4468 23.415 47.7704 23.4144C48.7871 23.4132 49.8032 23.4132 50.8198 23.4144C51.1543 23.415 51.1265 23.3783 51.1265 23.7179C51.127 27.6832 51.1265 31.6485 51.1265 35.6138C51.1265 36.8916 51.1265 38.1688 51.1265 39.4466C51.1265 39.5223 51.1253 39.5981 51.1253 39.6738C51.1253 39.743 51.0895 39.7767 51.022 39.7785C50.9648 39.7802 50.9079 39.7802 50.8509 39.7802C49.8152 39.7802 48.78 39.7808 47.7443 39.7802C47.4403 39.7802 47.4682 39.8069 47.4682 39.5069C47.4688 36.8756 47.4688 34.2449 47.4688 31.6142Z" fill="white"/>
<path d="M44.8501 23.9467C44.8501 23.8331 44.8518 23.7196 44.8495 23.606C44.846 23.4031 44.8448 23.3978 44.6488 23.3978C43.5655 23.396 42.4825 23.396 41.3992 23.3978C41.188 23.3978 41.1862 23.4019 41.1836 23.619C41.1783 24.2058 41.1754 24.7927 41.1695 25.3795C41.1689 25.4493 41.1842 25.5244 41.1487 25.5883C41.1214 25.583 41.1093 25.5842 41.1052 25.5795C41.0322 25.4925 40.9597 25.4044 40.8866 25.3174C40.1499 24.4395 39.2371 23.8189 38.1479 23.4528C37.1628 23.1215 36.1479 23.028 35.1151 23.0523C34.2915 23.0718 33.488 23.2002 32.7207 23.5001C30.7403 24.2745 29.2919 25.6558 28.318 27.5092C27.2484 29.5442 27.1232 31.7117 27.6796 33.9129C28.1974 35.9615 29.4326 37.5393 31.1085 38.7893C31.8941 39.3755 32.7772 39.7588 33.7422 39.9529C34.7885 40.1635 35.8379 40.167 36.886 39.9896C38.5006 39.7168 39.9818 39.1602 41.1701 37.8877C41.1765 37.9942 41.1847 38.0486 41.1824 38.103C41.1654 38.4716 41.1545 38.8401 41.0964 39.2057C40.8162 40.9597 39.9005 42.2233 38.2245 42.8971C36.9484 43.4106 35.6383 43.4638 34.3111 43.142C33.0723 42.8415 31.9897 42.2683 31.1667 41.2679C31.0651 41.1443 31.0574 41.1461 30.9083 41.294C30.1417 42.0559 29.3762 42.8196 28.6101 43.5828C28.5834 43.6094 28.5573 43.6372 28.53 43.6638C28.4807 43.7117 28.4783 43.7602 28.524 43.8117C28.581 43.8756 28.6363 43.9401 28.6945 44.0028C29.4599 44.8239 30.3549 45.4716 31.3662 45.9566C33.741 47.0961 36.2161 47.257 38.755 46.659C40.1408 46.3325 41.3631 45.6882 42.3713 44.6683C43.2991 43.7301 43.8965 42.6025 44.2829 41.3555C44.7075 39.9866 44.8454 38.5769 44.8471 37.1524C44.8536 32.7505 44.8501 28.3486 44.8501 23.9467ZM41.2508 31.6508C41.2293 33.3894 40.5454 34.8393 39.0898 35.9006C38.3753 36.4218 37.5649 36.7046 36.6889 36.788C35.6104 36.8903 34.5587 36.7791 33.5913 36.2544C32.0028 35.3925 31.0966 34.0596 30.8852 32.2648C30.7688 31.2787 30.8519 30.3079 31.2623 29.4004C32.077 27.6003 33.4726 26.5585 35.462 26.3503C36.6069 26.2302 37.706 26.3982 38.7007 26.9921C40.2109 27.8943 41.0542 29.2324 41.2188 30.9858C41.2311 31.1178 41.2425 31.2497 41.2502 31.3822C41.2543 31.4585 41.2508 31.5342 41.2508 31.6508Z" fill="white"/>
<path fill-rule="evenodd" clip-rule="evenodd" d="M17.5412 40.0897C19.2438 39.8566 20.7997 39.2864 22.0147 37.9678C22.0591 38.0435 22.0543 38.1073 22.0498 38.1659C22.0487 38.181 22.0476 38.1958 22.0473 38.2103C22.0491 38.4715 22.049 38.7328 22.0488 38.994C22.0487 39.1681 22.0486 39.3423 22.0491 39.5165C22.0494 39.6818 22.0423 39.7562 22.0765 39.7893C22.1113 39.8229 22.1889 39.8137 22.3609 39.814C23.3585 39.8152 24.3556 39.8164 25.3533 39.8134C25.5525 39.8132 25.6406 39.8285 25.6791 39.7925C25.7168 39.7572 25.7066 39.6723 25.7066 39.4745C25.7075 35.5487 25.7074 31.6232 25.7073 27.6975C25.7073 26.3897 25.7072 25.082 25.7072 23.7742C25.7072 23.759 25.7067 23.7438 25.7063 23.7286C25.7052 23.6963 25.7042 23.664 25.7078 23.6322C25.7221 23.5044 25.6852 23.4476 25.5392 23.4482C24.437 23.4541 23.3348 23.4541 22.2332 23.4482C22.077 23.447 22.0455 23.5068 22.0467 23.647C22.0527 24.2711 22.0503 24.8958 22.0473 25.5205C22.0473 25.5333 22.0495 25.5473 22.0518 25.5616C22.0594 25.6093 22.0676 25.6612 21.9969 25.6903C21.9568 25.6429 21.9172 25.5954 21.8778 25.5479C21.8019 25.4568 21.7264 25.3661 21.6483 25.2774C20.9315 24.4663 20.0692 23.8611 19.0407 23.5103C17.4213 22.9578 15.7727 22.8998 14.1391 23.3897C11.6134 24.1475 9.89363 25.8311 8.88052 28.2234C8.159 29.9277 8.05863 31.7207 8.43395 33.5173C8.99454 36.2037 10.548 38.1724 12.99 39.4218C14.4205 40.1536 15.9657 40.3057 17.5412 40.0897ZM13.7803 27.3573C12.3633 28.428 11.7054 29.8726 11.7077 31.6704C11.7109 31.7318 11.7132 31.7951 11.7157 31.8599C11.7244 32.0916 11.7338 32.3423 11.7802 32.5915C12.168 34.6697 13.3699 36.038 15.3902 36.6793C15.9454 36.8556 16.5268 36.8916 17.1088 36.8709C19.0513 36.8005 20.5121 35.922 21.4795 34.2491C22.0116 33.328 22.1607 32.3129 22.1048 31.2646C22.0229 29.7289 21.3999 28.4588 20.2009 27.4797C19.3482 26.7835 18.3583 26.4421 17.2673 26.383C15.9965 26.3137 14.8106 26.5782 13.7803 27.3573Z" fill="white"/>
</g>
<defs>
<clipPath id="clip0_2_191">
<rect width="49" height="30" fill="white" transform="translate(8 17)"/>
</clipPath>
</defs>
</svg>
