<svg width="64" height="64" viewBox="0 0 64 64" fill="none" xmlns="http://www.w3.org/2000/svg">
<rect width="64" height="64" fill="#4C0677"/>
<path d="M15.039 25.1744C14.9957 26.0076 15.039 26.8543 15.039 27.6733V35.6731H19.5687V28.349C19.5687 26.0643 19.5545 24.0396 19.5687 23.623C19.656 21.6415 20.1936 20.3491 21.2239 19.3001H20.9924C18.7847 19.3001 16.7084 20.5499 15.7065 22.4881C15.2578 23.337 15.098 24.2561 15.0398 25.1744H15.039Z" fill="white"/>
<path d="M25.2951 17.4993C23.5929 17.4993 22.1519 18.1601 21.0611 19.2807C24.4507 19.2807 26.633 21.5504 26.7644 25.1856C26.7935 26.0188 26.8077 30.4723 26.8077 30.4723V35.6732H31.3471V28.6476C31.3471 26.5213 31.362 24.6832 31.2164 23.4184C30.7946 19.8556 28.5973 17.4993 25.2951 17.4993V17.4993ZM48.9624 28.4893C49.0065 27.6561 48.9624 26.8087 48.9624 25.9905V17.9906H44.4328V25.3148C44.4328 27.5994 44.447 29.6234 44.4328 30.0408C44.3454 32.0223 43.8079 33.3146 42.7776 34.3636H43.009C45.2167 34.3636 47.293 33.1138 48.295 31.1749C48.7444 30.3275 48.9042 29.4226 48.9624 28.4893Z" fill="white"/>
<path d="M38.7071 36.1644C40.4094 36.1644 41.8496 35.5037 42.9403 34.383C39.5508 34.383 37.3684 32.1133 37.237 28.4774C37.2079 27.6449 37.1937 25.5761 37.1937 23.1914V17.9906H32.6544V25.0161C32.6544 27.1417 32.6395 28.9806 32.785 30.2453C33.2069 33.7939 35.4041 36.1644 38.7064 36.1644H38.7071Z" fill="white"/>
<path d="M21.6149 40.6792C20.7893 40.6792 20.1254 41.0964 19.7341 41.8094V40.8092H18.3224V47.1448H19.7345V43.7121C19.7345 42.7123 20.347 42.0694 21.266 42.0694C22.1679 42.0694 22.7634 42.7212 22.7634 43.7121V47.1448H24.1841V43.5294C24.193 41.7652 23.2057 40.6792 21.6153 40.6792H21.6149ZM31.2184 40.8753H29.6405L27.9412 45.2355L26.2328 40.8753H24.6724L27.3255 47.1453H28.5652L31.2184 40.8753ZM37.9597 43.8269C37.9597 41.985 36.5735 40.6792 34.867 40.6792C33.0474 40.6792 31.6093 42.0976 31.6093 43.931C31.6093 45.8162 33.0474 47.2431 34.8929 47.2431C36.4435 47.2431 37.6479 46.3697 37.8815 45.038H36.435C36.305 45.583 35.6988 45.9373 34.9188 45.9373C33.8966 45.9373 33.2556 45.3579 33.0733 44.4237H37.9164C37.9423 44.3116 37.9597 43.9917 37.9597 43.8273V43.8269ZM33.1166 43.2046C33.3248 42.4264 33.9395 41.9765 34.7977 41.9765C35.6639 41.9765 36.2702 42.4782 36.4002 43.2046H33.1166ZM41.7869 47.2431C43.1718 47.2431 44.2127 46.3956 44.2127 45.2542C44.2127 42.6252 40.5656 43.7925 40.5656 42.5215C40.5656 42.1239 40.9614 41.8729 41.5287 41.8729C42.1828 41.8729 42.621 42.2186 42.6818 42.6511H44.118C43.9804 41.3712 42.8453 40.6792 41.5546 40.6792C40.0925 40.6792 39.1807 41.5181 39.1807 42.6162C39.1807 45.0121 42.8104 43.9225 42.8104 45.2716C42.8104 45.7126 42.3976 46.0065 41.7097 46.0065C41.0043 46.0065 40.4624 45.6433 40.4105 45.0898H39.0346C39.1722 46.4479 40.247 47.2431 41.7869 47.2431ZM48.9911 42.1883V40.811H47.3426V39.1116H45.901V40.8114H44.701V42.1887H45.901V44.7771C45.901 46.3898 46.8244 47.2436 48.2231 47.2436C48.4563 47.2436 48.7757 47.2176 49 47.1649V45.8229C48.8471 45.8585 48.6906 45.8761 48.5336 45.8752C47.8345 45.8752 47.3511 45.5526 47.3511 44.7423V42.1798H48.9911V42.1887V42.1883Z" fill="white"/>
<path d="M15.1934 40.8217V47.1453H16.6252V40.8217H15.1934ZM15 39.0504C15 38.5589 15.4128 38.1319 15.9158 38.1319C16.4188 38.1319 16.8441 38.5589 16.8441 39.0504C16.8433 39.2966 16.7453 39.5325 16.5715 39.7068C16.3977 39.8812 16.162 39.9798 15.9158 39.9814C15.4128 39.9814 15 39.5677 15 39.0504Z" fill="white"/>
</svg>
