<svg width="64" height="64" viewBox="0 0 64 64" fill="none" xmlns="http://www.w3.org/2000/svg">
<rect width="64" height="64" fill="#0DB14B"/>
<path fill-rule="evenodd" clip-rule="evenodd" d="M29.047 45.7474L16.7088 33.4231C16.2549 32.9673 16 32.3503 16 31.7071C16 31.0639 16.2549 30.4469 16.7088 29.9911L29.047 17.6668C29.1464 17.5672 29.2644 17.4883 29.3944 17.4344C29.5243 17.3805 29.6636 17.3527 29.8043 17.3527C29.945 17.3527 30.0842 17.3805 30.2142 17.4344C30.3441 17.4883 30.4622 17.5672 30.5615 17.6668C30.7559 17.8696 30.8695 18.1364 30.8811 18.4171V44.9971C30.8774 45.2821 30.7617 45.5542 30.5588 45.7545C30.356 45.9547 30.0824 46.067 29.7973 46.067C29.6571 46.0677 29.5182 46.0397 29.3891 45.9848C29.2601 45.9298 29.1437 45.849 29.047 45.7474ZM34.6048 17.3333C38.2407 17.5864 41.6452 19.2092 44.1313 21.8744C46.6174 24.5395 48 28.0485 48 31.6932C48 35.3379 46.6174 38.8469 44.1313 41.512C41.6452 44.1772 38.2407 45.8 34.6048 46.0531C34.466 46.0645 34.3264 46.0483 34.1939 46.0055C34.0614 45.9627 33.9387 45.8942 33.8328 45.8038C33.7269 45.7134 33.64 45.603 33.5769 45.4788C33.5139 45.3547 33.476 45.2193 33.4655 45.0805V39.2309C33.4623 38.9775 33.5504 38.7314 33.7136 38.5375C33.8769 38.3436 34.1044 38.215 34.3547 38.175C35.9189 37.9572 37.3516 37.1811 38.3885 35.9898C39.4254 34.7986 39.9965 33.2725 39.9965 31.6932C39.9965 30.1139 39.4254 28.5879 38.3885 27.3966C37.3516 26.2054 35.9189 25.4293 34.3547 25.2115C34.1032 25.1743 33.8739 25.0464 33.7101 24.8519C33.5463 24.6574 33.4593 24.4097 33.4655 24.1555V18.4032C33.4654 18.1242 33.5743 17.8562 33.7689 17.6564C33.9636 17.4565 34.2286 17.3406 34.5075 17.3333H34.6048Z" fill="white"/>
</svg>
