<svg width="64" height="64" viewBox="0 0 64 64" fill="none" xmlns="http://www.w3.org/2000/svg">
<rect width="64" height="64" fill="#001E61"/>
<path fill-rule="evenodd" clip-rule="evenodd" d="M39.7028 31.4563L40.0963 29.491H36.7093V26.8062L34.3317 27.1745V35.1936C34.3317 37.9659 35.392 38.7909 38.2828 38.7909H39.5484L39.9421 36.8429H38.4538C37.1369 36.8429 36.7091 36.51 36.7091 35.0356V31.4563H39.7028ZM23.3673 25.8759V34.492C23.3673 37.6856 24.804 39.0191 27.9344 39.0191C31.1843 39.0191 32.6212 37.7208 32.6212 34.5093V33.6848C32.6212 30.6667 31.2868 29.1925 28.3791 29.1925C27.4553 29.1925 26.446 29.3854 25.7618 29.9293V25.4899L23.3673 25.8759ZM28.0198 31.1225C29.6618 31.1225 30.2436 31.7895 30.2436 33.7721V34.5093C30.2436 36.4393 29.6618 37.1065 27.9856 37.1065C26.3094 37.1065 25.7274 36.4393 25.7274 34.4918V33.4917C25.7274 31.7192 26.3094 31.1225 28.0198 31.1225ZM45.4501 29.1925C42.3197 29.1925 40.8828 30.5436 40.8828 33.6319V34.1057C40.8828 37.036 42.1316 38.4573 45.0734 38.4573C46.0143 38.4573 46.9552 38.2822 47.6222 37.7379V38.0892C47.6222 39.7388 46.9211 40.2822 45.2788 40.2822H44.2956C43.7336 40.2924 43.4783 40.3948 43.1396 40.9644L43.1377 40.9636C40.3173 45.5426 35.4207 48.3399 30.0845 48.3399C21.5701 48.3399 14.6434 41.2344 14.6434 32.4999C14.6434 23.7656 21.5701 16.6601 30.0845 16.6601C36.065 16.6601 41.5056 20.213 44.0511 25.7422H44.7606C42.1664 19.8215 36.4154 16 30.0845 16C21.2156 16 14 23.4019 14 32.4999C14 41.5981 21.2156 49 30.0845 49C35.3003 49 40.1138 46.4346 43.1146 42.1773H45.4157C48.4434 42.1773 50 41.0018 50 38.0013V33.4741C50 30.4909 48.5119 29.1925 45.4501 29.1925ZM47.6395 34.404C47.6395 36.0535 47.075 36.5622 45.4503 36.5622C43.6197 36.5622 43.2606 35.913 43.2606 34.0006V33.7023C43.2606 31.8068 43.5855 31.1225 45.4501 31.1225C47.2802 31.1225 47.6395 31.7895 47.6395 33.7197V34.404Z" fill="white"/>
</svg>
