<svg width="64" height="64" viewBox="0 0 64 64" fill="none" xmlns="http://www.w3.org/2000/svg">
<rect width="64" height="64" fill="#62AC77"/>
<path d="M17.2256 23.3992V41.1229L32.2825 49.1052L47.2299 40.7051L47.2518 23.3992L32.2825 14.7352L17.2256 23.3992Z" fill="#65B22E"/>
<path d="M37.1189 46.3785L47.2297 40.7051V35.0098L37.1189 46.3785Z" fill="#35B558"/>
<path d="M17.2256 39.9793L31.8885 32.6127L17.2256 27.5991V39.9793Z" fill="#35B558"/>
<path d="M31.8885 32.6131L47.2517 25.5764V23.3994L34.2083 15.8569L31.8885 32.6131Z" fill="#70BF54"/>
<path d="M31.8885 32.6129L33.8581 48.2037L37.119 46.3785L47.2298 35.0098L47.2517 25.5762L31.8885 32.6129Z" fill="#60BC56"/>
<path d="M17.2256 39.979V41.1225L32.2825 49.1047L33.8582 48.2032L31.8885 32.6124L17.2256 39.979Z" fill="#00AE5A"/>
<path d="M17.2256 23.3992V27.5992L31.8885 32.6129L34.2083 15.8567L32.2825 14.7352L17.2256 23.3992Z" fill="#50AF47"/>
<path d="M47.8861 22.2337L32.8074 13.4818C32.4572 13.2839 32.0195 13.2839 31.6694 13.4818L16.5687 22.2557C16.2405 22.4756 16.0216 22.8494 16.0216 23.2452C16.0216 23.663 16.2405 24.0369 16.5906 24.2348L31.6694 32.9647C31.8445 33.0747 32.0414 33.1186 32.2384 33.1186C32.4353 33.1186 32.6323 33.0747 32.8074 32.9647L47.908 24.2128C48.2582 24.0149 48.477 23.641 48.477 23.2232C48.4552 22.8274 48.2363 22.4536 47.8861 22.2337ZM32.2384 30.6778L19.4138 23.2452L32.2384 15.7907L45.063 23.2232L32.2384 30.6778Z" fill="white"/>
<path d="M47.3393 27.3795C46.7046 27.3795 46.2013 27.8853 46.2013 28.523V40.1116L32.2387 48.2038L18.276 40.1336V28.545C18.276 27.9073 17.7727 27.4015 17.138 27.4015C16.5034 27.4015 16 27.9073 16 28.545V40.7933C16 41.2111 16.2188 41.5849 16.569 41.7828L31.6478 50.5128C31.8228 50.6227 32.0198 50.6667 32.2168 50.6667C32.4137 50.6667 32.6107 50.6227 32.7858 50.5128L47.8864 41.7608C48.2366 41.5629 48.4554 41.1891 48.4554 40.7713V28.523C48.4554 27.8853 47.9521 27.3795 47.3393 27.3795Z" fill="white"/>
</svg>
