<svg width="64" height="64" viewBox="0 0 64 64" fill="none" xmlns="http://www.w3.org/2000/svg">
<rect width="64" height="64" fill="#3333CC"/>
<path d="M20.6228 26.73C19.2938 26.73 18.1259 27.0924 17.1593 27.8173L16.5552 28.2603V21.3333L13.3333 22.2999V41.1075H16.5955V39.9396L17.1996 40.3826C18.2064 41.0673 19.3743 41.4297 20.6631 41.4297C24.3682 41.4297 27.3887 38.1273 27.3887 34.0597C27.3887 29.9921 24.328 26.73 20.6228 26.73ZM20.3812 38.1273C18.2064 38.1273 16.5552 36.3956 16.5552 34.1C16.5552 31.8044 18.2064 30.0324 20.3812 30.0324C22.5559 30.0324 24.2071 31.7641 24.2071 34.0597C24.1669 36.3553 22.5559 38.1273 20.3812 38.1273Z" fill="white"/>
<path d="M34.1547 32.5691L33.7922 32.4483C32.2618 31.8845 31.6174 31.522 31.6174 30.7165C31.6174 29.8708 32.4632 29.5486 33.2686 29.5486C34.0741 29.5486 35.0407 29.8305 35.0407 31.0387V31.7234H38.2625V31.0387C38.2625 28.3404 36.2086 26.4073 33.2686 26.4073C30.0871 26.4073 28.4359 28.5418 28.4359 30.6763C28.4359 33.6968 30.9328 34.5828 32.9465 35.3077L33.1478 35.3882C34.6782 35.9521 35.4434 36.3548 35.4434 37.0394C35.4434 37.9657 34.4366 38.2879 33.5506 38.2879C32.5437 38.2879 31.2953 38.006 31.2953 36.5964V35.8715H28.0734V36.5964C28.0734 39.4961 30.2482 41.4292 33.5506 41.4292C36.4905 41.4292 38.6653 39.6169 38.6653 37.0797C38.625 34.2203 36.1281 33.294 34.1547 32.5691Z" fill="white"/>
<path d="M45.8338 39.2545H49.2973V38.006H44.3437L46.4782 35.9118C48.2099 34.2203 49.0557 32.6899 49.0557 31.1193C49.0557 28.7834 47.4045 26.4073 44.2229 26.4073C41.8468 26.4073 39.3095 27.8974 39.3095 31.1193V31.6831H42.4911V31.1595C42.4911 30.0722 43.0952 29.5083 44.2632 29.5083C45.0283 29.5083 45.8741 29.9513 45.8741 31.1193C45.8741 32.0858 44.9075 33.1329 44.2229 33.8176L41.0816 36.9589C39.9942 38.0463 39.3498 39.5364 39.3498 41.0668H49.3376V39.8183H45.8338C45.6727 39.8183 45.5116 39.6975 45.5116 39.4961C45.5116 39.4156 45.6324 39.2545 45.8338 39.2545ZM50.6666 39.5767C50.6666 39.8183 50.4652 40.0197 50.2236 40.0197C49.982 40.0197 49.7806 39.8183 49.7806 39.5767C49.7806 39.335 49.982 39.1336 50.2236 39.1336C50.4652 39.1336 50.6666 39.335 50.6666 39.5767Z" fill="white"/>
</svg>
