<svg width="64" height="64" viewBox="0 0 64 64" fill="none" xmlns="http://www.w3.org/2000/svg">
<rect width="64" height="64" fill="#CC092F"/>
<path fill-rule="evenodd" clip-rule="evenodd" d="M36.4473 49.4394V38.0826C36.4473 37.6451 36.026 37.4902 35.678 37.6907L32.7747 39.3496V49.9863H35.8886C36.2 49.9863 36.4473 49.7402 36.4473 49.4394Z" fill="white"/>
<path fill-rule="evenodd" clip-rule="evenodd" d="M29.2946 41.7604V49.6172C29.2946 49.8177 29.4502 49.9727 29.6517 49.9727H31.8498V39.8828L29.6517 41.1406C29.4319 41.2682 29.2946 41.4687 29.2946 41.7604Z" fill="white"/>
<path fill-rule="evenodd" clip-rule="evenodd" d="M31.471 22.4945C29.3187 22.4945 26.9742 22.695 24.6571 23.087C27.0017 20.0883 30.7291 18.1469 34.8779 18.1469C37.946 18.1469 41.0049 19.2953 43.0655 21.0088C43.441 21.3187 43.7249 21.3461 44.0088 21.0635C44.2927 20.781 44.2653 20.4984 43.9539 20.1338C41.2613 17.0166 37.3049 14.9203 32.6432 15.0023C26.5437 15.1117 21.3601 18.9581 19.3819 24.281C17.5777 24.8461 15.92 25.5114 14.4546 26.3318C14.0517 26.5596 13.9143 26.8331 14.0517 27.1703C14.1982 27.4802 14.4821 27.5896 14.8851 27.4802C16.1489 27.1156 17.4311 26.8057 18.7774 26.5232C18.6309 27.225 18.5484 27.9541 18.5484 28.7107C18.4294 33.6143 21.067 38.2719 25.1333 40.8239C25.5363 41.0791 25.8752 41.0791 26.1041 40.7693C26.3331 40.4594 26.3056 40.1768 25.9576 39.876C23.3841 37.5791 21.9462 34.1521 21.9462 30.7614C21.9462 29.0479 22.2942 27.3982 22.9445 25.9125C24.2908 25.8031 25.747 25.712 27.3588 25.712C37.7811 25.712 46.5732 29.1299 46.5732 33.6234C46.5732 35.893 43.6791 38.1625 40.2447 39.6846C39.4113 40.0492 39.3289 40.3044 39.4388 40.669C39.5578 41.0062 39.9242 41.1156 40.3546 40.9789C46.3717 39.0193 50.9234 35.7927 50.9234 31.8916C50.9418 26.587 42.3512 22.4945 31.471 22.4945Z" fill="white"/>
</svg>
