<svg width="64" height="64" viewBox="0 0 64 64" fill="none" xmlns="http://www.w3.org/2000/svg">
<rect width="64" height="64" fill="black"/>
<path d="M17.5686 46.9984H14.6667V40.7894H17.4945C18.7417 40.7894 19.5073 41.4191 19.5073 42.4015V42.4141C19.5073 43.1193 19.1368 43.5098 18.7046 43.749C19.4085 44.0261 19.8407 44.4417 19.8407 45.2729V45.2855C19.853 46.4316 18.9392 46.9984 17.5686 46.9984ZM18.1736 42.6156C18.1736 42.2125 17.8649 41.9733 17.2969 41.9733H15.9756V43.2831H17.2105C17.8032 43.2831 18.1736 43.0815 18.1736 42.6282V42.6156ZM18.5194 45.1092C18.5194 44.6936 18.2107 44.4291 17.5315 44.4291H15.988V45.8019H17.5809C18.1736 45.8019 18.5317 45.5878 18.5317 45.1218V45.1092H18.5194Z" fill="white"/>
<path d="M25.0333 46.9984L23.7428 45.0085H22.708V46.9984H21.3931V40.7894H24.1324C25.5446 40.7894 26.3968 41.5576 26.3968 42.8423V42.8549C26.3968 43.8624 25.8733 44.4921 25.1063 44.7818L26.5672 46.9984H25.0333ZM25.0576 42.9052C25.0576 42.3259 24.668 42.0236 24.0228 42.0236H22.708V43.812H24.0471C24.6924 43.812 25.0576 43.4594 25.0576 42.9304V42.9052Z" fill="white"/>
<path d="M32.737 46.8259L32.1721 45.4392H29.5605L28.9956 46.8259H27.6019L30.2511 40.6169H31.5066L34.1558 46.8259H32.737ZM30.8537 42.241L30.0251 44.2398H31.6698L30.8537 42.241Z" fill="white"/>
<path d="M41.6235 40.6924H42.9518V46.8976H41.6235V40.6924ZM37.5652 46.9983C36.6512 46.9983 35.7372 46.6711 35.0182 46.004L35.7981 45.0348C36.3344 45.5005 36.9071 45.79 37.5896 45.79C38.1258 45.79 38.4549 45.5635 38.4549 45.211V45.1984C38.4549 44.8586 38.2477 44.6698 37.2484 44.4055C36.0419 44.0908 35.2619 43.7384 35.2619 42.5049V42.4923C35.2619 41.3595 36.1394 40.6169 37.3702 40.6169C38.2477 40.6169 38.9911 40.9064 39.6005 41.4099L38.918 42.442C38.3818 42.0644 37.8577 41.8252 37.3581 41.8252C36.8462 41.8252 36.5903 42.0644 36.5903 42.3665V42.379C36.5903 42.7818 36.8462 42.9203 37.8821 43.1972C39.1008 43.5244 39.7833 43.9775 39.7833 45.06V45.0726C39.7711 46.3061 38.8571 46.9983 37.5652 46.9983Z" fill="white"/>
<path d="M49.3333 45.5816H46.4241V40.6169H45.0215V46.8259H49.3333V45.5816Z" fill="white"/>
<path d="M32.2741 35.0979H29.1544V37.6849H32.4389C33.6183 37.6731 34.3285 37.2696 34.3285 36.4151V36.3795C34.3158 35.5844 33.6817 35.0979 32.2741 35.0979Z" fill="white"/>
<path d="M17.2538 37.6849H22.7729L20.0196 30.9586L17.2538 37.6849Z" fill="white"/>
<path d="M33.6386 31.3093V31.2747C33.6386 30.5237 32.9907 30.0963 31.822 30.0963H29.1544V32.5108H31.6442C32.8764 32.5108 33.6386 32.1527 33.6386 31.3093Z" fill="white"/>
<path d="M20.3583 23.025C20.3583 22.8065 20.1903 22.68 19.8184 22.68H18.9785V23.3699H19.8424C20.1663 23.3584 20.3583 23.2549 20.3583 23.025Z" fill="white"/>
<path d="M20.0133 21.99C20.0133 21.764 19.867 21.6451 19.5952 21.6451H18.9785V22.3349H19.5639C19.8356 22.3349 20.0133 22.2279 20.0133 21.99Z" fill="white"/>
<path d="M25.2678 21.8176L24.8425 22.8524H25.7049L25.2678 21.8176Z" fill="white"/>
<path d="M14.6667 17.3333V37.6723H14.73L19.0095 27.679H21.6684L25.9479 37.6723H26.5556V27.6665H32.2912C34.8235 27.6665 36.3682 28.9125 36.3682 30.8507V30.8885C36.3682 32.2729 35.6211 33.0784 34.7475 33.5693C36.1782 34.1105 37.0645 34.9789 37.0645 36.6277V36.6654C37.0645 37.0304 37.0139 37.3703 36.9126 37.6849H39.3942C38.6092 36.6277 38.1534 35.3062 38.1534 33.8588V33.821C38.1534 30.3221 40.7996 27.4651 44.598 27.4651C46.7251 27.4651 48.0799 28.107 49.1687 29.0887L47.4215 31.0773C46.5605 30.3724 45.6742 29.9571 44.5727 29.9571C42.4836 29.9571 40.9895 31.6814 40.9895 33.7833V33.821C40.9895 35.9229 42.4582 37.6849 44.5727 37.6849C45.9907 37.6849 46.8517 37.1185 47.8266 36.2501L49.2574 37.6849H49.3333V17.3333H14.6667ZM42.5342 22.5062C42.5342 21.5245 43.3066 20.719 44.3828 20.719C45.459 20.719 46.2187 21.5119 46.2187 22.4936V22.5062C46.2187 23.4879 45.4337 24.2934 44.3701 24.2934C43.3066 24.2934 42.5342 23.5005 42.5342 22.5062ZM36.4948 22.5062C36.4948 21.5245 37.2418 20.719 38.3053 20.719C38.9637 20.719 39.3562 20.9329 39.6728 21.2476L39.1916 21.8014C38.9257 21.5622 38.6472 21.4112 38.3053 21.4112C37.7229 21.4112 37.3051 21.8895 37.3051 22.481V22.4936C37.3051 23.0851 37.7103 23.576 38.3053 23.576C38.6978 23.576 38.9384 23.4124 39.2169 23.1732L39.6981 23.6641C39.3436 24.0417 38.9511 24.2808 38.28 24.2808C37.2544 24.2934 36.4948 23.5131 36.4948 22.5062ZM30.2527 20.7819H30.9618L32.5824 22.9089V20.7819H33.3421V24.2305H32.6964L30.9998 22.0405V24.2305H30.2527V20.7819ZM25.1122 20.7567H25.8213L27.3027 24.2305H26.505L26.1885 23.4627H24.7197L24.4032 24.2305H23.6309L25.1122 20.7567ZM18.1359 20.7819H19.7439C20.4529 20.7819 20.8834 21.1343 20.8834 21.6755V21.6881C20.8834 22.0783 20.6808 22.2922 20.4276 22.4307C20.8327 22.5817 21.0733 22.8083 21.0733 23.2739V23.2865C21.0733 23.9158 20.5542 24.2305 19.7692 24.2305H18.1232V20.7819H18.1359Z" fill="white"/>
<path d="M44.2511 23.7147C44.8146 23.7147 45.194 23.2575 45.194 22.6919V22.6799C45.194 22.1143 44.803 21.6451 44.2396 21.6451C43.6762 21.6451 43.2968 22.1023 43.2968 22.6678V22.6799C43.2968 23.2454 43.6992 23.7147 44.2511 23.7147Z" fill="white"/>
</svg>
