<svg width="64" height="64" viewBox="0 0 64 64" fill="none" xmlns="http://www.w3.org/2000/svg">
<rect width="64" height="64" fill="#820AD1"/>
<path d="M20.6791 23.0986C21.8491 21.7738 23.4012 21 25.2245 21C28.7765 21 31.1316 23.795 31.5821 27.982C31.7282 29.3418 31.7269 31.2588 31.7254 33.4792C31.7252 33.7069 31.7251 33.9379 31.7251 34.1717V42.4897H26.8404V36.3374C26.8404 36.3374 26.8304 31.0719 26.8006 30.0879C26.6695 25.8018 24.315 23.1087 20.6786 23.1058C19.5814 24.355 18.9935 25.8824 18.9069 28.2179C18.895 28.5436 18.8979 29.6982 18.9019 31.2199C18.9039 32.0083 18.9063 32.8953 18.9069 33.8167C18.9105 37.8268 18.9069 42.4906 18.9069 42.4906H14.0221V33.0223C14.0221 32.6979 14.0167 32.3707 14.0112 32.0422C14 31.3815 13.9889 30.7156 14.0221 30.0563C14.0773 28.9572 14.2537 27.8767 14.7296 26.873C15.819 24.5735 18.051 23.0929 20.4305 23.0929C20.5136 23.0929 20.5968 23.0948 20.6791 23.0986Z" fill="white"/>
<path d="M50.978 33.9437C51.0112 33.2844 51.0001 32.6185 50.9891 31.9578C50.9835 31.6293 50.978 31.3022 50.978 30.9777V21.5094H46.0933C46.0933 21.5094 46.0897 26.1733 46.0933 30.1833C46.0939 31.1046 46.0962 31.9916 46.0983 32.78C46.1022 34.3018 46.1051 35.4564 46.0933 35.7821C46.0066 38.1176 45.4187 39.645 44.3215 40.8942C40.6852 40.8913 38.3308 38.1981 38.1996 33.9122C38.1698 32.9281 38.1572 30.486 38.1572 27.6577V21.5054L33.276 21.5103V29.8284C33.276 30.0622 33.2758 30.293 33.2757 30.5208C33.2742 32.7412 33.2729 34.6582 33.419 36.018C33.8686 40.2051 36.2237 43 39.7757 43C41.5991 43 43.1512 42.2262 44.3212 40.9014C44.4034 40.9052 44.4865 40.9071 44.5696 40.9071C46.9492 40.9071 49.1812 39.4266 50.2706 37.1271C50.7465 36.1233 50.9229 35.0428 50.978 33.9437Z" fill="white"/>
</svg>
