<svg width="64" height="64" viewBox="0 0 64 64" fill="none" xmlns="http://www.w3.org/2000/svg">
<rect width="64" height="64" fill="#FF6300"/>
<path d="M40.1305 29.7374C39.0071 29.7374 38.2892 30.1606 37.6181 31.2262C37.1342 30.0664 36.2446 29.7529 35.4019 29.7529C34.7621 29.7529 33.8883 29.9569 33.4045 30.8344L33.2952 30.2074C33.2641 30.0508 33.1391 29.9411 32.9674 29.9411H31.6411C31.4536 29.9411 31.3131 30.0821 31.3131 30.2703V37.5581C31.3131 37.7461 31.4536 37.8871 31.6411 37.8871H33.2015C33.3889 37.8871 33.5295 37.7461 33.5295 37.5579V33.6397C33.5295 32.7465 33.9818 31.8845 34.8559 31.8845C35.761 31.8845 36.1822 32.5741 36.1822 33.6242V37.5579C36.1822 37.7461 36.3228 37.8871 36.51 37.8871H38.0393C38.2268 37.8871 38.3671 37.7461 38.3671 37.5579V33.6242C38.3671 32.7309 38.7728 31.9316 39.6468 31.9316C40.5364 31.9316 40.9266 32.5898 40.9266 33.5929V37.5579C40.9266 37.7461 41.0669 37.8871 41.2541 37.8871H42.8303C43.0177 37.8871 43.1581 37.7461 43.1581 37.5579V33.5302C43.1425 30.5838 41.7067 29.7371 40.1305 29.7371V29.7374ZM26.0698 29.6903C25.1333 29.6903 24.2437 29.9882 23.5571 30.8346V26.4459C23.5571 26.2577 23.4166 26.1166 23.2294 26.1166H21.5597C21.3723 26.1166 21.2317 26.2577 21.2317 26.4459V37.5421C21.2317 37.73 21.3723 37.8711 21.5597 37.8711H23.0264C23.1983 37.8711 23.3231 37.7458 23.3544 37.5892L23.4634 36.8525C24.2127 37.8085 25.1178 38.0438 26.1164 38.0438C28.4574 38.0438 30.0649 36.3667 30.0649 33.8748C30.0491 31.2729 28.426 29.69 26.0695 29.69L26.0698 29.6903ZM25.8355 35.9279C24.6963 35.9279 23.7756 35.0033 23.7756 33.8592C23.7756 32.7151 24.6963 31.7905 25.8355 31.7905C26.9749 31.7905 27.8956 32.7151 27.8956 33.8592C27.88 35.0033 26.9591 35.9279 25.8355 35.9279V35.9279ZM38.6169 25.9758C38.2736 25.9758 38.0393 26.1327 37.9145 26.3051V25.396C37.9145 25.3647 37.8834 25.3333 37.8521 25.3333H37.4775C37.4464 25.3333 37.4151 25.3647 37.4151 25.396V28.1703C37.4151 28.2014 37.4464 28.2327 37.4775 28.2327H37.8208C37.8371 28.2316 37.8524 28.2246 37.8639 28.2131C37.8754 28.2016 37.8824 28.1863 37.8835 28.17V27.8724C38.0238 28.0919 38.2892 28.2327 38.6169 28.2327C39.2567 28.2327 39.6313 27.7155 39.6313 27.1044C39.6313 26.4932 39.2567 25.9758 38.6169 25.9758V25.9758ZM38.5077 27.7939C38.133 27.7939 37.899 27.4963 37.899 27.1044C37.899 26.7125 38.133 26.4148 38.5077 26.4148C38.882 26.4148 39.1161 26.7125 39.1161 27.1044C39.1319 27.4963 38.8978 27.7939 38.5077 27.7939ZM43.9228 25.9758C43.5638 25.9758 43.3455 26.1484 43.2518 26.3051V26.1013C43.2518 26.07 43.2205 26.0387 43.1894 26.0387H42.8461C42.8148 26.0387 42.7837 26.07 42.7837 26.1013V28.1858C42.7837 28.2172 42.8148 28.2485 42.8461 28.2485H43.2205C43.2518 28.2485 43.2829 28.2172 43.2829 28.1858V26.9475C43.2829 26.6027 43.4858 26.4148 43.7981 26.4148C44.0321 26.4148 44.2193 26.6185 44.2193 26.8538V28.1858C44.2193 28.2172 44.2506 28.2485 44.2817 28.2485H44.6563C44.6874 28.2485 44.7187 28.2172 44.7187 28.1858V26.8378C44.7343 26.3361 44.4533 25.9758 43.9228 25.9758V25.9758ZM46.2636 26.4148C46.5134 26.4148 46.7006 26.5559 46.7788 26.7596V26.7751C46.7788 26.8067 46.8099 26.8222 46.8412 26.8222H47.2156C47.2469 26.8222 47.278 26.7909 47.278 26.7596C47.278 26.7596 47.278 26.6341 47.1845 26.4774V26.4619L47.1687 26.4461C47.1687 26.4303 47.1532 26.4303 47.1532 26.4148C47.0762 26.3002 46.975 26.2039 46.8567 26.1327C46.6827 26.0276 46.4827 25.9732 46.2794 25.9758C45.6394 25.9758 45.1868 26.4774 45.1868 27.1044C45.1868 27.7313 45.6394 28.2327 46.2794 28.2327C46.5134 28.2327 46.7161 28.17 46.8567 28.0761C46.8567 28.0761 47.0284 27.9821 47.1532 27.7939C47.1532 27.7939 47.1532 27.7782 47.1687 27.7782L47.1845 27.7626V27.7468C47.278 27.5902 47.278 27.4647 47.278 27.4647C47.278 27.4334 47.2469 27.4021 47.2156 27.4021H46.8412C46.8099 27.4021 46.7943 27.4178 46.7788 27.4492V27.4647C46.7006 27.6687 46.5134 27.8097 46.2636 27.8097C45.9047 27.8097 45.6862 27.5276 45.6862 27.1199C45.6707 26.7125 45.9047 26.4146 46.2636 26.4146V26.4148ZM48.7451 25.9758C48.0583 25.9758 47.6215 26.4932 47.6215 27.1044C47.6215 27.7155 48.0583 28.2327 48.7451 28.2327C49.4473 28.2327 49.8843 27.7155 49.8843 27.1044C49.8843 26.4932 49.4318 25.9758 48.7451 25.9758V25.9758ZM48.7451 27.7939C48.3861 27.7939 48.1207 27.5276 48.1207 27.1044C48.1207 26.6812 48.3861 26.4148 48.7451 26.4148C49.104 26.4148 49.3849 26.6812 49.3849 27.1044C49.3694 27.5276 49.104 27.7939 48.7451 27.7939ZM42.1126 26.0387H41.7693C41.738 26.0387 41.7069 26.07 41.7069 26.1013V26.3522C41.5663 26.1327 41.3167 25.9916 40.9734 25.9916C40.3334 25.9916 39.9588 26.5088 39.9588 27.1199C39.9588 27.7313 40.3179 28.2485 40.9734 28.2485C41.3167 28.2485 41.5663 28.1232 41.7069 27.8879V28.1856C41.7069 28.2172 41.738 28.2485 41.7693 28.2485H42.1126C42.1437 28.2485 42.175 28.2172 42.175 28.1858V26.1013C42.175 26.0545 42.1595 26.0387 42.1126 26.0387ZM41.0824 27.7939C40.7081 27.7939 40.474 27.4963 40.474 27.1044C40.474 26.7125 40.7081 26.4148 41.0824 26.4148C41.4571 26.4148 41.6911 26.7125 41.6911 27.1044C41.7069 27.4963 41.4726 27.7939 41.0824 27.7939Z" fill="white"/>
<path d="M14.5993 30.5054C14.5993 30.1135 14.9582 29.8 15.3483 29.8629C17.4397 30.1761 19.047 31.9942 19.047 34.1727C19.047 37.5895 16.3159 38.3417 15.1298 38.4985C14.8489 38.5299 14.5993 38.3104 14.5993 38.0282V30.5054V30.5054Z" fill="#462A71"/>
<path d="M11.1505 34.4393H13.1014C13.9283 34.4393 14.5994 33.7652 14.5994 32.9348V26.195C14.5994 25.9287 14.3809 25.7092 14.1155 25.7092H13.2104C11.8061 25.7094 10.6667 26.8538 10.6667 28.2642V33.9534C10.6667 34.2198 10.8852 34.4393 11.1505 34.4393ZM51.4292 36.8212C52.6152 36.2103 53.1459 35.1131 53.1925 33.9376C53.1925 32.9504 52.943 32.1511 52.5059 31.5084L53.2552 30.6464C53.38 30.5053 53.3487 30.2858 53.2083 30.1605L52.0065 29.2357C51.8506 29.1262 51.6477 29.1575 51.5384 29.2986L50.8987 30.1448C50.2558 29.8557 49.559 29.7061 48.8541 29.706C46.5758 29.706 44.4378 31.1009 44.4378 33.9063C44.4378 36.4609 46.1856 38.0595 48.8699 38.0595C50.3524 38.0595 50.8518 38.6709 50.8518 39.4702C50.8518 40.4888 49.8843 40.9904 48.8231 40.9904C47.8087 40.9904 46.9815 40.6456 46.7943 39.5955C46.763 39.4389 46.6226 39.3134 46.4665 39.3134H44.8903C44.7031 39.3134 44.547 39.4702 44.547 39.6739C44.6563 41.8211 46.1232 43.0905 48.8231 43.0905C51.0703 43.0905 53.2707 41.915 53.2707 39.4544C53.2552 38.9844 53.2552 37.6363 51.4292 36.8214V36.8212ZM48.8075 35.9124C47.6681 35.9124 46.763 34.9875 46.763 33.8592C46.763 32.7151 47.6839 31.806 48.8075 31.806C49.9309 31.806 50.8518 32.7309 50.8518 33.8592C50.8673 34.9878 49.9467 35.9124 48.8075 35.9124Z" fill="white"/>
</svg>
