<svg width="64" height="64" viewBox="0 0 64 64" fill="none" xmlns="http://www.w3.org/2000/svg">
<rect width="64" height="64" fill="#00ADEF"/>
<path d="M50.6667 30.8753C50.6667 24.1496 42.3098 18.6667 32.001 18.6667C21.6922 18.6667 13.3353 24.1496 13.3353 30.8753C13.3353 31.0489 13.3333 31.5287 13.3333 31.5903C13.3333 38.726 20.6376 44.5044 31.9987 44.5044C43.4291 44.5044 50.6667 38.7269 50.6667 31.5911C50.6667 31.3421 50.6667 31.1986 50.6667 30.8753" fill="#2A3C8E"/>
<path d="M49.9521 30.8695C49.9521 37.2103 41.9168 42.351 32.0045 42.351C22.0922 42.351 14.0569 37.2103 14.0569 30.8695C14.0569 24.5284 22.0922 19.3876 32.0045 19.3876C41.9168 19.3876 49.9521 24.5284 49.9521 30.8695Z" fill="#00ADEF"/>
<path d="M26.0447 27.2473C26.0352 27.2653 25.8565 27.4508 25.9727 27.5996C26.2558 27.9612 27.1306 28.1685 28.0152 27.9705C28.542 27.852 29.2173 27.3149 29.8712 26.796C30.5802 26.233 31.2831 25.6694 31.9899 25.4451C32.7384 25.2068 33.2181 25.3089 33.5347 25.4046C33.8828 25.5084 34.2913 25.7372 34.943 26.2265C36.1715 27.1497 41.1091 31.4598 41.9625 32.2049C42.6493 31.8948 45.7034 30.5799 49.8534 29.6655C49.4927 27.4527 48.1471 25.4285 46.1058 23.7712C43.2608 24.9662 39.7849 25.5892 36.3853 23.9291C36.3679 23.922 34.5282 23.0512 32.7134 23.0939C30.0161 23.1567 28.8472 24.3238 27.6109 25.5596L26.0447 27.2473" fill="white"/>
<path d="M41.7616 32.6733C41.7036 32.6218 35.9554 27.5922 34.6529 26.6133C33.8991 26.048 33.4804 25.9039 33.0403 25.8476C32.811 25.8181 32.4944 25.8603 32.273 25.9211C31.6675 26.086 30.8751 26.6155 30.1717 27.1732C29.4437 27.7531 28.7569 28.2993 28.1202 28.4419C27.3061 28.6245 26.3123 28.409 25.8584 28.1023C25.675 27.9791 25.5456 27.8361 25.4834 27.6909C25.316 27.3026 25.6249 26.992 25.6755 26.9399L27.262 25.2241C27.4463 25.0404 27.6322 24.8561 27.8222 24.6746C27.3103 24.7416 26.8374 24.8724 26.3765 25.0004C25.8019 25.1619 25.2487 25.3158 24.6896 25.3153C24.4563 25.3153 23.2053 25.1102 22.9679 25.046C21.532 24.6529 20.2723 24.2705 18.3901 23.3918C16.1352 25.0705 14.627 27.1695 14.1912 29.4813C14.5153 29.5672 15.0373 29.7228 15.2567 29.7712C20.3601 30.9059 21.9496 32.0748 22.238 32.3187C22.55 31.9715 23.0005 31.7518 23.503 31.7518C24.068 31.7526 24.5768 32.036 24.886 32.4746C25.1784 32.2439 25.5813 32.0464 26.1024 32.0469C26.339 32.0469 26.5844 32.0905 26.8323 32.175C27.4083 32.3725 27.7054 32.7557 27.8596 33.1027C28.0526 33.0154 28.2901 32.951 28.5698 32.9518C28.8444 32.9518 29.1303 33.0146 29.4184 33.1389C30.3593 33.543 30.5059 34.467 30.4204 35.164C30.4874 35.1561 30.5552 35.153 30.6236 35.153C31.7389 35.1539 32.6464 36.0605 32.6461 37.1767C32.6461 37.5222 32.558 37.8469 32.4041 38.1323C32.7077 38.3025 33.4815 38.6888 34.161 38.6024C34.7038 38.5341 34.9098 38.3486 34.9835 38.2445C35.0341 38.1725 35.0873 38.0886 35.0378 38.0287L33.598 36.4291C33.598 36.4291 33.3608 36.2048 33.4393 36.1182C33.5203 36.0295 33.6666 36.157 33.7705 36.2437C34.5035 36.8554 35.398 37.7794 35.398 37.7794C35.4131 37.7893 35.4722 37.9063 35.8034 37.9657C36.0882 38.0166 36.5924 37.9871 36.9413 37.7001C37.0294 37.6278 37.1174 37.5374 37.1914 37.444C37.1853 37.4488 37.1805 37.455 37.1751 37.457C37.5435 36.9856 37.134 36.509 37.134 36.509L35.4534 34.6212C35.4534 34.6212 35.2125 34.399 35.2944 34.3098C35.3676 34.2321 35.5223 34.3492 35.6278 34.4367C36.1599 34.8818 36.912 35.6365 37.6327 36.3424C37.7736 36.4454 38.4067 36.8374 39.2458 36.2864C39.7551 35.9524 39.8569 35.5425 39.8426 35.233C39.8071 34.8233 39.4878 34.5315 39.4878 34.5315L37.1914 32.2228C37.1914 32.2228 36.9486 32.0154 37.0344 31.9107C37.1048 31.8227 37.2621 31.9496 37.3653 32.036C38.0966 32.6479 40.0767 34.4637 40.0767 34.4637C40.1054 34.4837 40.7894 34.9707 41.6352 34.4324C41.9374 34.2391 42.1305 33.9476 42.1471 33.6091C42.1755 33.0219 41.7616 32.6733 41.7616 32.6733" fill="white"/>
<path d="M30.6238 35.6C30.2676 35.5958 29.8782 35.8074 29.8275 35.7764C29.7991 35.7578 29.8492 35.6149 29.8824 35.5325C29.9164 35.4503 30.3858 34.0395 29.2425 33.5493C28.3677 33.1734 27.8331 33.5963 27.6494 33.7871C27.6013 33.8372 27.5793 33.8332 27.574 33.7696C27.5563 33.5156 27.4429 32.8281 26.6879 32.598C25.6088 32.2676 24.915 33.0203 24.7391 33.2921C24.66 32.6773 24.1403 32.1998 23.5033 32.1996C22.8117 32.199 22.2503 32.7595 22.2495 33.4508C22.2495 34.1427 22.81 34.7035 23.5019 34.7035C23.8384 34.7044 24.1431 34.5699 24.368 34.3541C24.3753 34.3605 24.3781 34.3723 24.3744 34.3965C24.3218 34.7061 24.2247 35.8316 25.4034 36.2899C25.8761 36.4734 26.278 36.3372 26.6114 36.1034C26.7107 36.0333 26.7267 36.0628 26.7124 36.156C26.6702 36.4452 26.7239 37.0651 27.5928 37.4174C28.2541 37.6864 28.6455 37.4115 28.9018 37.1746C29.0129 37.0727 29.0439 37.089 29.0492 37.2466C29.0807 38.0843 29.7769 38.7492 30.6218 38.75C31.4927 38.7508 32.1984 38.0471 32.1984 37.1765C32.1992 36.306 31.4944 35.6095 30.6238 35.6" fill="white"/>
<path d="M30.6233 38.638C29.8341 38.6371 29.1928 38.0243 29.1636 37.2426C29.1616 37.1759 29.1548 36.9978 29.004 36.9978C28.9421 36.9978 28.8884 37.035 28.8262 37.091C28.6531 37.2519 28.432 37.4157 28.109 37.4157C27.9629 37.4157 27.804 37.3813 27.6368 37.3127C26.8034 36.9753 26.7918 36.4027 26.8259 36.1728C26.8349 36.1115 26.838 36.0473 26.7955 35.9981L26.7446 35.9517H26.6925C26.65 35.9517 26.6064 35.9691 26.5476 36.0108C26.3065 36.1801 26.0755 36.262 25.8405 36.262C25.7111 36.262 25.5783 36.2361 25.4455 36.1852C24.3484 35.7581 24.435 34.7226 24.4885 34.4111C24.4964 34.3478 24.4809 34.2989 24.4407 34.2665L24.3633 34.2026L24.2907 34.2718C24.0768 34.4778 23.7974 34.5909 23.5034 34.5909C22.8751 34.5901 22.3635 34.0797 22.3641 33.4511C22.3644 32.8225 22.8765 32.3123 23.5048 32.3132C24.0726 32.3132 24.556 32.74 24.6283 33.3073L24.6677 33.6131L24.8357 33.3543C24.8546 33.3242 25.3149 32.628 26.1613 32.6289C26.3222 32.6289 26.4882 32.6548 26.6559 32.7063C27.3307 32.9125 27.4446 33.5242 27.4624 33.7789C27.4742 33.9274 27.58 33.9348 27.6008 33.9348C27.659 33.9348 27.7018 33.8976 27.7325 33.8658C27.8599 33.733 28.1371 33.5119 28.571 33.5119C28.7696 33.5127 28.9809 33.5597 29.199 33.6537C30.2716 34.1134 29.7851 35.4761 29.7792 35.4902C29.6872 35.7162 29.6835 35.8158 29.7702 35.8734L29.8121 35.8937H29.8434C29.892 35.8937 29.9523 35.8726 30.0513 35.8388C30.1973 35.7885 30.4174 35.7128 30.6236 35.7131H30.6242C31.4312 35.7218 32.0879 36.3788 32.0873 37.1768C32.0868 37.9829 31.4301 38.638 30.6233 38.638V38.638ZM41.9839 32.0709C40.2132 30.5259 36.1209 26.9682 35.0125 26.1364C34.3792 25.6598 33.9472 25.4085 33.5685 25.2954C33.398 25.2439 33.1622 25.1856 32.8589 25.1851C32.5769 25.1851 32.2742 25.236 31.9582 25.3367C31.2415 25.5635 30.5282 26.1305 29.838 26.6792L29.8023 26.7073C29.1593 27.2183 28.4947 27.747 27.9919 27.8593C27.7724 27.9088 27.5468 27.9341 27.3217 27.9341C26.7584 27.9333 26.2524 27.7709 26.0628 27.5289C26.0313 27.489 26.0515 27.4246 26.125 27.3311L26.1345 27.319L27.6922 25.6401C28.912 24.42 30.0645 23.2681 32.7173 23.2073C32.761 23.2059 32.8063 23.205 32.8499 23.205C34.501 23.2062 36.1513 23.9453 36.3367 24.0309C37.8848 24.7861 39.483 25.1696 41.0891 25.171C42.7633 25.1713 44.4907 24.7571 46.3067 23.9211C46.1038 23.7501 45.8928 23.584 45.6759 23.4214C44.0802 24.1128 42.5605 24.4622 41.0937 24.4619C39.5956 24.4608 38.0992 24.1009 36.6462 23.3921C36.5697 23.3556 34.7472 22.496 32.8507 22.4951C32.8009 22.4951 32.7506 22.496 32.701 22.4968C30.4728 22.5494 29.2179 23.3401 28.3737 24.0334C27.553 24.0534 26.8445 24.2512 26.2142 24.4273C25.652 24.5838 25.1666 24.7194 24.6931 24.7191C24.4978 24.7191 24.1466 24.7011 24.1154 24.6997C23.5704 24.6834 20.8264 24.0103 18.644 23.1842C18.4212 23.3418 18.2068 23.5044 17.998 23.6707C20.278 24.6054 23.0529 25.3286 23.9288 25.3851C24.1722 25.4009 24.4319 25.4285 24.6916 25.429C25.271 25.429 25.8492 25.2667 26.4086 25.1099C26.7392 25.0174 27.1042 24.9164 27.4874 24.8429C27.3853 24.9434 27.2831 25.0455 27.1804 25.1479L25.5977 26.8601C25.4733 26.9859 25.2026 27.3213 25.3813 27.7346C25.4519 27.9012 25.596 28.061 25.7972 28.1964C26.1745 28.4502 26.8498 28.6221 27.477 28.6226C27.7148 28.6232 27.9404 28.599 28.1472 28.5526C28.8107 28.4037 29.5066 27.8494 30.2438 27.2633C30.831 26.7965 31.6658 26.2039 32.3046 26.03C32.483 25.9814 32.7024 25.951 32.8786 25.951C32.9315 25.9515 32.981 25.9532 33.0274 25.96C33.4495 26.0134 33.8578 26.1569 34.5863 26.7039C35.8854 27.68 41.6345 32.7091 41.6905 32.7586C41.6944 32.762 42.061 33.0782 42.0354 33.6039C42.0219 33.8968 41.859 34.1573 41.5765 34.3377C41.3308 34.4936 41.0776 34.5726 40.8218 34.5726C40.4375 34.5718 40.173 34.3923 40.1555 34.3799C40.1347 34.3625 38.1648 32.5563 37.44 31.9496C37.3246 31.854 37.2126 31.7676 37.0992 31.7676C37.0387 31.7673 36.985 31.7935 36.9487 31.8385C36.8347 31.9792 36.9625 32.1739 37.1127 32.3019L39.4135 34.6149C39.4169 34.6171 39.7006 34.8833 39.7315 35.2378C39.7495 35.6213 39.5663 35.9418 39.1854 36.1917C38.9138 36.3706 38.6389 36.4612 38.3696 36.4612C38.016 36.4612 37.7683 36.3006 37.7135 36.262L37.3831 35.937C36.7804 35.3433 36.1575 34.7299 35.7013 34.3492C35.5902 34.2569 35.4717 34.1714 35.3584 34.1714C35.3024 34.1714 35.2523 34.1925 35.2134 34.233C35.1617 34.2907 35.1254 34.3945 35.2551 34.567C35.3083 34.6379 35.3713 34.6964 35.3713 34.6964L37.0503 36.5825C37.0641 36.5994 37.3961 36.9939 37.088 37.387L37.0289 37.4624C36.9785 37.5178 36.9242 37.569 36.8727 37.6129C36.5863 37.8479 36.2039 37.8729 36.0522 37.8729C35.9712 37.8729 35.893 37.8659 35.8252 37.8535C35.6597 37.8239 35.548 37.7778 35.4943 37.7142L35.4737 37.6928C35.3823 37.598 34.5359 36.7342 33.8358 36.1498C33.7435 36.0721 33.6282 35.975 33.5094 35.975C33.4503 35.975 33.398 35.9981 33.3578 36.0426C33.219 36.1942 33.4273 36.4213 33.5151 36.5043L34.9473 38.0837C34.9456 38.0974 34.9278 38.1301 34.893 38.1799C34.8417 38.2505 34.6681 38.4247 34.1487 38.4897C34.0862 38.4978 34.0221 38.5012 33.9585 38.5012C33.4228 38.5012 32.8516 38.2412 32.557 38.0853C32.6909 37.802 32.7607 37.4902 32.7607 37.1776C32.761 35.9987 31.8037 35.04 30.6256 35.0392C30.6003 35.0392 30.5733 35.04 30.5482 35.0409C30.5868 34.5029 30.5105 33.4837 29.4649 33.0352C29.1636 32.9049 28.8636 32.8388 28.5718 32.8388C28.3431 32.8388 28.1236 32.8779 27.9171 32.957C27.7001 32.5358 27.3405 32.2291 26.8709 32.0692C26.6118 31.9792 26.3537 31.9339 26.1042 31.9339C25.6689 31.9339 25.2682 32.0622 24.9106 32.3166C24.5676 31.8903 24.0501 31.6379 23.5054 31.6379C23.0284 31.6379 22.5695 31.8287 22.2296 32.1655C21.7839 31.825 20.0157 30.702 15.283 29.6275C15.0537 29.5748 14.5278 29.4246 14.2056 29.3303C14.1524 29.5864 14.1113 29.8452 14.0846 30.1069C14.0846 30.1069 14.9574 30.3157 15.1288 30.3545C19.9637 31.428 21.5613 32.5448 21.8312 32.7558C21.7397 32.9755 21.6922 33.2125 21.6919 33.4511C21.691 34.45 22.5034 35.2634 23.5028 35.2643C23.6148 35.2643 23.726 35.2544 23.8351 35.2344C23.9857 35.9691 24.4665 36.5262 25.2018 36.8124C25.4165 36.8948 25.6337 36.9373 25.847 36.9373C25.9851 36.9376 26.1241 36.9205 26.2598 36.8858C26.3954 37.2302 26.7007 37.6602 27.3836 37.9376C27.6233 38.0341 27.8625 38.0845 28.0952 38.0845C28.2854 38.0845 28.4711 38.0507 28.6484 37.986C28.9756 38.7829 29.7545 39.3107 30.6228 39.3107C31.1982 39.3116 31.7508 39.0772 32.1532 38.6625C32.4984 38.8541 33.2266 39.201 33.9619 39.2018C34.0573 39.2018 34.1465 39.1954 34.2359 39.1847C34.9658 39.0924 35.3063 38.8068 35.4622 38.5845C35.4906 38.5457 35.5159 38.5046 35.5379 38.4616C35.7104 38.5116 35.9 38.5522 36.1172 38.5524C36.5159 38.5524 36.8992 38.4162 37.2858 38.1346C37.6659 37.8608 37.9366 37.4669 37.9754 37.132C37.9763 37.1273 37.9766 37.1225 37.9774 37.1174C38.1057 37.1439 38.2368 37.1574 38.3682 37.1574C38.779 37.1574 39.1834 37.0293 39.5691 36.7764C40.314 36.2882 40.4428 35.6503 40.4307 35.233C40.5613 35.26 40.6944 35.2741 40.8266 35.2741C41.2124 35.2741 41.5908 35.1579 41.9516 34.928C42.413 34.6331 42.691 34.1812 42.7335 33.6554C42.7619 33.2983 42.6736 32.9378 42.4851 32.6278C43.733 32.0903 46.5844 31.0501 49.9427 30.2932C49.9227 30.0326 49.885 29.7755 49.8383 29.5194C45.7746 30.4212 42.7431 31.733 41.9839 32.0709" fill="#2A3C8E"/>
</svg>
