<svg width="64" height="64" viewBox="0 0 64 64" fill="none" xmlns="http://www.w3.org/2000/svg">
<rect width="64" height="64" fill="#00285F"/>
<path d="M41.448 27.849C41.4479 27.645 41.3874 27.4455 41.274 27.2758C41.1606 27.1062 40.9995 26.974 40.8109 26.8959C40.6224 26.8178 40.415 26.7974 40.2148 26.8372C40.0147 26.877 39.8309 26.9753 39.6866 27.1196C39.5423 27.2639 39.444 27.4477 39.4042 27.6478C39.3644 27.848 39.3848 28.0554 39.4628 28.2439C39.5409 28.4325 39.6731 28.5936 39.8428 28.707C40.0124 28.8204 40.2119 28.881 40.4159 28.881C40.5514 28.881 40.6856 28.8544 40.8108 28.8025C40.9361 28.7507 41.0498 28.6747 41.1457 28.5788C41.2415 28.483 41.3175 28.3693 41.3694 28.2441C41.4213 28.1189 41.448 27.9847 41.448 27.8491" fill="#32E6C8"/>
<path d="M26.1186 26.7878C26.1186 26.5712 26.0544 26.3594 25.934 26.1793C25.8136 25.9991 25.6425 25.8587 25.4424 25.7758C25.2422 25.6929 25.022 25.6713 24.8095 25.7135C24.597 25.7558 24.4018 25.8601 24.2486 26.0133C24.0954 26.1665 23.9911 26.3617 23.9488 26.5742C23.9066 26.7867 23.9283 27.0069 24.0112 27.2071C24.0941 27.4072 24.2345 27.5783 24.4146 27.6987C24.5947 27.819 24.8065 27.8833 25.0232 27.8833C25.167 27.8833 25.3095 27.855 25.4424 27.7999C25.5753 27.7449 25.6961 27.6642 25.7978 27.5625C25.8995 27.4608 25.9802 27.34 26.0353 27.2071C26.0903 27.0742 26.1186 26.9317 26.1186 26.7878" fill="#32E6C8"/>
<path d="M20.2506 22.6667C20.1534 22.6657 20.0569 22.6841 19.9669 22.7209C19.8769 22.7576 19.7951 22.812 19.7263 22.8807C19.6575 22.9495 19.6032 23.0312 19.5664 23.1213C19.5296 23.2113 19.5112 23.3077 19.5121 23.4049V27.5857C18.7918 26.8566 17.871 26.3581 16.8667 26.1536C15.8624 25.949 14.8199 26.0477 13.8718 26.4371C12.9237 26.8264 12.1128 27.4888 11.5421 28.3402C10.9714 29.1915 10.6667 30.1933 10.6667 31.2182C10.6667 32.2431 10.9714 33.2449 11.5421 34.0962C12.1128 34.9476 12.9237 35.61 13.8718 35.9993C14.8199 36.3887 15.8624 36.4874 16.8667 36.2828C17.871 36.0783 18.7918 35.5798 19.5121 34.8507V35.6479C19.5121 35.8437 19.5899 36.0316 19.7284 36.1701C19.8669 36.3086 20.0548 36.3864 20.2506 36.3864C20.4465 36.3864 20.6343 36.3086 20.7728 36.1701C20.9113 36.0316 20.9891 35.8437 20.9891 35.6479V23.4049C20.99 23.3077 20.9716 23.2112 20.9348 23.1212C20.898 23.0312 20.8436 22.9494 20.7748 22.8807C20.706 22.8119 20.6242 22.7576 20.5342 22.7209C20.4442 22.6841 20.3477 22.6657 20.2504 22.6667H20.2506ZM15.8203 34.9098C15.0901 34.9099 14.3763 34.6934 13.7692 34.2877C13.162 33.882 12.6888 33.3054 12.4094 32.6308C12.1299 31.9562 12.0568 31.2139 12.1993 30.4977C12.3417 29.7815 12.6933 29.1237 13.2097 28.6074C13.726 28.091 14.3838 27.7394 15.1 27.597C15.8162 27.4545 16.5585 27.5276 17.2331 27.8071C17.9077 28.0865 18.4843 28.5598 18.89 29.1669C19.2956 29.7741 19.5122 30.4879 19.5121 31.2181C19.5121 33.3443 17.7991 34.9098 15.8203 34.9098" fill="white"/>
<path d="M25.0233 29.0237C24.926 29.0227 24.8296 29.0412 24.7396 29.0779C24.6496 29.1147 24.5678 29.1691 24.499 29.2378C24.4303 29.3066 24.3759 29.3884 24.3392 29.4784C24.3024 29.5684 24.284 29.6649 24.2849 29.7621V35.6479C24.2849 35.8437 24.3627 36.0315 24.5012 36.17C24.6397 36.3084 24.8274 36.3862 25.0233 36.3862C25.2191 36.3862 25.4069 36.3084 25.5453 36.17C25.6838 36.0315 25.7616 35.8437 25.7616 35.6479V29.7621C25.7626 29.6648 25.7442 29.5684 25.7074 29.4783C25.6707 29.3883 25.6163 29.3065 25.5476 29.2377C25.4788 29.169 25.397 29.1146 25.307 29.0778C25.217 29.0411 25.1205 29.0227 25.0233 29.0237" fill="white"/>
<path d="M40.416 29.955C40.3244 29.9541 40.2336 29.9714 40.1488 30.0061C40.064 30.0407 39.987 30.0919 39.9223 30.1567C39.8575 30.2215 39.8064 30.2985 39.7718 30.3833C39.7372 30.4681 39.7198 30.5589 39.7208 30.6505V36.1944C39.7208 36.3789 39.7941 36.5557 39.9245 36.6861C40.0548 36.8165 40.2317 36.8897 40.4161 36.8897C40.6005 36.8897 40.7774 36.8165 40.9078 36.6861C41.0382 36.5557 41.1114 36.3789 41.1114 36.1944V30.6505C41.1123 30.5589 41.095 30.4681 41.0604 30.3833C41.0258 30.2985 40.9746 30.2214 40.9098 30.1567C40.8451 30.0919 40.768 30.0407 40.6832 30.0061C40.5985 29.9714 40.5076 29.9541 40.416 29.955Z" fill="white"/>
<path d="M48.4648 27.1538C47.502 27.1538 46.5608 27.4394 45.7603 27.9744C44.9598 28.5094 44.3359 29.2697 43.9675 30.1592C43.5991 31.0488 43.5028 32.0276 43.6907 32.9719C43.8786 33.9161 44.3422 34.7835 45.0231 35.4643C45.7039 36.1451 46.5713 36.6087 47.5156 36.7965C48.4599 36.9843 49.4387 36.8879 50.3282 36.5194C51.2177 36.1509 51.978 35.527 52.5129 34.7264C53.0478 33.9259 53.3333 32.9847 53.3333 32.0219C53.3349 31.3821 53.2101 30.7483 52.966 30.1569C52.7219 29.5655 52.3633 29.0282 51.9109 28.5759C51.4585 28.1235 50.9212 27.765 50.3298 27.5209C49.7384 27.2769 49.1046 27.1521 48.4648 27.1538V27.1538ZM48.4648 35.4992C47.777 35.4992 47.1047 35.2952 46.5329 34.9131C45.961 34.531 45.5153 33.9879 45.2521 33.3524C44.9889 32.717 44.9201 32.0178 45.0543 31.3433C45.1885 30.6687 45.5197 30.0491 46.006 29.5628C46.4924 29.0765 47.112 28.7453 47.7865 28.6112C48.4611 28.477 49.1603 28.5459 49.7957 28.8091C50.4311 29.0723 50.9742 29.518 51.3563 30.0899C51.7383 30.6618 51.9423 31.3341 51.9422 32.0219C51.942 32.9441 51.5755 33.8284 50.9234 34.4804C50.2713 35.1325 49.387 35.4989 48.4648 35.4992" fill="white"/>
<path d="M36.9948 27.8491C36.9957 27.7575 36.9783 27.6667 36.9437 27.5819C36.909 27.4971 36.8578 27.4201 36.7931 27.3554C36.7283 27.2906 36.6513 27.2395 36.5665 27.2049C36.4817 27.1703 36.3909 27.1529 36.2993 27.1538H32.2205C32.214 27.1538 32.2077 27.1545 32.2013 27.1547C32.1761 27.1542 32.1512 27.1538 32.1258 27.1538C31.3589 27.1552 30.6032 27.3377 29.9202 27.6865C29.2373 28.0353 28.6464 28.5405 28.1957 29.161C27.745 29.7814 27.4473 30.4996 27.3268 31.257C27.2063 32.0143 27.2664 32.7894 27.5023 33.5191C27.7381 34.2488 28.1431 34.9125 28.684 35.456C29.225 35.9995 29.8868 36.4076 30.6153 36.6469C31.3439 36.8862 32.1187 36.95 32.8766 36.833C33.6345 36.7161 34.3541 36.4218 34.9767 35.974C35.2751 36.4015 35.4736 36.8907 35.5574 37.4052C35.6412 37.9198 35.6083 38.4467 35.461 38.9468C35.3136 39.4469 35.0558 39.9075 34.7064 40.2945C34.357 40.6814 33.9251 40.9849 33.4426 41.1824C32.9601 41.3799 32.4393 41.4663 31.9189 41.4353C31.3984 41.4044 30.8916 41.2568 30.4359 41.0034C29.9803 40.7501 29.5874 40.3976 29.2864 39.9719C28.9854 39.5462 28.7839 39.0583 28.697 38.5442C28.6661 38.364 28.5655 38.2032 28.417 38.0965C28.2685 37.9899 28.084 37.9459 27.9034 37.9742C27.7227 38.0025 27.5605 38.1008 27.4517 38.2477C27.3429 38.3946 27.2963 38.5785 27.322 38.7595C27.5118 39.9219 28.1177 40.9757 29.0268 41.7246C29.9359 42.4735 31.0862 42.8664 32.2634 42.8303C34.7997 42.7614 36.887 40.7055 36.9903 38.1705C37.0413 37.0265 36.6863 35.9013 35.988 34.9937C36.7116 34.0486 37.0654 32.8718 36.9828 31.6844C36.9003 30.4969 36.3872 29.3804 35.5399 28.5444H36.2991C36.3907 28.5454 36.4816 28.5281 36.5664 28.4935C36.6512 28.4589 36.7282 28.4077 36.793 28.3429C36.8578 28.2781 36.909 28.2011 36.9436 28.1163C36.9782 28.0315 36.9955 27.9406 36.9946 27.8491H36.9948ZM35.6033 32.0219C35.6033 32.7096 35.3993 33.3819 35.0172 33.9538C34.6351 34.5256 34.092 34.9713 33.4566 35.2344C32.8212 35.4976 32.1221 35.5665 31.4475 35.4323C30.773 35.2981 30.1534 34.967 29.6671 34.4807C29.1808 33.9944 28.8496 33.3748 28.7154 32.7002C28.5813 32.0257 28.6501 31.3266 28.9133 30.6912C29.1764 30.0558 29.6221 29.5127 30.1939 29.1306C30.7657 28.7484 31.438 28.5445 32.1258 28.5444C33.048 28.5447 33.9324 28.9111 34.5845 29.5632C35.2366 30.2153 35.603 31.0997 35.6033 32.0219" fill="white"/>
</svg>
