<svg width="64" height="64" viewBox="0 0 64 64" fill="none" xmlns="http://www.w3.org/2000/svg">
<rect width="64" height="64" fill="black"/>
<path fill-rule="evenodd" clip-rule="evenodd" d="M25.9375 35.978C26.5893 35.4126 27.0154 34.6709 27.2152 33.7522H33.6539C33.3585 36.3783 32.2892 38.506 30.4475 40.1351C28.605 41.7636 26.3371 42.5778 23.6438 42.5778C21.6799 42.5778 19.9114 42.1511 18.3384 41.2978C16.7661 40.4437 15.538 39.2569 14.6563 37.738C13.7746 36.219 13.3333 34.5131 13.3333 32.6222C13.3333 30.7307 13.7746 29.0254 14.6563 27.5065C15.538 25.9876 16.7661 24.8 18.3384 23.9467C19.9114 23.0933 21.6799 22.6667 23.6438 22.6667C26.2933 22.6667 28.5317 23.4524 30.3562 25.024C32.1814 26.5956 33.2586 28.6556 33.5885 31.2036H27.2411C26.9716 30.363 26.511 29.6868 25.8592 29.1748C25.2082 28.6628 24.4781 28.4068 23.6689 28.4068C22.5573 28.4068 21.6597 28.7936 20.9778 29.5687C20.2951 30.3438 19.9545 31.3614 19.9545 32.6222C19.9545 33.8738 20.298 34.8878 20.9842 35.6622C21.6712 36.4373 22.5652 36.8249 23.6689 36.8249C24.5298 36.8249 25.2858 36.5426 25.9375 35.978ZM48.7904 30.8011C50.0408 31.9879 50.6667 33.5218 50.6667 35.4034C50.6667 37.5538 49.9466 39.2868 48.5073 40.6037C47.0679 41.9193 45.1701 42.5778 42.816 42.5778C40.4877 42.5778 38.5957 41.9172 37.1376 40.5966C35.6789 39.2754 34.9509 37.563 34.9509 35.4589C34.9509 34.3097 35.1507 33.1534 35.551 31.99C35.9512 30.8267 36.5692 29.5545 37.4071 28.1735L40.367 23.3045L46.6202 23.3031L43.1192 29.0489C43.4685 29.0304 43.7444 29.0212 43.9471 29.0212C45.9246 29.0212 47.5386 29.6149 48.7904 30.8011ZM44.5679 37.1691C45.0185 36.7154 45.2434 36.1266 45.2434 35.4034C45.2434 34.6802 45.0185 34.0871 44.5679 33.6235C44.1174 33.1598 43.5331 32.9287 42.8153 32.9287C42.0981 32.9287 41.5139 33.1598 41.0633 33.6235C40.6128 34.0871 40.3871 34.6802 40.3871 35.4034C40.3871 36.1259 40.612 36.7154 41.0633 37.1691C41.5139 37.6235 42.0981 37.8503 42.8153 37.8503C43.5331 37.8503 44.1174 37.6228 44.5686 37.1691H44.5679Z" fill="white"/>
</svg>
