<svg width="64" height="64" viewBox="0 0 64 64" fill="none" xmlns="http://www.w3.org/2000/svg">
<rect width="64" height="64" fill="#6901A4"/>
<path d="M31.2294 39.9786C34.4386 40.1414 35.5595 37.5166 32.9921 35.6772C21.4197 31.0502 25.5486 13.6916 39.8704 16.5081L36.7378 23.4534C32.9059 23.4822 33.289 26.7872 35.5211 28.5786C46.8732 32.2573 43.185 50.3344 28.6333 47.7478L31.2294 39.9786Z" fill="white"/>
<path d="M29.16 39.3271C29.6997 39.3271 30.1371 38.8896 30.1371 38.35C30.1371 37.8103 29.6997 37.3728 29.16 37.3728C28.6203 37.3728 28.1829 37.8103 28.1829 38.35C28.1829 38.8896 28.6203 39.3271 29.16 39.3271Z" fill="#FF0E00"/>
<path d="M33.9883 42.9771C34.5279 42.9771 34.9654 42.5396 34.9654 41.9999C34.9654 41.4602 34.5279 41.0228 33.9883 41.0228C33.4486 41.0228 33.0111 41.4602 33.0111 41.9999C33.0111 42.5396 33.4486 42.9771 33.9883 42.9771Z" fill="#FF0E00"/>
<path d="M32.034 39.2313C32.5737 39.2313 33.0112 38.7938 33.0112 38.2541C33.0112 37.7145 32.5737 37.277 32.034 37.277C31.4944 37.277 31.0569 37.7145 31.0569 38.2541C31.0569 38.7938 31.4944 39.2313 32.034 39.2313Z" fill="#FF0E00"/>
<path d="M35.042 39.4135C35.5816 39.4135 36.0191 38.976 36.0191 38.4363C36.0191 37.8966 35.5816 37.4592 35.042 37.4592C34.5023 37.4592 34.0648 37.8966 34.0648 38.4363C34.0648 38.976 34.5023 39.4135 35.042 39.4135Z" fill="#FF0E00"/>
<path d="M37.8968 39.3271C38.4365 39.3271 38.874 38.8896 38.874 38.35C38.874 37.8103 38.4365 37.3728 37.8968 37.3728C37.3572 37.3728 36.9197 37.8103 36.9197 38.35C36.9197 38.8896 37.3572 39.3271 37.8968 39.3271Z" fill="#FF0E00"/>
<path d="M28.1829 42.9771C28.7225 42.9771 29.16 42.5396 29.16 41.9999C29.16 41.4602 28.7225 41.0228 28.1829 41.0228C27.6432 41.0228 27.2057 41.4602 27.2057 41.9999C27.2057 42.5396 27.6432 42.9771 28.1829 42.9771Z" fill="#FF0E00"/>
<path d="M22.3105 42.8525C22.8501 42.8525 23.2876 42.4151 23.2876 41.8754C23.2876 41.3357 22.8501 40.8983 22.3105 40.8983C21.7708 40.8983 21.3333 41.3357 21.3333 41.8754C21.3333 42.4151 21.7708 42.8525 22.3105 42.8525Z" fill="#FF0E00"/>
<path d="M35.3965 46.3874C35.9361 46.3874 36.3736 45.9499 36.3736 45.4103C36.3736 44.8706 35.9361 44.4331 35.3965 44.4331C34.8568 44.4331 34.4193 44.8706 34.4193 45.4103C34.4193 45.9499 34.8568 46.3874 35.3965 46.3874Z" fill="#FF0E00"/>
<path d="M39.1997 44.7877C38.9985 44.6057 38.7207 44.4907 38.4142 44.5099C37.8298 44.5386 37.3795 45.0368 37.4083 45.602C37.4179 45.8319 37.5137 46.0331 37.6478 46.1959C38.1076 45.6978 38.6249 45.2188 39.1997 44.7877Z" fill="#FF0E00"/>
<path d="M32.5129 46.3874C33.0526 46.3874 33.49 45.9499 33.49 45.4103C33.49 44.8706 33.0526 44.4331 32.5129 44.4331C31.9732 44.4331 31.5358 44.8706 31.5358 45.4103C31.5358 45.9499 31.9732 46.3874 32.5129 46.3874Z" fill="#FF0E00"/>
<path d="M25.3091 42.9771C25.8487 42.9771 26.2862 42.5396 26.2862 41.9999C26.2862 41.4602 25.8487 41.0228 25.3091 41.0228C24.7694 41.0228 24.3319 41.4602 24.3319 41.9999C24.3319 42.5396 24.7694 42.9771 25.3091 42.9771Z" fill="#FF0E00"/>
<path d="M29.6008 46.3874C30.1404 46.3874 30.5779 45.9499 30.5779 45.4103C30.5779 44.8706 30.1404 44.4331 29.6008 44.4331C29.0611 44.4331 28.6236 44.8706 28.6236 45.4103C28.6236 45.9499 29.0611 46.3874 29.6008 46.3874Z" fill="#FF0E00"/>
<path d="M26.6789 46.3874C27.2186 46.3874 27.6561 45.9499 27.6561 45.4103C27.6561 44.8706 27.2186 44.4331 26.6789 44.4331C26.1393 44.4331 25.7018 44.8706 25.7018 45.4103C25.7018 45.9499 26.1393 46.3874 26.6789 46.3874Z" fill="#FF0E00"/>
<path d="M31.0569 42.9771C31.5965 42.9771 32.034 42.5396 32.034 41.9999C32.034 41.4602 31.5965 41.0228 31.0569 41.0228C30.5172 41.0228 30.0797 41.4602 30.0797 41.9999C30.0797 42.5396 30.5172 42.9771 31.0569 42.9771Z" fill="#FF0E00"/>
<path d="M35.5115 28.4732L33.1261 35.5815V35.8401C21.774 32.0561 24.5043 13.7491 39.9373 16.2302L37.4083 23.6833C33.9979 23.8462 32.8866 26.0304 35.5115 28.4732Z" fill="#FE0000"/>
</svg>
