<svg width="64" height="64" viewBox="0 0 64 64" fill="none" xmlns="http://www.w3.org/2000/svg">
<rect width="64" height="64" fill="#FF7200"/>
<g clip-path="url(#clip0_2_18)">
<path fill-rule="evenodd" clip-rule="evenodd" d="M19.5649 13.327H44.4756L44.7987 13.3336L45.1131 13.36L45.4263 13.3995L45.733 13.4533L46.0342 13.5236L46.331 13.6071L46.6201 13.7048L46.9025 13.8168L47.1784 13.9409L47.4466 14.0782L47.7082 14.2297L47.961 14.3912L48.204 14.5636L48.4392 14.7503L48.6667 14.9469L48.8811 15.1522L49.0888 15.3686L49.2834 15.5926L49.4702 15.8287L49.6428 16.0736L49.8033 16.3262L49.9528 16.5876L50.0913 16.8556L50.2177 17.1312L50.3265 17.4134L50.4254 17.7023L50.5089 17.9988L50.5793 18.2997L50.6331 18.6061L50.6727 18.9158L50.698 19.2332L50.7057 19.5539V44.4469L50.698 44.7666L50.6727 45.0817L50.6331 45.3945L50.5793 45.7001L50.5089 46.0012L50.4254 46.2975L50.3265 46.5846L50.2177 46.867L50.0913 47.1447L49.9528 47.4108L49.8033 47.6722L49.6428 47.9242L49.4702 48.1692L49.2834 48.4026L49.0888 48.6289L48.8811 48.8459L48.6667 49.0513L48.4392 49.2473L48.204 49.4317L47.961 49.6044L47.7082 49.7654L47.4466 49.9148L47.1784 50.0525L46.9025 50.1785L46.6201 50.2882L46.331 50.3862L46.0342 50.4702L45.733 50.5402L45.4263 50.5939L45.1131 50.6336L44.7987 50.6592L44.4756 50.6662H19.5649L19.2426 50.6592L18.9273 50.6336L18.6143 50.5939L18.3083 50.5402L18.0047 50.4702L17.7103 50.3862L17.4207 50.2882L17.1381 50.1785L16.8601 50.0525L16.5916 49.9148L16.3323 49.7654L16.0777 49.6044L15.8348 49.4317L15.5988 49.2473L15.3722 49.0513L15.1574 48.8459L14.9495 48.6289L14.7556 48.4026L14.5711 48.1692L14.396 47.9242L14.2348 47.6722L14.0853 47.4108L13.9475 47.1447L13.8213 46.867L13.7116 46.5846L13.6135 46.2975L13.5294 46.0012L13.4593 45.7001L13.4056 45.3945L13.3659 45.0817L13.3402 44.7666L13.3332 44.4469V19.5539L13.3402 19.2332L13.3659 18.9158L13.4056 18.6061L13.4593 18.2997L13.5294 17.9988L13.6135 17.7023L13.7116 17.4134L13.8213 17.1312L13.9475 16.8556L14.0853 16.5876L14.2348 16.3262L14.396 16.0736L14.5711 15.8287L14.7556 15.5926L14.9495 15.3686L15.1574 15.1522L15.3722 14.9469L15.5988 14.7503L15.8348 14.5636L16.0777 14.3912L16.3323 14.2297L16.5916 14.0782L16.8601 13.9409L17.1381 13.8168L17.4207 13.7048L17.7103 13.6071L18.0047 13.5236L18.3083 13.4533L18.6143 13.3995L18.9273 13.36L19.2426 13.3336L19.5649 13.327V13.327Z" fill="#140083"/>
<path fill-rule="evenodd" clip-rule="evenodd" d="M16.4467 44.4424H19.3524V31.9942H16.4467V44.4424V44.4424Z" fill="#FFF212"/>
<path fill-rule="evenodd" clip-rule="evenodd" d="M32.3724 34.8408H32.2064L32.0426 34.8463L31.881 34.8529L31.725 34.8627L31.5711 34.8715L31.4194 34.8858L31.2699 34.9023L31.1226 34.9188L30.9797 34.9396L30.8401 34.9605L30.7016 34.9835L30.5664 35.0088L30.4356 35.0352L30.307 35.0626L30.1806 35.0934L30.0575 35.1241L29.9377 35.156L29.8212 35.1889L29.7091 35.2241L29.5992 35.2592L29.4914 35.2943L29.3892 35.3317L29.2892 35.369L29.1925 35.4086L29.099 35.4459L29.0089 35.4854L28.9221 35.525L28.8374 35.5645L28.7583 35.604L28.6813 35.6436L28.6088 35.6842L28.5385 35.7237L29.0858 37.5577L29.1485 37.5204L29.2144 37.4831L29.2815 37.4457L29.3518 37.4106L29.4244 37.3754L29.4991 37.3403L29.5761 37.3052L29.6552 37.2733L29.7377 37.2404L29.8212 37.2074L29.9058 37.1745L29.9916 37.1448L30.0784 37.1163L30.1674 37.0866L30.2576 37.0581L30.3488 37.0328L30.4422 37.0064L30.5357 36.9834L30.6313 36.9603L30.7247 36.9395L30.8214 36.9186L30.9193 36.8999L31.0149 36.8834L31.1127 36.867L31.2084 36.8527L31.3073 36.8417L31.4051 36.8296L31.5007 36.823L31.5986 36.8154L31.6942 36.8088L31.7931 36.8066H31.8887L32.0426 36.8088L32.1921 36.8154L32.3317 36.8274L32.4625 36.8417L32.5889 36.8626L32.7087 36.8856L32.8208 36.9131L32.9253 36.9438L33.0264 36.979L33.1198 37.0163L33.2056 37.0559L33.2847 37.0976L33.3594 37.1426L33.4298 37.1888L33.4957 37.2382L33.554 37.2865L33.6078 37.3381L33.6584 37.3919L33.7035 37.4435L33.743 37.4973L33.7782 37.5534L33.8112 37.6072L33.8387 37.6599L33.864 37.7137L33.8859 37.7675L33.9013 37.8191L33.9156 37.8707L33.9277 37.9191L33.9365 37.9685L33.942 38.0146L33.9464 38.0596V38.1014V38.2013L33.598 38.2046L33.2572 38.2134L32.9253 38.2299L32.6032 38.2529L32.2899 38.2837L31.9866 38.3232L31.6898 38.3671L31.4051 38.4209L31.1292 38.4791L30.8654 38.5472L30.6082 38.6219L30.3631 38.7032L30.1301 38.7921L29.9058 38.8877L29.6904 38.9909L29.487 39.1007L29.2958 39.2171L29.1155 39.3401L28.9451 39.4708L28.7891 39.6114L28.6418 39.756L28.5088 39.9077L28.3868 40.0687L28.2747 40.2344L28.179 40.407L28.0933 40.5891L28.0207 40.7758L27.9625 40.9719L27.9152 41.1725L27.88 41.3803L27.8614 41.5973L27.8548 41.819L27.857 41.952L27.8658 42.085L27.8822 42.218L27.9064 42.3487L27.9361 42.4794L27.9713 42.6101L28.013 42.7384L28.0625 42.8645L28.1164 42.9882L28.179 43.1095L28.2472 43.2286L28.3197 43.3452L28.3989 43.4595L28.4857 43.5692L28.5791 43.6766L28.6769 43.7793L28.7814 43.8773L28.8913 43.9706L29.0089 44.0594L29.1298 44.1434L29.2584 44.2227L29.3936 44.2973L29.5343 44.365L29.6816 44.4257L29.8333 44.4817L29.9894 44.5307L30.1553 44.5728L30.3235 44.6077L30.4983 44.6357L30.6785 44.6568L30.8654 44.6684L31.0567 44.673L31.1732 44.6707L31.2886 44.6661L31.4007 44.6614L31.5128 44.6521L31.6216 44.6404L31.7316 44.6264L31.8393 44.6101L31.947 44.5914L32.0514 44.568L32.1547 44.5448L32.257 44.5191L32.3581 44.4911L32.4559 44.4608L32.5537 44.428L32.6494 44.3907L32.7428 44.3533L32.834 44.3137L32.9253 44.2716L33.0143 44.2297L33.1011 44.183L33.1847 44.134L33.266 44.0849L33.3484 44.0314L33.4254 43.9776L33.5023 43.9216L33.5771 43.8633L33.6496 43.8026L33.7178 43.7396L33.7848 43.6766L33.8508 43.6113L33.9134 43.5435L33.9739 43.4736H34.0068L34.3245 44.4421H36.6888V38.925L36.6855 38.7153L36.6745 38.5099L36.6581 38.3067L36.635 38.1058L36.6042 37.9081L36.5646 37.7137L36.5207 37.5248L36.4668 37.3403L36.4031 37.1591L36.336 36.9834L36.2558 36.8132L36.17 36.6473L36.0744 36.487L35.9711 36.3321L35.8568 36.1828L35.7359 36.0411L35.6051 35.9049L35.4622 35.7776L35.3105 35.6557L35.1489 35.5414L34.9785 35.4338L34.7961 35.3361L34.6048 35.2449L34.4015 35.1637L34.1893 35.089L33.9629 35.0253L33.7266 34.9693L33.4792 34.9231L33.2198 34.888L32.9483 34.8627L32.6659 34.8463L32.3724 34.8408V34.8408ZM34.0299 40.9999V41.0559L34.0277 41.1142L34.0233 41.1725L34.0189 41.2332L34.0112 41.2915L34.0047 41.3523L33.9948 41.4106L33.9816 41.4689L33.9761 41.4899L33.9673 41.5203L33.9607 41.5483L33.953 41.567L33.9442 41.5903L33.9343 41.6136L33.909 41.672L33.8804 41.728L33.8508 41.784L33.8178 41.84L33.7826 41.8937L33.7452 41.9497L33.7057 42.0033L33.6639 42.0547L33.6188 42.106L33.5749 42.1574L33.5254 42.2064L33.4748 42.2553L33.4232 42.302L33.3693 42.3464L33.3111 42.3907L33.2528 42.4327L33.1913 42.4724L33.1308 42.5121L33.066 42.5471L33 42.582L32.933 42.6148L32.8626 42.6428L32.7923 42.6708L32.7175 42.6965L32.6428 42.7175L32.568 42.7384L32.4889 42.7548L32.4097 42.7687L32.3295 42.7805L32.246 42.7874L32.1613 42.7944H32.0778H32.0031L31.9305 42.7898L31.8602 42.7851L31.7898 42.7758L31.7228 42.7641L31.6568 42.7525L31.592 42.7361L31.5282 42.7175L31.47 42.6988L31.4095 42.6754L31.3534 42.6498L31.2996 42.6218L31.2457 42.5938L31.1974 42.5611L31.1479 42.526L31.1039 42.4911L31.0589 42.4514L31.0193 42.4094L30.9797 42.3673L30.9445 42.3207L30.9116 42.2717L30.8797 42.2227L30.8511 42.169L30.8258 42.1153L30.805 42.0593L30.7841 41.9987L30.7676 41.9379L30.7533 41.875L30.7412 41.8073L30.7346 41.7396L30.7302 41.6697L30.728 41.5973L30.7302 41.5156L30.7368 41.4386L30.7489 41.3616L30.7621 41.2869L30.7808 41.2169L30.805 41.1469L30.8324 41.0816L30.8632 41.0162L30.8984 40.9532L30.9358 40.8949L30.9775 40.8364L31.0237 40.7804L31.0732 40.7268L31.127 40.6778L31.1831 40.6288L31.2435 40.5821L31.3073 40.5354L31.3721 40.4935L31.4425 40.4537L31.515 40.4141L31.5898 40.3767L31.6689 40.3417L31.748 40.3091L31.8327 40.2788L31.9206 40.2484L32.0096 40.2228L32.1009 40.1971L32.1965 40.1714L32.2921 40.1504L32.3933 40.1294L32.4933 40.1108L32.5988 40.0944L32.6966 40.0803L32.7989 40.0664L32.9022 40.0547L33.0099 40.043L33.1165 40.0361L33.2286 40.0267L33.3408 40.022L33.4562 40.0174L33.5254 40.015L33.5958 40.0127L33.6683 40.0104H33.7387H33.8112H33.8826H33.9552H34.0299V40.9999V40.9999Z" fill="#FFF212"/>
<path fill-rule="evenodd" clip-rule="evenodd" d="M44.7138 35.1144V40.5822V40.664L44.7094 40.7432L44.7017 40.8203L44.6907 40.895L44.6786 40.9697L44.6621 41.0396L44.6412 41.1097L44.616 41.1751L44.5951 41.2287L44.5687 41.2824L44.5412 41.3361L44.5126 41.3898L44.483 41.441L44.45 41.4947L44.4148 41.5484L44.3774 41.5997L44.3379 41.6511L44.2983 41.7024L44.2532 41.7538L44.2093 41.8028L44.1631 41.8495L44.1136 41.8961L44.062 41.9405L44.0081 41.9848L43.9521 42.0268L43.896 42.0688L43.8355 42.1061L43.7751 42.1435L43.7091 42.1762L43.6443 42.2088L43.5761 42.2392L43.5058 42.2648L43.4343 42.2905L43.3596 42.3115L43.2816 42.3302L43.2024 42.3442L43.1233 42.3582L43.0386 42.3652L42.9551 42.3722H42.8661L42.7584 42.3699L42.6539 42.3629L42.5506 42.3512L42.4528 42.3326L42.3594 42.3115L42.2681 42.2835L42.1824 42.2509L42.0999 42.2135L42.0208 42.1739L41.9461 42.1272L41.8735 42.0758L41.8054 42.0198L41.7427 41.9615L41.6801 41.8961L41.624 41.8285L41.5701 41.7561L41.5185 41.6791L41.4723 41.5974L41.4294 41.5111L41.3877 41.4224L41.3525 41.329L41.3173 41.2311L41.2877 41.1284L41.2613 41.0233L41.2382 40.9137L41.2173 40.8017L41.2008 40.6849L41.1865 40.5636L41.1755 40.4399L41.1678 40.3115L41.1634 40.1809L41.1613 40.0456V35.11H38.3254V40.5636V40.7013L38.3298 40.8343L38.3353 40.9627L38.3419 41.091L38.3518 41.217L38.3627 41.3407L38.377 41.4597L38.3913 41.5788L38.41 41.6931L38.4287 41.8051L38.4496 41.9148L38.4749 42.0221L38.5012 42.1272L38.5287 42.2299L38.5573 42.3302L38.5892 42.4259L38.6222 42.5216L38.6595 42.6149L38.6947 42.706L38.7343 42.7946L38.7738 42.8809L38.8134 42.9649L38.8585 43.0466L38.9024 43.1283L38.9464 43.2053L38.9937 43.2823L39.0431 43.357L39.0937 43.427L39.1454 43.497L39.1992 43.5648L39.2531 43.6301L39.3091 43.693L39.3674 43.7561L39.4279 43.8144L39.4883 43.8728L39.5499 43.9264L39.6147 43.9801L39.6785 44.0315L39.7455 44.0805L39.8137 44.1272L39.884 44.1715L39.9533 44.2135L40.0258 44.2531L40.0983 44.2929L40.1731 44.3278L40.25 44.3628L40.327 44.3931L40.4072 44.4236L40.4886 44.4516L40.5677 44.4772L40.6523 44.5028L40.7337 44.5238L40.8205 44.5449L40.904 44.5636L40.9909 44.5822L41.0799 44.5962L41.1678 44.6103L41.2569 44.6219L41.3481 44.6312L41.4393 44.6406L41.5328 44.6476L41.6262 44.6499L41.7218 44.6545H41.8175H41.9021L41.9834 44.6522L42.0626 44.6499L42.1417 44.6452L42.222 44.6383L42.2989 44.6312L42.3758 44.6242L42.4506 44.6126L42.5231 44.6032L42.5957 44.5892L42.6682 44.5775L42.7375 44.5612L42.8056 44.5472L42.8738 44.5285L42.9408 44.5099L43.0068 44.4912L43.1321 44.4491L43.2563 44.4049L43.3728 44.3582L43.4871 44.3115L43.597 44.2601L43.7025 44.2089L43.8026 44.1528L43.8982 44.0968L43.9894 44.0384L44.0785 43.9801L44.1631 43.9195L44.2444 43.8587L44.3214 43.7957L44.3939 43.7304L44.4621 43.665L44.5269 43.5974L44.5896 43.532L44.6489 43.4667L44.7017 43.4037L44.7534 43.343L44.8028 43.2847L44.8468 43.2263L44.8864 43.1727L44.9237 43.1167L45.2887 44.4422H47.5914V35.1144H44.7138V35.1144Z" fill="#FFF212"/>
<path fill-rule="evenodd" clip-rule="evenodd" d="M22.0783 31.9942V35.1098H20.7539V37.236H22.0783V41.0302L22.0806 41.1469L22.0829 41.2612L22.0853 41.3756L22.0899 41.4853L22.097 41.595L22.1063 41.7023L22.1156 41.8073L22.1273 41.9124L22.1389 42.0126L22.153 42.113L22.1694 42.2111L22.1881 42.3067L22.2068 42.4001L22.2278 42.4934L22.2488 42.582L22.2722 42.6708L22.2978 42.7571L22.3258 42.8411L22.3538 42.9228L22.3843 43.0021L22.4169 43.0815L22.4497 43.1562L22.4846 43.2309L22.522 43.3008L22.5594 43.3709L22.5992 43.4385L22.6412 43.5039L22.6856 43.5692L22.73 43.63L22.7767 43.6883L22.8257 43.7466L22.8747 43.8003L22.9214 43.847L22.9682 43.8936L23.0172 43.938L23.0663 43.9823L23.12 44.0243L23.1737 44.0663L23.2321 44.1083L23.2906 44.148L23.3489 44.1876L23.412 44.225L23.475 44.26L23.5404 44.2973L23.6082 44.3301L23.6759 44.3627L23.7484 44.3954L23.8184 44.4234L23.8931 44.4537L23.9679 44.4794L24.0449 44.505L24.1221 44.5284L24.2014 44.5517L24.2832 44.5704L24.3649 44.589L24.4495 44.6054L24.5331 44.6217L24.6199 44.6357L24.7056 44.645L24.7947 44.6544L24.8837 44.6637L24.9749 44.6684L25.0662 44.6707L25.1596 44.673L25.3135 44.6707L25.4553 44.6661L25.5894 44.6591L25.7103 44.6498L25.8246 44.6381L25.9301 44.6241L26.0301 44.6077L26.1214 44.589L26.2104 44.5704L26.2917 44.5494L26.3687 44.5261L26.4456 44.5027L26.5907 44.4514L26.7336 44.3977V42.2297L26.6962 42.2437L26.6468 42.2577L26.5885 42.2717L26.516 42.2833L26.4346 42.2951L26.3434 42.302L26.2456 42.309L26.1401 42.3113L26.0466 42.309L25.9598 42.3044L25.8763 42.2951L25.7971 42.281L25.7224 42.2647L25.652 42.246L25.5839 42.2227L25.5212 42.1947L25.463 42.1644L25.4069 42.1317L25.353 42.092L25.3058 42.0524L25.2596 42.008L25.2178 41.9613L25.1783 41.9099L25.1431 41.8539L25.1101 41.7979L25.0794 41.735L25.0519 41.672L25.0255 41.6043L25.0046 41.5319L24.9837 41.4596L24.9672 41.3803L24.9507 41.3009L24.9398 41.2169L24.9277 41.1282L24.9189 41.0395L24.9112 40.9462L24.9068 40.8482L24.9024 40.7501L24.9002 40.6474V40.5425V37.236H26.7028V35.1098H24.9002V31.9942H22.0783V31.9942Z" fill="#FFF212"/>
<path fill-rule="evenodd" clip-rule="evenodd" d="M43.6421 31.9922L41.89 34.5082H43.9169L46.3867 31.9922H43.6421V31.9922Z" fill="#FFF212"/>
</g>
<defs>
<clipPath id="clip0_2_18">
<rect width="37.3333" height="37.3333" fill="white" transform="translate(13.3333 13.3334)"/>
</clipPath>
</defs>
</svg>
