<svg width="64" height="64" viewBox="0 0 64 64" fill="none" xmlns="http://www.w3.org/2000/svg">
<rect width="64" height="64" fill="#00AEEF"/>
<path d="M39.2797 24.2835C39.0113 24.2835 38.754 24.3902 38.5643 24.5802C38.3746 24.7702 38.268 25.0278 38.268 25.2965V37.5268C38.268 37.7955 38.3746 38.0532 38.5643 38.2431C38.754 38.4331 39.0113 38.5398 39.2797 38.5398V38.5398C39.548 38.5398 39.8053 38.4331 39.995 38.2431C40.1847 38.0532 40.2913 37.7955 40.2913 37.5268V25.2965C40.2913 25.0278 40.1847 24.7702 39.995 24.5802C39.8053 24.3902 39.548 24.2835 39.2797 24.2835Z" fill="white"/>
<path d="M23.8627 28.5953C23.8627 28.0359 23.4098 27.5823 22.8511 27.5823C22.2923 27.5823 21.8394 28.0359 21.8394 28.5953V37.527C21.8394 38.0864 22.2923 38.54 22.8511 38.54C23.4098 38.54 23.8627 38.0864 23.8627 37.527V28.5953Z" fill="white"/>
<path d="M24.1479 25.2984C24.1412 25.6384 24.0017 25.9621 23.7592 26.2002C23.5167 26.4382 23.1907 26.5716 22.8512 26.5716C22.5116 26.5716 22.1856 26.4382 21.9431 26.2002C21.7007 25.9621 21.5611 25.6384 21.5544 25.2984C21.5544 24.9541 21.6911 24.6238 21.9342 24.3803C22.1774 24.1368 22.5073 24 22.8512 24C23.1951 24 23.5249 24.1368 23.7681 24.3803C24.0113 24.6238 24.1479 24.9541 24.1479 25.2984Z" fill="#204986"/>
<path d="M36.4396 30.8147C35.4673 28.6137 33.1675 27.0631 30.5435 27.327C29.659 27.4205 28.8081 27.7178 28.0573 28.1954C27.3066 28.673 26.6765 29.3181 26.2161 30.0801C25.7558 30.8422 25.4778 31.7005 25.4039 32.5881C25.3299 33.4756 25.4621 34.3682 25.79 35.1961C26.1179 36.024 26.6326 36.7647 27.294 37.3602C27.9553 37.9558 28.7453 38.39 29.6021 38.629C30.4589 38.868 31.3593 38.9053 32.2329 38.7378C33.1065 38.5704 33.9295 38.2029 34.6377 37.664C34.7568 37.5727 34.854 37.4559 34.9221 37.3222C34.9903 37.1884 35.0277 37.041 35.0316 36.8909C35.0355 36.7408 35.0058 36.5917 34.9447 36.4546C34.8836 36.3174 34.7926 36.1957 34.6784 36.0984C34.5045 35.949 34.2849 35.8636 34.0559 35.8564C33.8268 35.8492 33.6023 35.9207 33.4194 36.0589C32.7187 36.5998 31.8481 36.8725 30.9644 36.8276C30.2453 36.7902 29.5518 36.5481 28.9652 36.1298C28.3787 35.7115 27.9235 35.1344 27.653 34.4662C27.6285 34.4065 27.619 34.3418 27.6254 34.2776C27.6317 34.2134 27.6538 34.1518 27.6895 34.0982C27.7253 34.0445 27.7737 34.0005 27.8304 33.97C27.8871 33.9395 27.9505 33.9234 28.0149 33.9232H35.0387C35.2633 33.924 35.4858 33.8804 35.6936 33.795C35.9013 33.7096 36.0902 33.584 36.2493 33.4253C36.4085 33.2667 36.5349 33.0782 36.6212 32.8706C36.7075 32.663 36.7521 32.4404 36.7524 32.2156C36.738 31.7329 36.6318 31.2575 36.4396 30.8147V30.8147ZM31.1408 29.3067C31.8927 29.3067 32.6273 29.5326 33.2496 29.9551C33.8719 30.3777 34.3533 30.9775 34.6315 31.677C34.6553 31.7366 34.6641 31.8011 34.6572 31.8648C34.6503 31.9286 34.6279 31.9897 34.592 32.0428C34.5561 32.0959 34.5078 32.1394 34.4512 32.1694C34.3946 32.1995 34.3316 32.2153 34.2675 32.2153H28.0139C27.9498 32.2153 27.8868 32.1995 27.8302 32.1694C27.7737 32.1394 27.7253 32.0959 27.6894 32.0428C27.6535 31.9897 27.6311 31.9286 27.6242 31.8648C27.6173 31.8011 27.6261 31.7366 27.6499 31.677C27.9281 30.9775 28.4095 30.3777 29.0318 29.9551C29.6542 29.5326 30.3888 29.3067 31.1408 29.3067Z" fill="white"/>
<path d="M47.5693 36.8315C46.8484 36.8317 46.1427 36.6242 45.5364 36.2338C44.9301 35.8434 44.4488 35.2866 44.1499 34.6297C43.851 33.9729 43.7471 33.2438 43.8507 32.5295C43.9543 31.8152 44.261 31.1458 44.7341 30.6012L43.2086 29.2947C42.7134 29.8703 42.3366 30.5381 42.0997 31.2598C41.8628 31.9815 41.7706 32.743 41.8282 33.5005C41.8859 34.258 42.0924 34.9966 42.4358 35.6741C42.7792 36.3515 43.2527 36.9544 43.8293 37.4481C44.406 37.9419 45.0742 38.3168 45.7959 38.5513C46.5175 38.7859 47.2783 38.8755 48.0346 38.815C48.7908 38.7545 49.5278 38.5451 50.203 38.1987C50.8783 37.8524 51.4787 37.376 51.9697 36.7968L50.4442 35.4908C50.0919 35.9111 49.652 36.2489 49.1553 36.4806C48.6586 36.7122 48.1172 36.832 47.5693 36.8315V36.8315Z" fill="white"/>
<path d="M47.5693 27.2975C46.7417 27.2966 45.9236 27.4746 45.171 27.8194C44.4183 28.1641 43.7489 28.6674 43.2083 29.295L44.7338 30.6015C45.3838 29.8518 46.3034 29.3898 47.2922 29.3162C48.281 29.2426 49.2587 29.5634 50.0123 30.2087C50.7658 30.854 51.234 31.7714 51.3149 32.7609C51.3957 33.7504 51.0826 34.7318 50.4438 35.4911L51.9693 36.7971C52.6794 35.9569 53.1347 34.9308 53.2816 33.84C53.4285 32.7491 53.2607 31.639 52.7982 30.6405C52.3357 29.6419 51.5976 28.7967 50.6711 28.2044C49.7445 27.612 48.6681 27.2974 47.5689 27.2975H47.5693Z" fill="#204986"/>
<path d="M19.9764 36.1052C19.8021 35.9539 19.5814 35.8668 19.3509 35.8585C19.1204 35.8502 18.894 35.9211 18.7093 36.0595C18.1529 36.4852 17.4887 36.7467 16.7918 36.8146C16.0948 36.8825 15.3928 36.754 14.7648 36.4437C14.1369 36.1334 13.608 35.6536 13.2378 35.0585C12.8677 34.4633 12.6709 33.7763 12.6698 33.0752C12.6687 32.374 12.8633 31.6865 13.2315 31.0901C13.5998 30.4937 14.1272 30.0122 14.7542 29.7C15.3811 29.3877 16.0828 29.257 16.7799 29.3227C17.4771 29.3884 18.1421 29.6478 18.6999 30.0717C18.8826 30.2125 19.108 30.2863 19.3385 30.2808C19.5691 30.2753 19.7907 30.1907 19.9665 30.0413C20.08 29.9446 20.1705 29.8238 20.2315 29.6876C20.2925 29.5514 20.3223 29.4034 20.3189 29.2542C20.3155 29.105 20.279 28.9584 20.2119 28.8252C20.1448 28.692 20.0488 28.5754 19.931 28.484C19.0764 27.8297 18.056 27.428 16.9853 27.3243C15.9145 27.2206 14.8362 27.419 13.8722 27.8971C12.9082 28.3752 12.097 29.1138 11.5305 30.0295C10.964 30.9452 10.6647 32.0014 10.6664 33.0786C10.6682 34.1557 10.971 35.2109 11.5405 36.1247C12.1101 37.0385 12.9237 37.7745 13.8892 38.2494C14.8548 38.7243 15.9338 38.9191 17.0042 38.8119C18.0746 38.7046 19.0937 38.2996 19.9461 37.6425C20.0619 37.5517 20.156 37.4363 20.2216 37.3046C20.2873 37.1729 20.3228 37.0282 20.3257 36.881C20.3286 36.7339 20.2988 36.5879 20.2384 36.4537C20.1779 36.3195 20.0885 36.2004 19.9764 36.1052V36.1052Z" fill="white"/>
</svg>
