<svg width="64" height="64" viewBox="0 0 64 64" fill="none" xmlns="http://www.w3.org/2000/svg">
<rect width="64" height="64" fill="#1E5BC6"/>
<path d="M24.1397 20.841C24.1855 20.788 24.2498 20.7557 24.3186 20.7509C24.3413 20.7523 24.3636 20.7585 24.384 20.7689C24.4043 20.7794 24.4224 20.7941 24.4371 20.812C24.4518 20.8299 24.4628 20.8507 24.4694 20.8731C24.476 20.8955 24.4782 20.919 24.4756 20.9423C24.4702 21.0161 24.4391 21.0853 24.388 21.1374C22.0434 24.1393 20.3379 27.6289 20.3379 32.4843C20.3379 37.3398 22.0434 40.7694 24.388 43.7637C24.4396 43.8154 24.4709 43.8849 24.4756 43.9588C24.4782 43.9819 24.476 44.0053 24.4694 44.0274C24.4627 44.0496 24.4517 44.0702 24.4369 44.0878C24.4222 44.1054 24.4041 44.1197 24.3837 44.1298C24.3634 44.1399 24.3412 44.1455 24.3186 44.1464C24.2843 44.1452 24.2506 44.1365 24.2198 44.121C24.189 44.1054 24.1617 44.0834 24.1397 44.0564L14.1514 34.1278C13.8974 33.9325 13.6913 33.679 13.5493 33.3876C13.4073 33.0961 13.3333 32.7746 13.3333 32.4487C13.3333 32.1227 13.4073 31.8013 13.5493 31.5098C13.6913 31.2183 13.8974 30.9649 14.1514 30.7695L24.1397 20.841Z" fill="white"/>
<path d="M31.8163 20C27.9086 20 26.3638 25.696 26.3638 32.4838C26.3638 39.2717 27.894 44.8889 31.8017 44.8889C34.15 44.8889 36.1513 43.478 36.1586 42.3186C36.1581 42.1853 36.1309 42.0536 36.0787 41.9316C36.0266 41.8096 35.9506 41.6999 35.8554 41.6094C34.7598 40.5062 34.3106 39.3993 34.3033 38.4275C34.3096 37.5936 34.6251 36.7935 35.1857 36.1905C35.7462 35.5874 36.5095 35.2266 37.3199 35.1817C39.3066 35.1817 40.4826 36.7877 40.4826 38.8702C40.4826 40.8402 39.6645 42.4837 38.7734 43.797C38.7432 43.8479 38.7268 43.9062 38.7259 43.9658C38.7234 43.9878 38.7252 44.0101 38.7312 44.0314C38.7373 44.0526 38.7474 44.0724 38.761 44.0896C38.7747 44.1067 38.7915 44.1209 38.8106 44.1312C38.8296 44.1415 38.8505 44.1478 38.872 44.1497C38.9079 44.1472 38.9428 44.1372 38.9748 44.1204C39.0068 44.1037 39.0352 44.0804 39.0583 44.0521L49.0502 34.1273C49.3028 33.9311 49.5078 33.6773 49.6489 33.386C49.79 33.0946 49.8634 32.7736 49.8634 32.4482C49.8634 32.1228 49.79 31.8018 49.6489 31.5104C49.5078 31.2191 49.3028 30.9653 49.0502 30.769L39.0692 20.8405C39.0216 20.7841 38.9552 20.748 38.883 20.7392C38.7917 20.7392 38.7369 20.8255 38.7369 20.9306C38.7373 20.9891 38.7538 21.0463 38.7844 21.0957C39.6755 22.409 40.4935 24.0525 40.4935 26.0224C40.4935 28.1012 39.3176 29.7109 37.3309 29.7109C36.5211 29.6651 35.7587 29.304 35.1989 28.701C34.6392 28.098 34.3241 27.2984 34.3179 26.4652C34.3179 25.4933 34.7598 24.3902 35.87 23.287C35.965 23.1955 36.0408 23.0851 36.0929 22.9625C36.145 22.84 36.1723 22.7078 36.1732 22.5741C36.1732 21.4146 34.1646 20 31.8163 20" fill="white"/>
</svg>
