<svg width="64" height="64" viewBox="0 0 64 64" fill="none" xmlns="http://www.w3.org/2000/svg">
<rect width="64" height="64" fill="#EE2E5D"/>
<path fill-rule="evenodd" clip-rule="evenodd" d="M40.0001 35.8333C40.0001 37.5363 38.6336 38.917 36.9481 38.917C36.5944 38.917 36.3076 38.6273 36.3076 38.2699V24.7301C36.3076 24.3727 36.5944 24.083 36.9481 24.083H39.3597C39.7134 24.083 40.0001 24.3727 40.0001 24.7301V35.8333ZM33.8462 38.2699C33.8462 38.6273 33.5594 38.917 33.2058 38.917H30.7943C30.4405 38.917 30.1539 38.6273 30.1539 38.2699V28.4386C30.1539 28.0813 30.4405 27.7916 30.7943 27.7916H33.2058C33.5594 27.7916 33.8462 28.0813 33.8462 28.4386V38.2699ZM27.6923 38.2699C27.6923 38.6273 27.4056 38.917 27.0519 38.917H24.6404C24.2866 38.917 24 38.6273 24 38.2699V26.5954C24 26.2381 24.2866 25.9483 24.6404 25.9483H27.0519C27.4056 25.9483 27.6923 26.2381 27.6923 26.5954V38.2699ZM36.3076 16H27.6923C21.2349 16 16 21.2891 16 27.8138V46.353C16 46.7103 16.2867 47 16.6404 47H36.3076C42.7652 47 48 41.7108 48 35.1862V27.8138C48 21.2891 42.7652 16 36.3076 16Z" fill="white"/>
</svg>
