<svg width="64" height="64" viewBox="0 0 64 64" fill="none" xmlns="http://www.w3.org/2000/svg">
<rect width="64" height="64" fill="#00C750"/>
<path d="M13.513 27.5168H11.1085V29.328H13.0281C13.0281 29.328 13.9824 29.2821 14.5226 29.748C15.1072 30.2402 15.0275 31.1262 15.0275 31.2049C15.0275 31.2837 14.9677 31.9399 14.5094 32.3074C14.051 32.6749 13.5794 32.7471 13.068 32.7471H11.1085V29.3346H8.92313V37.2862H11.0885V34.5649H13.327C13.327 34.5649 14.9943 34.5781 15.9375 33.7315C16.8807 32.8849 17.1331 31.8677 17.1331 31.3034C17.1331 30.739 17.173 29.7284 16.5818 28.954C15.9906 28.1796 15.0009 27.5168 13.513 27.5168Z" fill="white"/>
<path d="M35.2866 27.5168H32.8822V29.328H34.8018C34.8018 29.328 35.7118 29.2558 36.2963 29.748C36.8809 30.2402 36.8012 31.1262 36.8012 31.2049C36.8012 31.2837 36.7414 31.9399 36.2831 32.3074C35.8247 32.6749 35.3531 32.7471 34.8417 32.7471H32.8822V29.3346H30.6968V37.2862H32.8622V34.5649H35.1007C35.1007 34.5649 36.7679 34.5781 37.7112 33.7315C38.6544 32.8849 38.9068 31.8677 38.9068 31.3034C38.9068 30.739 38.9467 29.7284 38.3555 28.954C37.7643 28.1796 36.7746 27.5168 35.2866 27.5168Z" fill="white"/>
<path d="M20.68 31.0344H18.5013V37.295H20.68V31.0344Z" fill="white"/>
<path d="M22.9031 25.3333H18.4963V29.6872H22.9031V25.3333ZM22.1479 28.9411H19.2515V26.0795H22.1479V28.9411Z" fill="white"/>
<path d="M21.424 26.7951H19.9759V28.2257H21.424V26.7951Z" fill="white"/>
<path d="M26.3457 35.7069C25.2489 35.7069 24.3597 34.7785 24.3597 33.6332C24.3597 32.4879 25.2489 31.5594 26.3457 31.5594C26.6689 31.5622 26.9863 31.6441 27.2695 31.7978C27.5527 31.9515 27.7929 32.1722 27.9686 32.4402V32.3872L29.4481 31.3412C29.0674 30.8473 28.5759 30.4475 28.0121 30.1733C27.4484 29.8992 26.8279 29.7581 26.1996 29.7613C23.9802 29.7613 22.181 31.4801 22.181 33.6004C22.181 35.7207 23.9802 37.4395 26.1996 37.4395C26.8413 37.4428 27.4747 37.2956 28.0476 37.01C28.6205 36.7243 29.1166 36.3084 29.4951 35.7963L27.9787 34.8121C27.8037 35.084 27.5625 35.3083 27.2773 35.4645C26.9921 35.6208 26.6719 35.7042 26.3457 35.7069V35.7069Z" fill="white"/>
<path d="M53.2011 29.7875L51.3464 34.4893L49.4681 29.7875H47.223L50.231 37.317L49.1322 40.1026H51.3775L52.4061 37.4949L52.4761 37.317L55.4463 29.7875H53.2011Z" fill="white"/>
<path d="M45.2303 30.1288C43.7557 29.512 42.0951 29.6826 39.9562 30.6145L40.6603 32.0976C40.6603 32.0976 41.8028 31.4545 42.932 31.4545C44.0612 31.4545 44.5129 31.9007 44.5129 32.8326H42.5999C42.5999 32.8326 39.5843 32.6095 39.5444 34.9851C39.5046 37.3607 41.7763 37.4526 41.9623 37.4657C42.1483 37.4789 43.6096 37.492 44.5528 36.4814V37.2952H46.6783V32.452C46.6783 32.452 46.7049 30.7457 45.2303 30.1288ZM44.3004 35.5364C43.8885 35.9301 43.3572 35.9301 42.9985 35.9301C42.6398 35.9301 41.6966 35.8907 41.7099 34.9851C41.7231 34.0795 42.8656 34.132 42.8656 34.132H44.6856V34.7226C44.6857 34.9195 44.7122 35.1426 44.3004 35.5364V35.5364Z" fill="white"/>
</svg>
