<svg width="64" height="64" viewBox="0 0 64 64" fill="none" xmlns="http://www.w3.org/2000/svg">
<rect width="64" height="64" fill="#012153"/>
<path fill-rule="evenodd" clip-rule="evenodd" d="M30.3749 18.6667L31.2216 27.9529C31.2426 28.1777 31.268 28.5741 31.2983 29.1356C31.3316 29.6968 31.3588 30.3217 31.3791 31.01C31.5477 30.359 31.7065 29.7717 31.8537 29.2403C32.001 28.7087 32.1093 28.3421 32.1801 28.1366L35.2062 18.6667H39.1792L39.5917 34.1571H36.4371L36.5289 24.971C36.5316 24.6979 36.5423 24.2825 36.5652 23.7214C36.5846 23.1564 36.6109 22.528 36.6438 21.8352C36.4731 22.5052 36.3081 23.1264 36.1504 23.6989C35.9932 24.2676 35.8601 24.7241 35.7535 25.0682L32.8564 34.1571H29.1385L28.3244 25.0682C28.305 24.769 28.2812 24.3312 28.2518 23.7586C28.2223 23.1862 28.1925 22.5576 28.1653 21.8767C27.9908 22.7411 27.779 23.7252 27.5272 24.8288C27.4651 25.1057 27.4214 25.2967 27.3985 25.3975L25.4833 34.1571H22.3659L26.3741 18.6667H30.3749Z" fill="white"/>
<path fill-rule="evenodd" clip-rule="evenodd" d="M39.7807 30.8717H44.8728C46.0478 30.8717 46.886 31.1386 47.3872 31.6748C47.8883 32.2113 48.0823 33.043 47.9685 34.1637C47.8812 35.0309 47.6246 35.7182 47.1961 36.2322C46.7672 36.7491 46.1674 37.0861 45.3949 37.2505C46.1501 37.3628 46.7002 37.7029 47.043 38.2748C47.3884 38.8461 47.5112 39.614 47.4135 40.5807C47.2935 41.7691 46.891 42.6618 46.2025 43.2657C45.5168 43.8661 44.5592 44.168 43.3335 44.168H38.2418L39.7807 30.8717ZM42.4019 32.9691L42.021 36.261H43.2893C43.778 36.261 44.1886 36.1099 44.5203 35.808C44.8499 35.5092 45.0397 35.1143 45.0892 34.6231C45.1446 34.0739 45.0476 33.6595 44.8007 33.3832C44.5508 33.1072 44.1535 32.9691 43.6063 32.9691H42.4019V32.9691ZM41.7851 38.3035L41.3745 41.8908H42.5704C43.1875 41.8908 43.6671 41.7435 44.0148 41.4479C44.3624 41.1523 44.5664 40.7189 44.6247 40.1404C44.687 39.5239 44.5867 39.0645 44.3239 38.7595C44.0583 38.4544 43.6354 38.3035 43.0506 38.3035H41.7851V38.3035Z" fill="white"/>
<path fill-rule="evenodd" clip-rule="evenodd" d="M17.303 45.8059C16.1923 44.3261 15.7512 42.812 16.1371 41.366C17.4522 36.4409 27.8677 34.0869 39.7778 35.8766V36.3989C32.9708 35.7475 26.896 36.4757 23.0855 38.2669C19.6577 39.5928 17.298 42.3619 17.298 45.5634C17.298 45.644 17.3002 45.7249 17.303 45.8059V45.8059Z" fill="white"/>
</svg>
