<svg width="64" height="64" viewBox="0 0 64 64" fill="none" xmlns="http://www.w3.org/2000/svg">
<rect width="64" height="64" fill="#5875D2"/>
<path d="M46.5312 23.473C45.9466 23.473 45.3932 23.6184 44.9295 23.8737C44.3741 24.1795 43.9471 24.6428 43.7482 25.202L38.9688 37.5949L41.701 44.2695C41.703 44.2695 41.7839 44.2675 41.7852 44.2675H41.7858C41.8106 44.2658 41.8355 44.2637 41.8597 44.2609C41.8607 44.2605 41.8617 44.2603 41.8629 44.2603C41.8657 44.2603 41.8673 44.259 41.8686 44.259C41.9002 44.2554 41.9312 44.2507 41.9618 44.2449C42.2301 44.1922 42.4631 44.0602 42.6125 43.8768C42.665 43.8121 42.7071 43.741 42.7364 43.6653L50.6666 23.473H46.5312V23.473Z" fill="#5BC9E1"/>
<path d="M13.3333 29.727L13.6049 29.8521L17.7599 31.7645V27.2395L13.3333 25.202V29.727Z" fill="#5BC9E1"/>
<path d="M13.3333 29.727L13.6049 29.8521L17.7599 31.7645V27.2395L13.3333 25.202V29.727Z" fill="#5BC9E1"/>
<path d="M41.8533 44.2558C41.8171 44.2475 41.655 44.0754 41.4291 43.5068C41.244 43.041 39.2954 37.6954 39.2954 37.6954L39.2948 37.6941L38.5084 35.5448L36.3594 29.6719C35.8945 28.4878 34.9138 27.5129 33.7863 26.758C33.7861 26.7578 33.7859 26.7576 33.7857 26.7576C34.0796 26.525 34.3916 26.2355 34.6738 25.8865C34.6751 25.8852 34.6764 25.8837 34.6775 25.8822C34.6787 25.8807 34.6798 25.8796 34.6811 25.8779C35.2083 25.2231 35.6299 24.3599 35.6299 23.2712C35.6299 21.9488 35.2492 20.7865 34.5058 19.8492C33.256 18.2739 30.9815 17.3334 27.7676 17.3334H17.5507V25.2015H17.5501V25.202H13.3333V29.727H17.5501V31.6686L17.5507 31.669V37.8573H28.2873C29.2664 37.8573 30.1906 37.7516 31.0357 37.544C31.0363 37.5438 31.0366 37.5438 31.0372 37.5436C31.0411 37.5426 31.0449 37.5417 31.0489 37.5408C31.7813 37.3596 32.4545 37.1015 33.0521 36.7695L33.0523 36.7703C33.0527 36.7701 33.0529 36.7701 33.0531 36.7699L35.4903 42.9144C35.5101 42.9643 35.5321 43.0132 35.5561 43.0612C35.6397 43.2258 35.7476 43.3779 35.8767 43.5147C36.1073 43.7592 36.4039 43.9545 36.7406 44.0852C36.8147 44.114 36.8907 44.1395 36.9684 44.1619C37.2129 44.2323 37.4738 44.2701 37.7427 44.2701H41.4661H41.6768C41.6771 44.2701 41.7329 44.268 41.7641 44.268C41.8162 44.268 41.8805 44.2577 41.8795 44.2577C41.8677 44.2582 41.8611 44.2575 41.8533 44.2558ZM23.6113 21.8589H27.3867C29.0492 21.8589 29.5687 22.7236 29.5687 23.5308C29.5687 24.3356 29.0514 25.1973 27.3999 25.202H23.6113V21.8589V21.8589ZM27.6984 33.3316H23.6113V29.7281H27.5622C28.0215 29.7296 28.4643 29.8055 28.8761 29.9388C29.6332 30.2601 29.9152 30.9015 29.9152 31.5155C29.9152 32.3804 29.361 33.3316 27.6984 33.3316Z" fill="white"/>
<path d="M19.6084 42.129C19.7877 42.3562 19.8774 42.6495 19.8774 43.0087C19.8774 43.3812 19.789 43.6899 19.612 43.9348C19.4352 44.1797 19.1884 44.3021 18.8714 44.3021C18.6724 44.3021 18.5125 44.2624 18.3916 44.1833C18.3195 44.1364 18.2413 44.0542 18.1574 43.9368V44.2382H17.5393V41.0006H18.1663V42.1531C18.2458 42.0417 18.3337 41.9567 18.4296 41.898C18.5432 41.8247 18.6879 41.788 18.8635 41.788C19.1807 41.788 19.4292 41.9016 19.6084 42.129ZM19.0844 43.5894C19.1745 43.4589 19.2198 43.2873 19.2198 43.0748C19.2198 42.9047 19.1976 42.7638 19.1532 42.6525C19.069 42.4412 18.9136 42.3357 18.6875 42.3357C18.4584 42.3357 18.3007 42.4392 18.215 42.6459C18.1708 42.7558 18.1486 42.898 18.1486 43.0725C18.1486 43.2779 18.1945 43.448 18.2861 43.5828C18.3777 43.7177 18.5174 43.7852 18.7052 43.7852C18.8679 43.7852 18.9943 43.72 19.0844 43.5894Z" fill="white"/>
<path d="M21.1498 42.7801C21.2666 42.7654 21.3499 42.7472 21.4002 42.7252C21.4903 42.687 21.5354 42.6275 21.5354 42.547C21.5354 42.4487 21.5008 42.3809 21.4316 42.3435C21.3625 42.3061 21.2612 42.2875 21.1274 42.2875C20.9773 42.2875 20.8709 42.3241 20.8086 42.3973C20.764 42.4517 20.7341 42.525 20.7194 42.6174H20.1145C20.1277 42.4077 20.1865 42.2354 20.2911 42.1005C20.4576 41.8892 20.7433 41.7837 21.1483 41.7837C21.4118 41.7837 21.6462 41.8358 21.8509 41.9398C22.0555 42.0441 22.1578 42.2404 22.1578 42.5294V43.629C22.1578 43.7054 22.1593 43.7977 22.1622 43.9063C22.1667 43.9883 22.1791 44.0441 22.1996 44.0735C22.2201 44.1028 22.251 44.1269 22.292 44.1459V44.2384H21.6101C21.5911 44.1899 21.5779 44.1446 21.5706 44.1019C21.5633 44.0596 21.5574 44.011 21.5529 43.9569C21.466 44.0507 21.3656 44.1307 21.2521 44.1965C21.1165 44.2742 20.963 44.3131 20.792 44.3131C20.5737 44.3131 20.3933 44.2512 20.2511 44.1273C20.1087 44.0033 20.0376 43.8278 20.0376 43.6004C20.0376 43.3058 20.1519 43.0923 20.381 42.9605C20.5065 42.8886 20.6912 42.8373 20.935 42.8064L21.1498 42.7801ZM21.5332 43.0726C21.4931 43.0976 21.4525 43.1177 21.4116 43.1332C21.3708 43.1486 21.3146 43.1627 21.2433 43.176L21.1005 43.2024C20.9668 43.2259 20.8709 43.2545 20.8124 43.2882C20.7138 43.3453 20.6643 43.4341 20.6643 43.5543C20.6643 43.6614 20.6946 43.7387 20.7548 43.7864C20.8152 43.834 20.8885 43.8579 20.9749 43.8579C21.1118 43.8579 21.238 43.8182 21.3533 43.739C21.4688 43.6598 21.5287 43.5154 21.5332 43.3058V43.0726Z" fill="white"/>
<path d="M24.5262 41.9784C24.6831 42.1082 24.7615 42.3234 24.7615 42.624V44.2384H24.1193V42.7801C24.1193 42.6541 24.1026 42.5572 24.0691 42.4899C24.008 42.3667 23.8915 42.305 23.7198 42.305C23.5087 42.305 23.3639 42.3952 23.2853 42.5756C23.2446 42.6708 23.2241 42.7925 23.2241 42.9407V44.2384H22.5974V41.8452H23.2044V42.1951C23.2847 42.0719 23.3607 41.9831 23.4322 41.9289C23.5606 41.8321 23.7234 41.7837 23.9205 41.7837C24.1673 41.7837 24.3693 41.8486 24.5262 41.9784Z" fill="white"/>
<path d="M26.6659 42.7009C26.6543 42.6115 26.624 42.5309 26.5756 42.459C26.5049 42.3621 26.3954 42.3138 26.247 42.3138C26.0352 42.3138 25.8906 42.4187 25.8127 42.6283C25.7715 42.7395 25.751 42.8871 25.751 43.0715C25.751 43.247 25.7715 43.3882 25.8127 43.4949C25.8876 43.6943 26.0286 43.7941 26.2359 43.7941C26.383 43.7941 26.4874 43.7545 26.5491 43.6753C26.6108 43.5961 26.6482 43.4936 26.6616 43.3673H27.3015C27.2868 43.5581 27.218 43.7383 27.0946 43.9085C26.8978 44.1826 26.6067 44.3197 26.2205 44.3197C25.8345 44.3197 25.5505 44.2053 25.3686 43.9766C25.1865 43.7479 25.0955 43.4512 25.0955 43.0869C25.0955 42.6755 25.1961 42.3555 25.397 42.1268C25.5981 41.8981 25.8755 41.7837 26.2293 41.7837C26.5303 41.7837 26.7763 41.8512 26.968 41.9861C27.1595 42.121 27.2729 42.3593 27.3083 42.7009H26.6659V42.7009Z" fill="white"/>
<path d="M29.6238 43.945C29.4214 44.1949 29.1142 44.3197 28.7022 44.3197C28.2901 44.3197 27.9829 44.1949 27.7805 43.945C27.5783 43.6952 27.4771 43.3945 27.4771 43.0429C27.4771 42.6972 27.5783 42.3975 27.7805 42.1442C27.9829 41.8906 28.2901 41.7638 28.7022 41.7638C29.1142 41.7638 29.4214 41.8906 29.6238 42.1442C29.8262 42.3975 29.9274 42.6972 29.9274 43.0429C29.9274 43.3945 29.8262 43.6952 29.6238 43.945ZM29.1223 43.5986C29.2205 43.4682 29.2698 43.2831 29.2698 43.0429C29.2698 42.8027 29.2205 42.618 29.1223 42.4884C29.0241 42.3588 28.8832 42.2939 28.7 42.2939C28.5168 42.2939 28.3755 42.3588 28.2766 42.4884C28.1776 42.618 28.1282 42.8027 28.1282 43.0429C28.1282 43.2831 28.1776 43.4682 28.2766 43.5986C28.3755 43.7289 28.5168 43.794 28.7 43.794C28.8832 43.794 29.0241 43.7289 29.1223 43.5986Z" fill="white"/>
</svg>
