<svg width="64" height="64" viewBox="0 0 64 64" fill="none" xmlns="http://www.w3.org/2000/svg">
<rect width="64" height="64" fill="#151E45"/>
<path fill-rule="evenodd" clip-rule="evenodd" d="M35.5453 11.8602C34.1121 11.3658 33.0373 10.7577 32.283 10.0164C31.4907 10.7766 30.3405 11.3847 28.8132 11.8407L24.5897 12.9621C23.8166 13.1907 23.0056 13.4753 22.1946 13.8548C21.6098 14.1211 20.8748 14.4818 19.9884 14.9761L19.1586 15.4134C18.7815 15.6226 18.5552 15.8123 18.4423 15.9832C18.3102 16.1729 18.2722 16.3249 18.3476 16.4964L18.6686 17.1234C18.9136 17.6172 19.0084 17.9784 18.9704 18.1687C18.951 18.2447 18.8382 18.3584 18.6312 18.5105L18.1973 18.8334C17.5185 19.3466 17.0285 19.7839 16.7074 20.0879C16.1233 20.6772 15.7829 21.247 15.6888 21.7602C15.614 22.2351 15.7268 22.8432 16.0098 23.6034C16.1987 24.0978 16.5379 24.7813 17.0091 25.6557C17.5372 26.6245 17.8576 27.2514 18.0085 27.5938C18.2722 28.2207 18.3669 28.6957 18.2722 29.0186C18.2341 29.1518 18.0652 29.3609 17.7635 29.6078L17.16 30.1588C16.594 30.8812 16.1233 31.6407 15.7461 32.4392C15.2742 33.4085 14.9918 34.3395 14.8784 35.2134C14.7655 36.1444 14.8029 37.1514 15.0105 38.2156C15.1427 38.9003 15.369 39.717 15.6888 40.6675C16.349 42.5678 17.2922 44.2207 18.5552 45.6643C19.5925 46.824 20.9497 47.9642 22.6285 49.0466L27.2859 51.802C29.2284 52.9233 30.7937 53.9498 31.9433 54.862C32.4146 54.4059 33.0373 53.9875 33.8104 53.5697L35.9224 52.4867L40.0325 50.1686C41.5411 49.2941 42.786 48.4391 43.7666 47.6218C44.9922 46.5959 45.9916 45.5123 46.7839 44.3344C47.6698 43.0045 48.3486 41.5219 48.7632 39.8496C49.2351 38.1591 49.3099 36.5056 49.0082 34.9282C48.7451 33.4845 48.1791 32.154 47.3306 30.8812L46.595 30.1211C46.2179 29.7787 46.0477 29.4941 46.0296 29.3038C46.0103 29.1329 46.1237 28.7723 46.4067 28.2396L47.2926 26.5484C48.1791 24.8196 48.6504 23.5462 48.7258 22.6724C48.7632 22.0259 48.2358 21.1898 47.1417 20.1633L45.9729 19.1569C45.6337 18.8528 45.4448 18.6814 45.4448 18.643C45.4261 18.3961 45.6711 17.7126 46.1804 16.629C44.5397 15.1282 42.3147 13.912 39.4864 13.0387L37.4872 12.4677C36.658 12.2208 36.016 12.0311 35.5453 11.8602ZM34.791 12.8672C35.319 13.057 36.0733 13.285 37.0539 13.5514L39.2408 14.1972C40.5985 14.6532 41.8996 15.2419 43.2006 15.9832L44.0491 16.4204C44.4455 16.6484 44.6338 16.8388 44.6338 17.0285C44.6338 17.2182 44.521 17.5229 44.3134 17.9407L43.8795 18.9289L46.0103 20.7337C46.9722 21.6082 47.4435 22.1968 47.4435 22.5015C47.4435 23.0518 47.0102 24.2492 46.105 26.0735L44.4075 29.589C45.2753 30.4057 45.9155 31.1093 46.3687 31.7362C47.0476 32.6289 47.5002 33.5417 47.7259 34.4727C48.3299 36.8857 48.0662 39.3181 46.9347 41.8071C46.4822 42.8141 45.8787 43.7834 45.1618 44.6956C44.521 45.4941 43.8421 46.1964 43.1258 46.7857C42.22 47.5081 41.0891 48.2494 39.7501 49.0089L35.2055 51.4414L33.8484 52.2586C32.6035 52.9616 31.9252 53.3228 31.7924 53.3034C31.5848 53.2845 31.2644 53.0948 30.8498 52.6953C30.3405 52.2398 30.0388 51.9923 29.9254 51.9163C29.3985 51.6122 28.4928 51.1373 27.2291 50.4909C26.0222 49.8834 25.1177 49.389 24.4955 49.0466C22.4396 47.8499 20.8748 46.6525 19.8188 45.3986C19.1773 44.6384 18.5932 43.7834 18.0459 42.8524C17.4424 41.7694 16.9711 40.6857 16.6513 39.5839C15.8216 36.8668 15.9911 34.4532 17.16 32.3632C17.4424 31.8311 17.8763 31.2801 18.4043 30.6909L19.8942 29.2661C19.7247 28.6957 19.4791 28.0499 19.1405 27.3463L17.5372 24.1355C17.2354 23.5462 17.0472 23.0518 16.9898 22.6535C16.877 21.8733 17.2729 21.1138 18.1973 20.392L19.3662 19.5935C19.8188 19.3089 20.1392 19.0614 20.3088 18.9094C20.5731 18.643 20.6298 18.3207 20.441 17.9218C20.3842 17.788 20.2901 17.6172 20.1766 17.4274L19.8755 17.0285C19.8188 16.8953 19.8188 16.7245 19.8755 16.477C21.8361 15.2419 23.8535 14.3492 25.9655 13.7794L29.3225 12.8672C30.5481 12.506 31.5287 12.0499 32.2263 11.5561L33.4899 12.2968C33.9425 12.5443 34.3764 12.7341 34.791 12.8672Z" fill="#C4AC6C"/>
<path fill-rule="evenodd" clip-rule="evenodd" d="M34.3764 20.1256C34.6968 19.9359 35.0734 19.765 35.4885 19.5935L36.2809 19.2706C36.4504 19.2134 36.5633 19.1569 36.582 19.1186C36.6948 19.0237 36.7141 18.9289 36.6948 18.8717L35.9224 18.8334C35.6961 18.8717 35.2055 19.0237 34.4138 19.3089C33.6975 19.5558 33.1315 19.689 32.7356 19.689C32.038 19.689 31.227 19.5747 30.2838 19.3278L29.0015 18.9854C28.9266 19.0055 28.8699 19.0432 28.8132 19.1186C28.7752 19.2134 28.7945 19.3089 28.9073 19.3849L29.5108 19.613C29.9254 19.7839 30.2651 19.993 30.5294 20.2588L30.8498 20.5251L31.0761 20.7714L31.1703 20.9429C31.189 21.0378 31.189 21.0949 31.1329 21.1332L30.5668 21.3801C30.1897 21.5699 29.9066 21.8174 29.6804 22.1397L29.5675 22.2163L29.4166 22.178L28.8886 21.6653C28.6436 21.4561 28.3986 21.3418 28.1343 21.2853C27.7952 21.2275 27.4935 21.2658 27.1917 21.4367C26.89 21.6082 26.6824 21.8733 26.569 22.254C26.5129 22.4626 26.5322 22.6912 26.5883 22.9193C26.6824 23.1473 26.7772 23.2993 26.89 23.3942C27.0029 23.4702 27.211 23.5274 27.5122 23.5462C27.5882 23.5085 27.6069 23.4507 27.5882 23.3559L27.3993 22.8998C27.38 22.8049 27.3993 22.7101 27.4741 22.6152C27.5309 22.482 27.6443 22.406 27.8139 22.3872L28.2665 22.4626C28.436 22.5392 28.5682 22.6341 28.7004 22.7672C28.8132 22.9193 28.8886 23.0518 28.9266 23.2039C28.9454 23.337 28.9266 23.4507 28.8512 23.5085C28.7945 23.5845 28.6243 23.6976 28.3413 23.8503L27.7759 24.3252C27.211 24.8196 26.9093 25.6174 26.8707 26.7005C26.8707 27.2137 27.0029 27.7075 27.3239 28.1824C27.5689 28.6008 27.908 28.9426 28.3045 29.2284L28.7378 29.3986C28.9454 29.4941 29.0395 29.5701 29.0395 29.6644V36.4679C28.5115 36.2016 28.0589 35.7449 27.7004 35.0997L27.2479 34.2441C27.0789 33.8646 26.9093 33.5605 26.7772 33.3325C26.6257 33.1045 26.4748 32.8953 26.3053 32.7049C26.1164 32.5152 25.9848 32.4197 25.8907 32.4586L25.8153 32.5724C25.7772 32.6289 25.796 32.7049 25.834 32.8004C26.0041 33.0473 26.1164 33.3325 26.2111 33.6548C26.3053 33.9978 26.3427 34.3018 26.324 34.6053C26.3053 35.0236 26.1731 35.4603 25.9094 35.9352C25.7018 36.3347 25.4568 36.6576 25.1738 36.9234C25.1738 36.9805 25.1925 37.0383 25.2492 37.0754L25.3814 37.1137L25.9848 36.7908C26.2111 36.6388 26.4374 36.5816 26.607 36.5816C27.097 36.6011 27.4935 36.6953 27.7952 36.8474C28.153 37.0383 28.4547 37.3606 28.7191 37.8167C28.7945 37.9876 28.8319 38.1779 28.7945 38.4059C28.7565 38.6528 28.6623 38.8049 28.5115 38.8426C28.0782 38.9757 27.7759 38.938 27.5882 38.71C27.5309 38.634 27.4935 38.5385 27.4935 38.4248C27.4935 38.3111 27.5309 38.2156 27.6069 38.1402C27.7191 38.007 27.7572 37.931 27.7572 37.9116L27.6817 37.8355C27.6817 37.779 27.6256 37.779 27.5122 37.7984L27.2859 37.855C27.0216 38.007 26.852 38.2156 26.7959 38.5197C26.7204 38.8237 26.7579 39.0901 26.928 39.337C27.097 39.6222 27.3613 39.793 27.7385 39.8691C28.153 39.9451 28.6436 39.8691 29.2284 39.641C29.4734 40.0588 29.7371 40.3817 30.0014 40.6097C30.2838 40.8572 30.661 41.0658 31.1329 41.2756C31.227 41.3699 31.2457 41.5219 31.1703 41.7122C30.982 42.1495 30.699 42.4912 30.3592 42.7193C30.0388 42.9284 29.6997 43.0239 29.3599 43.0239C29.0202 43.0422 28.7565 42.9473 28.5308 42.7953C28.3232 42.6055 28.2291 42.3769 28.2665 42.0923L28.3413 41.7882C28.3986 41.6557 28.4928 41.5791 28.6056 41.5602C28.9454 41.4276 28.9834 41.2756 28.7191 41.0853C28.2472 40.9138 27.8706 41.0476 27.5689 41.4465C27.3993 41.6557 27.3052 41.9403 27.2859 42.2826C27.2672 42.6432 27.3426 42.9473 27.5122 43.1942C27.7572 43.6126 28.1723 43.8595 28.7191 43.9738L30.0388 43.9361C30.4347 43.8406 30.8118 43.5937 31.1703 43.2325L31.5094 42.8719C31.6416 42.7381 31.7357 42.6621 31.8111 42.6244L32.9993 43.6691C33.4519 44.0309 33.8665 44.2012 34.2436 44.2207C34.3951 44.2207 34.5266 44.1824 34.6214 44.1258L33.3765 42.9661C32.9619 42.4535 32.7543 41.8643 32.7543 41.1996C32.9806 41.0853 33.2069 41.0093 33.4145 40.9521L33.9238 40.8001L34.3764 40.5155L34.791 40.192C35.2055 39.8496 35.5453 39.413 35.7903 38.8809C35.9411 38.5385 36.1107 38.0636 36.2616 37.4555L36.9404 36.7714C37.4117 36.2964 37.7135 35.8598 37.8456 35.4797C38.1473 34.6053 38.2415 33.788 38.128 33.009C38.0345 32.2683 37.7702 31.6219 37.3369 31.0521C36.8276 30.4057 36.1294 29.8742 35.1868 29.437L35.847 27.5561C35.9037 27.2897 35.9604 27.0045 35.9979 26.6622L36.0733 25.6557C36.2241 25.6934 36.375 25.7695 36.5066 25.8643L36.865 26.1307C36.9591 26.1878 37.0539 26.2067 37.11 26.1878L37.2422 26.1684L36.6948 25.2568C36.5633 24.9905 36.4504 24.7618 36.413 24.5344C36.299 24.116 36.3183 23.4325 36.4504 22.5015C36.4311 22.5203 36.3937 22.5203 36.3557 22.5015L36.2616 22.482L35.847 22.9381C35.6961 23.0901 35.5453 23.1473 35.3944 23.109C35.2816 23.0713 35.1494 22.957 34.9985 22.7101L34.5454 22.0837L33.4145 21.3035C33.0373 21.0755 33.3578 20.6772 34.3764 20.1256ZM33.3765 22.4437L33.6408 22.6912C33.6975 22.7289 33.6975 22.8238 33.6408 22.9764H33.4899L32.9619 22.8615C32.9426 22.8432 32.9239 22.7672 32.9052 22.6535C32.9052 22.5015 32.9239 22.4255 32.9619 22.3683C33.056 22.2917 33.1882 22.3111 33.3765 22.4437ZM33.4332 24.0218C33.546 24.0218 33.7162 24.0978 33.9425 24.2297L34.4892 24.6293C34.7155 24.8384 34.8477 25.1802 34.9038 25.6557C34.9605 26.0924 34.9418 26.5679 34.8477 27.0994C34.7722 27.612 34.6214 28.0499 34.4325 28.4105C34.2436 28.81 34.0179 29.038 33.7916 29.0946L33.2823 29.0764L32.8485 28.9243V24.1355C32.8485 24.0595 33.0373 24.0218 33.4332 24.0218ZM32.773 32.0214C33.056 31.9643 33.3765 32.078 33.7162 32.3826C34.0554 32.6861 34.3571 33.085 34.6214 33.5982C34.8851 34.1115 35.0734 34.6436 35.1494 35.1568C35.2248 35.7449 35.1681 36.2393 34.9798 36.6576C34.8664 36.9045 34.6027 37.0754 34.2249 37.2092C33.8104 37.3229 33.3391 37.3801 32.7543 37.3229L32.773 32.0214ZM33.8104 30.9761C33.8858 30.7669 33.9425 30.6343 33.9986 30.596L34.3197 30.4628C34.9798 30.6532 35.5453 30.9761 36.016 31.4133C36.5066 31.8882 36.8276 32.4392 36.9972 33.0668C37.1293 33.5982 37.1293 34.1309 36.9785 34.6436C36.8463 35.1568 36.6387 35.4414 36.3557 35.4797C36.2429 35.1568 36.1487 34.795 36.092 34.4532L35.9037 33.6171C35.7529 33.161 35.4698 32.6861 35.0927 32.1923C34.6775 31.6407 34.2629 31.2424 33.8104 30.9761ZM30.5294 22.7672C30.5107 22.6535 30.5855 22.5203 30.7364 22.3683C30.9066 22.2163 31.0761 22.1397 31.2457 22.1214H31.4907C31.5474 22.1397 31.5661 22.1591 31.6041 22.2163C31.6416 22.3489 31.6609 22.4626 31.6609 22.5769C31.6416 22.7101 31.5848 22.7861 31.4907 22.7861L30.5294 22.7672ZM28.8132 25.0853C28.9641 25.0476 29.0582 25.0853 29.0775 25.1991C29.1336 25.542 29.1523 26.3016 29.1149 27.4606L29.0962 27.8978C29.0775 27.9739 29.0202 28.0122 28.9073 27.9921C28.681 27.9739 28.4928 27.8595 28.3606 27.6321C28.1723 27.3651 28.0782 26.9857 28.0782 26.5107C28.0782 26.1307 28.191 25.7883 28.4173 25.466C28.5869 25.2568 28.7191 25.1236 28.8132 25.0853ZM30.3405 29.9691L30.944 29.9879C31.227 29.9879 31.3966 30.0262 31.4533 30.1022C31.5287 30.1776 31.5287 30.2725 31.4726 30.3491L31.0948 30.4057H30.3218C30.3592 30.3297 30.3785 30.1776 30.3405 29.9691ZM30.8685 31.5082C31.1135 31.5082 31.3591 31.5842 31.5474 31.7545V37.3418C31.5474 37.4178 31.4907 37.4372 31.3398 37.4372L30.9066 37.3606C30.454 37.2274 30.2464 37.0572 30.2464 36.8857V31.5465L30.8685 31.5082ZM31.5287 38.9569C31.5661 39.0712 31.5848 39.2232 31.5848 39.3564C31.5848 39.7359 31.4907 39.9451 31.3024 39.9451C31.1135 39.9639 30.9253 39.8691 30.699 39.6605C30.416 39.3941 30.3031 39.0141 30.3592 38.5197C30.8305 38.5385 31.189 38.6151 31.4533 38.7477C31.4726 38.7477 31.5094 38.8237 31.5287 38.9569ZM30.3218 24.2875C30.3218 24.1738 30.5481 24.0783 31.0007 24.0595L31.6416 24.0783L31.6609 27.5366C31.6609 27.9739 31.6416 28.3539 31.5848 28.6768L31.0948 28.734C30.8305 28.7145 30.5855 28.6385 30.3405 28.5248L30.3218 24.2875ZM34.5647 38.634C34.5266 38.7672 34.3951 38.938 34.2062 39.1472L33.5841 39.6793C33.3198 39.8496 33.1315 39.9451 32.9806 39.9451C32.811 39.9451 32.7163 39.793 32.6976 39.489C32.6976 39.337 32.7163 39.0518 32.7543 38.6717L34.3197 38.4248C34.5266 38.4059 34.6027 38.482 34.5647 38.634Z" fill="#C4AC6C"/>
<path fill-rule="evenodd" clip-rule="evenodd" d="M45.7085 39.1278C45.6337 39.1661 45.6337 39.1849 45.7279 39.1849L45.7085 39.1278Z" fill="#C4AC6C"/>
<path fill-rule="evenodd" clip-rule="evenodd" d="M41.2587 17.1234C41.0324 16.8953 40.8248 16.8005 40.6173 16.8193C40.429 16.8388 40.2968 16.9142 40.184 17.0285L39.7314 17.7126C39.6747 17.7315 39.5618 17.6172 39.3542 17.3514L38.7508 16.6101C38.4678 16.3249 38.0906 16.0026 37.6 15.6603L36.3183 14.843C35.3757 14.3297 34.4892 14.1589 33.6595 14.2726L33.2823 14.4057C33.0935 14.4629 32.9619 14.5012 32.8672 14.4818C32.7923 14.4629 32.6789 14.3297 32.5467 14.0451L32.3017 13.513L32.1509 13.9308C32.0187 14.1972 31.9059 14.4057 31.7924 14.5012L30.8685 14.2726L29.9453 14.1972C29.2284 14.2726 28.4173 14.5584 27.4554 15.0905C26.89 15.4322 26.2866 15.9078 25.627 16.5347L25.061 17.0857C24.8908 17.2371 24.7966 17.3131 24.7592 17.2949L24.5516 17.1234L24.3254 16.857C24.1745 16.6868 23.9856 16.6101 23.7786 16.6101C23.3828 16.6101 23.1378 16.7628 23.0623 17.0285C22.9682 17.2754 22.9682 17.5034 23.0623 17.7692C23.1378 17.827 23.2506 17.8835 23.3828 17.903C23.5336 17.9218 23.6085 17.903 23.6284 17.8452C23.6652 17.7509 23.6652 17.6749 23.571 17.5989C23.4389 17.4657 23.3828 17.3514 23.4202 17.2371C23.4769 17.0857 23.5904 17.0285 23.7593 17.0097C23.9108 17.0097 24.0429 17.0662 24.1552 17.1805C24.2312 17.2566 24.2873 17.4086 24.2686 17.6172C24.2686 17.8835 24.1938 18.1116 24.0616 18.3396C23.6465 19.0237 23.1939 19.6695 22.7226 20.2211C22.3835 20.6194 22.1191 20.8097 21.9122 20.8097C21.8548 20.7714 21.7987 20.6772 21.7233 20.5063C21.6666 20.3536 21.5911 20.2588 21.5157 20.2016L21.2894 20.1256H21.1011C21.007 20.0879 20.8935 20.1451 20.7807 20.2588C20.6485 20.3731 20.5918 20.5251 20.5918 20.6772C20.5918 20.7337 20.6105 20.7714 20.6672 20.8286C20.7234 20.8669 20.7807 20.8857 20.8748 20.8857C20.8935 20.6577 20.9877 20.5628 21.1579 20.6194C21.3274 20.6577 21.3835 20.7909 21.3648 20.9995C21.3274 21.247 21.214 21.4367 21.007 21.5887C20.8181 21.7219 20.5164 21.8551 20.1392 21.9694L19.1773 22.254C19.1405 22.2351 19.1212 22.254 19.1405 22.33C19.1405 22.3872 19.1773 22.4437 19.2341 22.4626C21.1766 23.185 21.8929 24.0023 21.4403 24.9333C21.3274 25.1614 21.1198 25.2757 20.8181 25.3322C20.5538 25.3705 20.3842 25.3517 20.3088 25.2568C20.2527 25.2185 20.234 25.1236 20.234 25.0093L20.3275 24.7436C20.3468 24.7059 20.4035 24.6864 20.4977 24.6864C20.5918 24.7059 20.6485 24.6864 20.6672 24.6481C20.7234 24.5344 20.7427 24.4201 20.686 24.3441C20.6298 24.2297 20.5164 24.192 20.3088 24.2115C20.1018 24.2492 19.951 24.3252 19.8562 24.4967C19.7808 24.6293 19.7808 24.8196 19.8188 25.0093C19.8755 25.2185 19.9884 25.3894 20.1392 25.5603C20.2901 25.7318 20.4977 25.8455 20.7047 25.902C21.742 26.1684 22.3641 26.3581 22.5717 26.4919C22.9682 26.757 23.3828 27.2514 23.7786 27.9544C24.2312 28.734 24.4575 29.6267 24.4388 30.6343C24.4388 31.6602 24.2125 32.5341 23.7406 33.237C23.4389 33.7126 23.0243 34.0732 22.5337 34.3201C22.0063 34.6053 21.4783 34.7001 20.9122 34.6624C20.479 34.6053 20.1392 34.435 19.9129 34.1492C19.7054 33.8646 19.6112 33.5605 19.6299 33.237C19.6679 32.8764 19.8188 32.6289 20.1018 32.4775C20.3655 32.3249 20.5918 32.2872 20.7614 32.3632C20.9122 32.4392 21.007 32.5529 21.0444 32.7244C21.0444 32.8004 21.0444 32.8764 21.007 32.9524C20.969 33.0668 20.9122 33.1045 20.8368 33.1045C20.7427 33.1233 20.7427 33.1993 20.8748 33.3325L20.9497 33.3897C21.007 33.4274 21.1011 33.4085 21.1953 33.3325C21.3274 33.2565 21.4022 33.1045 21.4022 32.8953C21.4022 32.6484 21.3081 32.3632 21.1198 32.0591C21.0444 31.9071 21.007 31.7174 21.0444 31.4887C21.0631 31.223 21.0631 31.0138 21.0257 30.8812L20.8748 30.7864L20.6298 30.8052C20.5538 30.8618 20.5918 30.9761 20.686 31.1281C20.7614 31.223 20.7807 31.3373 20.7614 31.4887C20.7614 31.6407 20.686 31.7362 20.5731 31.7739C20.2527 31.8499 19.951 31.9831 19.6866 32.1734C19.5551 32.2683 19.4604 32.3826 19.3855 32.5152L19.2341 32.933L19.1773 33.5794L19.2908 34.0543C19.3475 34.2064 19.3662 34.3772 19.3288 34.5293C19.3288 34.6436 19.2715 34.7579 19.2154 34.8528C19.1025 35.0048 18.9897 35.0802 18.8195 35.1185C18.6499 35.1374 18.5739 35.1185 18.5932 35.0425L18.6125 34.9282C18.6125 34.871 18.5932 34.8528 18.5552 34.8333C18.5178 34.8145 18.4797 34.795 18.4236 34.795L18.3102 34.8333C18.2541 34.8905 18.216 34.9476 18.216 35.0048V35.2134C18.216 35.3082 18.2722 35.4037 18.4043 35.4603C18.5178 35.518 18.6499 35.5363 18.7634 35.5363C18.951 35.5363 19.1405 35.4414 19.3288 35.2328L19.7247 34.8528L20.0445 34.8905L20.8368 35.1374C21.007 35.1945 21.0444 35.2705 20.9316 35.4226L20.5918 35.7832L20.0638 36.5251C19.7808 36.9617 19.5177 37.4372 19.2715 37.9693L18.9136 37.8355L18.5932 37.7984C18.4797 37.7984 18.3476 37.8355 18.2341 37.931C18.0652 38.0259 17.9897 38.1402 17.971 38.2734L17.9897 38.5957C18.0085 38.7289 18.0272 38.8049 18.0652 38.8237L18.3102 38.9192H18.5552C18.5932 38.9003 18.5739 38.8809 18.5552 38.8426L18.4236 38.7289C18.3102 38.5957 18.2722 38.4631 18.3289 38.3299C18.4043 38.1974 18.5365 38.1402 18.7247 38.1974C18.8943 38.2351 19.0265 38.3488 19.1212 38.5197C19.2154 38.71 19.2715 39.0329 19.2715 39.489C19.2908 40.0399 19.3095 40.3628 19.3288 40.5155C19.4416 41.0476 19.6492 41.5602 19.9697 41.9974C20.2527 42.4158 20.5918 42.7381 20.9497 42.9473C21.252 43.1376 21.5911 43.2325 21.9496 43.2702L23.3641 43.2891C23.4769 43.3657 23.6085 43.4982 23.6845 43.7074C23.7786 43.9543 23.7786 44.1635 23.6845 44.3344L23.1191 44.9236C22.8735 45.2277 22.8547 45.5883 23.0623 45.969C23.1191 46.1204 23.2506 46.2159 23.4389 46.2724L23.9482 46.2913C24.0804 46.2724 24.1938 46.1587 24.2873 45.969C24.3821 45.7786 24.3066 45.6461 24.0991 45.5883L23.9482 45.7026C23.8728 45.7786 23.7786 45.817 23.6652 45.7981C23.571 45.7981 23.4962 45.7215 23.4389 45.6084C23.3828 45.5123 23.3828 45.418 23.4015 45.3226C23.4769 44.9808 23.7032 44.8093 24.0804 44.8093L24.4575 44.8476C24.6084 44.8859 24.7966 44.9997 24.9855 45.1705C25.3247 45.4941 25.6831 46.1016 26.079 46.9949L26.5322 48.0207C26.7204 48.382 26.9093 48.6866 27.097 48.8946C27.38 49.2181 27.7191 49.5027 28.1343 49.7502C28.5308 49.9789 28.9266 50.1303 29.3412 50.2251L30.416 50.3011C30.661 50.3583 30.944 50.6429 31.2837 51.1562L31.9433 52.2587L32.4526 51.2699C32.6789 50.8332 32.8865 50.5675 33.0935 50.4532C33.2069 50.396 33.3765 50.3583 33.6028 50.3583L34.0554 50.3772C34.6401 50.3011 35.2055 50.1303 35.7335 49.8451C36.2809 49.5605 36.6767 49.2181 36.9591 48.8192C37.1293 48.61 37.2989 48.3248 37.4497 47.983L37.8643 47.0897C38.2228 46.3302 38.5625 45.7981 38.901 45.4746L39.0905 45.2843C39.1466 45.2466 39.2601 45.19 39.3916 45.1517L40.2214 45.19C40.3348 45.2843 40.4477 45.5506 40.5231 45.969C40.0705 46.0645 39.8255 46.1393 39.7501 46.2159C39.6747 46.3107 39.9197 46.4251 40.5231 46.5388C40.8816 46.0827 40.919 45.6084 40.6366 45.1517L40.4477 44.8665L40.3155 44.5624C40.2407 44.3155 40.2781 43.992 40.4477 43.6126L42.0504 43.3845C42.5978 43.2702 43.031 43.1182 43.3895 42.9473C44.2005 42.5101 44.6718 41.7694 44.8227 40.6675L44.8794 39.6222C44.8794 39.2232 44.9168 38.9192 44.9735 38.71L45.5016 38.6151L45.784 39.0329L45.746 39.1849L45.822 39.1661C46.0296 39.1278 46.067 39.1278 45.9541 39.1278L45.9916 38.5385C45.9729 38.4248 45.9348 38.3676 45.8594 38.3299L45.049 38.3865C44.8227 38.4059 44.6525 38.2916 44.5397 38.083L44.3321 37.4938C44.0491 36.9428 43.7666 36.4491 43.4462 36.0307L43.2386 35.7832C43.1632 35.6889 43.1445 35.6311 43.1632 35.5746C43.1819 35.518 43.2386 35.4603 43.3328 35.4414L44.3134 35.1374C44.3701 35.1185 44.4455 35.1751 44.521 35.2894L44.7472 35.6129L44.9735 35.8598L45.3314 36.0118H45.6524L45.8594 35.8598C45.9348 35.8215 45.9541 35.7449 45.9541 35.6311C45.9541 35.4986 45.9348 35.4037 45.8787 35.3277L45.6144 35.3466L45.539 35.5363C45.5203 35.6311 45.4635 35.6695 45.3887 35.6506C45.1431 35.6129 45.011 35.5363 44.9355 35.4226L44.8227 35.0425C44.8034 34.9282 44.8034 34.795 44.8601 34.6053L44.9735 34.2252C45.0858 33.6931 45.049 33.2753 44.8981 33.009C44.8227 32.9141 44.7285 32.8004 44.5964 32.7049L44.2192 32.4197C43.8234 32.1163 43.5965 31.9071 43.5591 31.8122C43.4649 31.6791 43.4462 31.5465 43.4836 31.4133C43.521 31.3178 43.5778 31.2424 43.6725 31.2424C43.7854 31.223 43.8234 31.1658 43.7854 31.0904C43.7286 31.0326 43.6532 30.9949 43.5591 30.9949L43.3521 31.0904L43.2006 31.223C43.1258 31.3178 43.1065 31.451 43.1258 31.6219C43.1258 31.7739 43.2006 32.0026 43.2954 32.3066C43.3141 32.3249 43.2573 32.3632 43.1258 32.4392C42.9556 32.5152 42.8422 32.6107 42.786 32.7627C42.748 32.8199 42.7293 32.933 42.7293 33.0668C42.7106 33.237 42.748 33.3897 42.8422 33.5228C42.9182 33.6171 43.0123 33.6743 43.1258 33.6931C43.2193 33.6931 43.3141 33.6743 43.3521 33.6366C43.4082 33.5794 43.3895 33.5028 43.2954 33.3702C43.1819 33.237 43.1445 33.1045 43.1632 33.009C43.2006 32.8953 43.2954 32.8004 43.4269 32.7426C43.5591 32.6861 43.7099 32.6672 43.8421 32.6672C43.9742 32.6861 44.1058 32.7426 44.2566 32.8381C44.4075 32.9713 44.5016 33.085 44.5584 33.237C44.8034 34.1309 44.3701 34.719 43.2193 34.9853H42.7293C42.465 34.9476 42.2767 34.9099 42.1446 34.8333C41.6733 34.6241 41.2961 34.3584 41.0324 34.0926C40.7874 33.8451 40.5418 33.4845 40.2781 33.009C40.0518 32.5724 39.9197 32.2489 39.8635 32.0403C39.7875 31.7174 39.7688 31.2613 39.7875 30.6909L40.0325 29.0764C40.2407 28.3728 40.5985 27.7835 41.0891 27.3086C41.5791 26.8336 42.1639 26.4919 42.8615 26.2821L43.6532 26.1112C43.9549 26.0547 44.1812 25.9598 44.3321 25.8455C44.4642 25.7318 44.5397 25.5603 44.5964 25.3517C44.6338 25.1042 44.5964 24.9333 44.4642 24.8007C44.3888 24.7059 44.2379 24.6676 44.0304 24.6676C43.8234 24.6676 43.7099 24.7241 43.7099 24.8384C43.6912 24.9333 43.7286 24.9905 43.8047 25.0093L44.0491 25.0476L44.1058 25.2374C44.1058 25.3705 44.0871 25.466 44.0491 25.542C44.0116 25.5797 43.9362 25.6174 43.8421 25.6557L43.6351 25.7123C43.8234 25.7123 43.7854 25.7318 43.521 25.7318L43.1632 25.6934C42.993 25.6174 42.8995 25.4082 42.8235 25.0665C42.748 24.6676 42.8235 24.3252 43.031 24.04C43.2386 23.7743 43.5029 23.5462 43.8608 23.3753L44.8981 22.8998C45.1431 22.7861 45.2753 22.6912 45.294 22.6724L45.1805 22.5769L44.5584 22.3683C44.2566 22.2728 43.8982 22.1214 43.4649 21.8934C43.2954 21.8174 43.1632 21.6653 43.0691 21.4561C42.9369 21.1898 42.9743 20.9995 43.1819 20.8857C43.2386 20.848 43.3328 20.8669 43.5029 20.9618C43.6351 21.0189 43.7286 21.0572 43.7286 21.0189C43.8047 20.8669 43.7666 20.7337 43.6158 20.6011C43.4836 20.4868 43.3708 20.4297 43.2573 20.4297C43.1258 20.4297 42.993 20.4868 42.8422 20.5817C42.7673 20.6389 42.7106 20.7337 42.6539 20.8857L42.541 21.1332C42.465 21.1898 42.1446 20.9052 41.6359 20.2776C41.1079 19.6695 40.7307 19.1374 40.5044 18.7197C40.2407 18.1687 40.1466 17.8075 40.2407 17.6366C40.4103 17.3326 40.5985 17.2182 40.7874 17.3131L41.0137 17.4657L40.9377 17.9218L40.8435 18.0927C40.8061 18.131 40.8435 18.1687 40.9377 18.1687H41.1646C41.2587 18.131 41.3529 18.0732 41.3903 17.9978C41.4657 17.8835 41.5037 17.7315 41.485 17.5606C41.4476 17.3891 41.3716 17.2371 41.2587 17.1234ZM32.038 16.5536C32.1322 16.4581 32.2076 16.4204 32.283 16.4204C32.3772 16.4204 32.4719 16.4964 32.528 16.5919C32.6035 16.7056 32.6222 16.781 32.6222 16.8388C32.5847 16.9336 32.4719 16.9714 32.2637 16.9714C32.0567 16.9525 31.9433 16.8953 31.9433 16.8005C31.9433 16.7433 31.9813 16.6484 32.038 16.5536ZM39.8255 18.5676L40.9377 20.1068C41.3903 20.696 41.8241 21.1709 42.2013 21.5316C42.3335 21.627 42.6539 21.8551 43.1819 22.1968C43.6158 22.4626 43.8608 22.6535 43.9175 22.7672C43.9362 22.8238 43.9175 22.8809 43.8421 22.9381L43.521 23.0713L43.2954 23.2233C43.2006 23.2993 43.1258 23.337 43.0498 23.3182C42.9743 23.3182 42.8995 23.2616 42.8235 23.1284L42.5978 22.8615L42.4089 22.6912C42.258 22.6152 42.0697 22.558 41.7867 22.5392C41.5411 22.5203 41.2587 22.6341 40.9944 22.8809L40.3348 23.413C40.2594 23.4507 40.1466 23.4507 40.0325 23.413L39.6747 23.2799C39.6372 23.2799 39.6179 23.337 39.656 23.4507C39.6747 23.5845 39.7127 23.6794 39.7688 23.7171L40.3348 23.7554L40.429 23.8691L40.5231 24.0218L40.9009 24.4012C41.0137 24.4967 41.202 24.5155 41.4476 24.4395C41.5224 24.4201 41.5979 24.3441 41.6733 24.1738C41.73 24.0218 41.692 23.9457 41.5791 23.9828L41.202 24.0978L41.0324 23.964C40.919 23.8691 40.8816 23.7366 40.919 23.5462C40.9377 23.3559 41.0324 23.185 41.1833 23.0713C41.4476 22.8432 41.7113 22.7672 41.975 22.8432C42.22 22.9193 42.4089 23.109 42.541 23.413C42.5785 23.4897 42.5597 23.6794 42.503 24.0023C42.4089 24.4012 42.3709 24.6676 42.3709 24.8007C42.3709 25.0093 42.4469 25.2945 42.5785 25.6557L42.6539 25.902C42.6732 25.9598 42.6352 25.9786 42.5597 25.9786C42.465 25.9598 42.1446 26.1112 41.6166 26.4536C41.0324 26.8336 40.6366 27.1943 40.429 27.4989C40.1085 27.9544 39.8635 28.5248 39.656 29.1901C39.4297 29.9879 39.3355 30.7669 39.3916 31.5465C39.4297 32.0591 39.5805 32.5912 39.8255 33.1233C40.0518 33.6171 40.3348 34.0543 40.674 34.4155C40.8435 34.587 41.1079 34.795 41.4657 34.9853L42.3148 35.518C43.2573 36.2782 43.8982 36.9994 44.2379 37.703C44.6905 38.6717 44.7285 39.8691 44.3321 41.2373C44.2005 41.6934 43.9549 42.0923 43.5778 42.4724C43.1632 42.8901 42.748 43.1182 42.3148 43.1942C41.4289 43.3462 40.6553 43.1565 39.9577 42.6244C39.4484 42.2443 39.1847 41.7311 39.1466 41.0853C39.1279 40.5532 39.2788 40.0211 39.5805 39.5084C39.8822 39.0329 40.2214 38.7477 40.5985 38.6905C40.9944 38.6151 41.2961 38.8426 41.5037 39.3753L41.7487 38.8049L41.2587 38.4248C41.1079 38.3488 40.8816 38.2734 40.5985 38.2351L40.5418 37.5698L40.3722 37.0754C39.9945 37.1332 39.8062 37.2274 39.7875 37.4178C40.2781 37.627 40.3722 37.9499 40.1085 38.3676L39.3168 39.3753C38.9584 39.9451 38.7882 40.4772 38.7882 40.9332C38.8075 41.2938 38.9397 41.6557 39.1847 42.0163L39.8255 42.8524C40.0518 43.1753 40.1466 43.4417 40.1273 43.6886C40.0892 43.9361 39.9945 44.1258 39.8255 44.3344C39.7127 44.4676 39.5238 44.6384 39.2788 44.8093L38.6373 45.2277C38.4304 45.3986 38.2602 45.5701 38.1854 45.7215L37.8836 46.2913L37.6947 46.5765L37.4117 46.5959L36.8837 46.3868L36.054 46.3679C35.8844 46.4816 35.7335 46.7291 35.6014 47.1086C35.9604 47.3938 36.1107 47.3938 36.0733 47.1086C36.299 46.6908 36.5066 46.5388 36.7141 46.6337C36.9217 46.7097 37.0346 46.9566 37.0346 47.3366C37.0539 47.7739 36.9404 48.1916 36.6767 48.5905C36.3557 49.1044 35.9037 49.465 35.2622 49.7119C34.6775 49.9588 34.0741 49.9971 33.4712 49.8262C32.8298 49.6365 32.4526 49.313 32.3585 48.8192C32.2637 48.4391 32.3204 48.1162 32.4719 47.8499C32.6409 47.603 32.8672 47.4698 33.1695 47.4321L33.3765 47.4698C33.4712 47.5081 33.5273 47.5081 33.4899 47.527L33.7162 47.8499C33.8104 48.0019 33.8665 48.1539 33.9045 48.3443C34.0554 48.1916 34.1495 48.0402 34.1875 47.8693C34.2062 47.7161 34.1875 47.5647 34.1121 47.4321C33.9425 47.128 33.6215 46.9949 33.1695 47.0326C32.9993 47.0326 32.8485 47.128 32.6789 47.2801L32.283 47.603L31.717 47.6218L31.227 47.2801C30.9066 47.0897 30.6422 47.0514 30.3972 47.128C30.1897 47.2041 29.9821 47.3938 29.7745 47.679C29.8318 48.2682 29.9254 48.306 30.0955 47.8499L30.2464 47.603C30.8305 47.4893 31.227 47.6218 31.4533 47.9642C31.5287 48.1162 31.5848 48.2871 31.5661 48.4963C31.5661 48.6866 31.5094 48.8763 31.3966 49.0661C31.1516 49.4845 30.7557 49.7502 30.2277 49.8262C29.6049 49.9016 28.8886 49.693 28.0963 49.1798C27.7759 48.9524 27.5309 48.7243 27.3426 48.4963C27.0029 48.0402 26.852 47.603 26.9093 47.1469C26.928 46.9383 26.9841 46.7857 27.0789 46.672C27.1917 46.5576 27.3239 46.5199 27.4935 46.5199C27.663 46.5388 27.7952 46.6142 27.8326 46.7857C27.8706 46.8428 27.8706 46.9 27.8513 46.9383C27.8513 46.9949 27.8513 47.0143 27.8139 47.0326L27.6069 47.1086C27.5309 47.3561 27.7004 47.4509 28.0963 47.3561C28.191 47.3366 28.2472 47.2229 28.2852 47.0326C28.3413 46.8428 28.3413 46.6908 28.3045 46.5388C28.2852 46.4816 28.1723 46.3868 28.0022 46.2542C27.7952 46.1016 27.663 46.0444 27.5496 46.0261C27.3052 46.0067 27.0789 46.0645 26.89 46.2159L26.4561 46.6337L25.9281 45.7026C25.7018 45.2843 25.4942 44.9997 25.3247 44.8288C25.2118 44.7145 24.9668 44.5819 24.6084 44.3916L24.0991 44.1064C23.9482 43.6503 23.9482 43.2702 24.0991 42.9473C24.1365 42.8524 24.2686 42.7193 24.4195 42.5861L24.7592 42.2255C25.0416 41.7122 25.1738 41.2373 25.2305 40.8572C25.306 40.2303 25.1364 39.5839 24.7592 38.9569L24.2686 38.4436C24.0429 38.2351 23.9295 38.0259 23.8915 37.855C23.8166 37.4178 23.8728 37.1897 24.0991 37.1897L24.3254 37.1709C24.4014 37.1514 24.4195 37.0949 24.4195 36.9617C24.4014 36.8285 24.3066 36.7336 24.1178 36.7336C23.9482 36.7336 23.8354 36.7714 23.7219 36.8285C23.6652 36.8857 23.5904 36.9805 23.5336 37.1332L23.4582 37.4555L23.4769 37.5132L23.5149 37.6835C23.5149 37.855 23.4769 37.9876 23.3641 38.0259L23.1191 38.0453L22.8167 38.1207C22.6852 38.1779 22.5904 38.2734 22.4963 38.3865L22.3454 38.634C22.2887 38.8049 22.308 38.938 22.3835 39.0518C22.4776 39.1472 22.5337 39.1849 22.6285 39.1849H22.7226L22.7793 39.2038C22.8167 39.1849 22.8167 39.0901 22.798 38.9003C22.7793 38.7477 22.8167 38.6528 22.9296 38.5768C23.0056 38.5008 23.1191 38.482 23.2313 38.482C23.5523 38.482 23.8166 38.5768 24.0236 38.7477C24.1745 38.8809 24.3254 39.1089 24.5136 39.4507C24.7218 39.8879 24.8347 40.3628 24.8347 40.8572C24.8347 41.4465 24.6271 41.9403 24.2125 42.3203C23.8166 42.6621 23.326 42.8524 22.7226 42.8901C22.1379 42.9284 21.5724 42.7953 21.0631 42.4724C20.4977 42.13 20.1018 41.5985 19.8755 40.9332C19.7434 40.5532 19.6679 40.1731 19.6679 39.793L19.7054 38.8049C19.7247 38.0259 19.9884 37.3034 20.479 36.6388C20.8181 36.1827 21.3648 35.6506 22.1191 35.062C23.0056 34.3395 23.571 33.8646 23.8166 33.6171C24.3821 33.0473 24.7025 32.4392 24.8347 31.8311C24.9855 31.0326 24.9855 30.2536 24.7966 29.4941C24.6838 28.9243 24.4195 28.2773 24.0804 27.5561C23.8354 27.0617 23.4202 26.6245 22.8735 26.2639L22.0624 25.8455L21.9683 25.8078L21.8361 25.7318C21.7233 25.6557 21.6853 25.542 21.7233 25.3894L21.8741 25.0476C21.9496 24.8956 22.0063 24.7813 22.0063 24.6864C22.0063 24.5155 21.9683 24.3252 21.9303 24.0783L21.8174 23.5462C21.7607 23.185 21.9122 22.9193 22.2513 22.7289C22.6659 22.5203 23.0056 22.5769 23.2886 22.8998C23.4202 23.0713 23.4962 23.2233 23.5149 23.413C23.5149 23.5651 23.4769 23.6794 23.3828 23.7554L22.8547 23.812C22.7793 23.8691 22.76 23.9457 22.8167 24.0218C22.8547 24.116 22.9489 24.1537 23.0623 24.1738C23.2886 24.192 23.4769 24.1537 23.6284 24.0595C23.6465 24.04 23.7032 23.964 23.7593 23.8314L23.9482 23.6417L24.2873 23.6034C24.4195 23.6222 24.5136 23.6034 24.5897 23.5462C24.7966 23.3942 24.8727 23.2422 24.816 23.109C24.7779 22.9764 24.7025 22.9381 24.5897 22.9381L24.5136 23.0518C24.4955 23.1473 24.4575 23.185 24.4195 23.2039L23.9675 23.185L23.7593 22.8238C23.6845 22.6724 23.571 22.558 23.4769 22.482C23.2506 22.33 23.0056 22.2351 22.7039 22.2163C22.4022 22.178 22.1191 22.254 21.8929 22.406C21.8174 22.4437 21.7233 22.5964 21.6285 22.8049C21.5537 22.9764 21.459 23.033 21.3274 23.0141C21.0631 22.9381 20.8368 22.8238 20.686 22.6724C20.4977 22.482 20.4597 22.3489 20.5731 22.3111L21.5157 21.7602C22.0624 21.399 22.4589 21.0755 22.7226 20.7714C23.0056 20.4868 23.3641 20.0307 23.8166 19.4226L24.9668 17.9407C25.7205 17.0285 26.4561 16.3249 27.1917 15.8123C28.0963 15.1853 29.0395 14.8053 30.0014 14.6909L30.6422 14.6721C31.1329 14.711 31.4533 14.843 31.6416 15.0522C31.7357 15.1665 31.7924 15.3562 31.8111 15.6031C31.8304 15.8123 31.8111 15.9832 31.7737 16.1164C31.717 16.2684 31.6041 16.2684 31.4533 16.1729L31.4159 15.9643C31.4346 15.85 31.3779 15.7934 31.2837 15.774C31.189 15.7551 31.1135 15.7934 31.0761 15.8689L31.0387 16.0969L31.0007 16.7433C30.9627 16.781 30.9066 16.8193 30.8498 16.8388H30.6422C30.4727 16.8388 30.3785 16.7433 30.3592 16.5536L30.416 16.4204C30.454 16.3249 30.454 16.2684 30.4347 16.1924C30.3785 16.0209 30.2464 16.0026 30.0575 16.1358C29.9453 16.2307 29.8879 16.3827 29.8879 16.5536C29.9066 16.7245 29.9821 16.8953 30.0955 17.0474C30.2464 17.2182 30.4727 17.2949 30.7744 17.2754L31.2837 17.1428L31.7357 17.3326C31.9433 17.4274 32.0941 17.4657 32.2076 17.4657C32.5467 17.4274 32.8298 17.3326 33.0748 17.1428L33.9799 17.2371C34.1875 17.1805 34.3384 17.1234 34.4325 17.0285C34.4892 16.9525 34.5454 16.8388 34.5834 16.7245C34.6401 16.7245 34.6401 16.629 34.6027 16.4393C34.5647 16.3067 34.5079 16.2307 34.4325 16.1924C34.3571 16.1729 34.3004 16.2106 34.2249 16.2684L34.2062 16.477C34.2062 16.5919 34.1875 16.6868 34.1495 16.7245C34.0928 16.781 33.9986 16.8005 33.8665 16.8005C33.7162 16.8005 33.6028 16.7433 33.5654 16.6101V16.0786L33.5273 15.85C33.4899 15.7934 33.3952 15.7551 33.2823 15.774C33.2443 15.7934 33.2256 15.8311 33.2256 15.9266L33.1882 16.1924L33.0935 16.2872H32.9239C32.811 16.2684 32.7356 16.1358 32.7163 15.9078C32.6976 15.5277 32.7543 15.2419 32.9426 15.0522C33.0373 14.9378 33.2256 14.843 33.4899 14.7293C33.8858 14.5584 34.3951 14.5961 35.0547 14.7864C35.2816 14.8624 35.6587 15.0333 36.1487 15.2419C36.9404 15.6031 37.6573 16.0786 38.2602 16.6673C38.7134 17.1045 39.2221 17.7315 39.8255 18.5676ZM32.3772 49.4845C32.6035 49.6742 32.7356 49.8451 32.7543 49.9588C32.9052 50.5292 32.5467 50.9664 31.6983 51.2699C31.4533 50.8716 31.2457 50.472 31.0568 50.0549L31.8679 49.0661L32.3772 49.4845Z" fill="#C4AC6C"/>
</svg>
