<svg width="64" height="64" viewBox="0 0 64 64" fill="none" xmlns="http://www.w3.org/2000/svg">
<rect width="64" height="64" fill="#001E5F"/>
<path d="M11.4475 25.3333H56V38.3278H11.4475V25.3333Z" fill="white"/>
<path fill-rule="evenodd" clip-rule="evenodd" d="M10.7845 25.3333H40.8396C40.1405 30.9701 38.0747 35.2451 35.2159 38.3251H8L10.7845 25.3333Z" fill="#001E5F"/>
<path fill-rule="evenodd" clip-rule="evenodd" d="M14.0002 26.4269H19.9337C20.9221 26.4269 21.6202 26.6893 22.026 27.2116C22.4343 27.7338 22.5483 28.3809 22.3689 29.1502C22.2179 29.7973 21.8998 30.3527 21.4143 30.8164C21.0893 31.1246 20.6645 31.3691 20.1382 31.5475C20.8297 31.736 21.2955 32.062 21.5372 32.5206C21.7759 32.9817 21.8152 33.56 21.653 34.2555C21.5205 34.8235 21.2774 35.333 20.9257 35.7865C20.5715 36.24 20.1517 36.5966 19.6601 36.8616C19.3571 37.0246 18.928 37.1444 18.3735 37.2182C17.6364 37.3176 17.1517 37.3685 16.9177 37.3685H11.4475L14.0002 26.4269ZM16.1959 30.7195H17.5735C18.0678 30.7195 18.433 30.6278 18.6711 30.4469C18.9073 30.2635 19.0639 30.0011 19.1436 29.6597C19.2179 29.3413 19.1807 29.0916 19.0289 28.9133C18.8752 28.7324 18.5594 28.6433 18.0795 28.6433H16.6803L16.1959 30.7195ZM15.1932 35.0172H16.8097C17.3565 35.0172 17.7647 34.9152 18.0348 34.7089C18.3075 34.5025 18.4844 34.2249 18.5659 33.8759C18.6414 33.5524 18.5922 33.2925 18.4159 33.0963C18.2396 32.9002 17.876 32.8008 17.3196 32.8008H15.7104L15.1932 35.0172Z" fill="white"/>
<path fill-rule="evenodd" clip-rule="evenodd" d="M27.5972 26.4269H33.5307C34.5192 26.4269 35.2173 26.6893 35.6231 27.2116C36.0313 27.7338 36.1454 28.3809 35.9659 29.1502C35.8149 29.7973 35.4968 30.3527 35.0113 30.8164C34.6864 31.1246 34.2615 31.3691 33.7352 31.5475C34.4267 31.736 34.8926 32.062 35.1342 32.5206C35.3729 32.9817 35.4122 33.56 35.25 34.2555C35.1175 34.8235 34.8744 35.333 34.5227 35.7865C34.1686 36.24 33.7487 36.5966 33.2571 36.8616C32.9541 37.0246 32.525 37.1444 31.9705 37.2182C31.2334 37.3176 30.7487 37.3685 30.5148 37.3685H25.0446L27.5972 26.4269ZM29.7929 30.7195H31.1706C31.6648 30.7195 32.0301 30.6278 32.2681 30.4469C32.5043 30.2635 32.661 30.0011 32.7406 29.6597C32.8149 29.3413 32.7777 29.0916 32.6259 28.9133C32.4723 28.7324 32.1564 28.6433 31.6765 28.6433H30.2773L29.7929 30.7195ZM28.7903 35.0172H30.4067C30.9535 35.0172 31.3617 34.9152 31.6319 34.7089C31.9046 34.5025 32.0814 34.2249 32.1629 33.8759C32.2384 33.5524 32.1892 33.2925 32.0129 33.0963C31.8367 32.9002 31.473 32.8008 30.9166 32.8008H29.3074L28.7903 35.0172Z" fill="white"/>
<path fill-rule="evenodd" clip-rule="evenodd" d="M23.6883 26.4269H26.864L24.3113 37.3685H21.1357L23.6883 26.4269Z" fill="white"/>
</svg>
