<svg width="64" height="64" viewBox="0 0 64 64" fill="none" xmlns="http://www.w3.org/2000/svg">
<rect width="64" height="64" fill="#414141"/>
<path d="M32.5374 38.2581C30.0028 38.2581 27.9426 36.2248 27.9426 33.7236C27.9426 31.2222 30.0028 29.189 32.5374 29.189C35.0721 29.189 37.1323 31.2222 37.1323 33.7236C37.1323 36.2248 35.0721 38.2581 32.5374 38.2581ZM32.5374 22.6664C26.3592 22.6664 21.3333 27.6263 21.3333 33.7236V50.6666H27.9426V43.8245L28.4628 44.0258C29.7632 44.5266 31.1326 44.7807 32.5374 44.7807C38.7158 44.7807 43.7417 39.8208 43.7417 33.7236C43.7417 27.6263 38.7158 22.6664 32.5374 22.6664Z" fill="white"/>
<path d="M21.3333 19.5556H27.5149V13.3333H21.3333V19.5556Z" fill="#00C5FF"/>
</svg>
