<svg width="64" height="64" viewBox="0 0 64 64" fill="none" xmlns="http://www.w3.org/2000/svg">
<rect width="64" height="64" fill="#17B497"/>
<path d="M30.5297 26.5226H30.5902C30.867 26.175 31.2302 25.9665 31.68 25.9665C32.3978 25.9665 32.8043 26.3054 32.8043 27.0961C32.8043 27.5132 32.787 28.6688 32.8043 29.0338H31.7665V27.2612C31.7665 26.7398 31.6281 26.4618 31.2129 26.4618C30.7373 26.4618 30.5989 26.8441 30.5989 27.4176V29.0338H29.561V26.0534H30.5556L30.5297 26.5226ZM36.4194 26.6095C36.1859 26.3749 35.9005 26.2272 35.4594 26.2272C34.854 26.2272 34.5427 26.7398 34.5427 27.5566C34.5427 28.33 34.9319 28.7731 35.667 28.7731C35.9524 28.7731 36.2638 28.6428 36.4194 28.4951L36.5578 28.6862C36.2983 28.9121 35.7881 29.1207 35.3643 29.1207C33.9546 29.1207 33.4875 28.3039 33.4875 27.5566C33.4875 26.6529 34.2313 25.9752 35.3902 25.9752C35.9092 25.9752 36.2724 26.0881 36.6097 26.2532L36.4194 26.6095ZM38.6075 25.9665C39.7232 25.9665 40.3719 26.5574 40.3719 27.4784C40.3719 28.4864 39.6454 29.112 38.6075 29.112C37.7427 29.112 36.8432 28.7036 36.8432 27.6088C36.8432 26.5139 37.6994 25.9665 38.6075 25.9665ZM38.6248 26.1924C38.1405 26.1924 37.8637 26.679 37.8637 27.6261C37.8637 28.33 38.0367 28.8948 38.6162 28.8948C39.1092 28.8948 39.3513 28.356 39.3513 27.3828C39.3513 26.6616 39.1438 26.1924 38.6248 26.1924ZM25.8681 26.3054C26.2832 26.0621 26.854 25.9665 27.3038 25.9665C28.0735 25.9665 28.6183 26.2445 28.6183 26.9658V29.0338H27.7189C27.7189 28.973 27.7275 28.8252 27.7189 28.6862L27.7102 28.608L27.6583 28.6688C27.4335 28.9295 27.1654 29.1207 26.7329 29.1207C26.0065 29.1207 25.7124 28.7123 25.7124 28.33C25.7124 27.8086 26.1102 27.5827 26.7762 27.4437C27.5892 27.2786 27.6929 27.2264 27.6929 26.9658C27.6929 26.6443 27.4075 26.3836 26.9578 26.3836C26.4389 26.3836 26.0929 26.5574 25.9892 26.6182L25.8681 26.3054ZM27.7102 27.3828L27.667 27.4089C27.5632 27.461 27.4508 27.4958 27.347 27.5306C27.2346 27.5653 27.1308 27.6001 27.027 27.6522C26.8281 27.7565 26.681 27.9129 26.681 28.2431C26.681 28.5646 26.854 28.7557 27.1308 28.7557C27.4767 28.7557 27.7102 28.5211 27.7102 28.104V27.3828ZM23.2302 25.0541H22.841L22.8151 26.6529H23.1783C23.6108 26.6529 24.0432 26.3749 24.0432 25.8188C24.0432 25.4017 23.827 25.0541 23.2302 25.0541ZM21.7254 24.75H23.6194C24.4929 24.75 25.0724 25.0367 25.0724 25.6971C25.0724 26.3575 24.3546 26.6443 23.9048 26.7138V26.7746C24.3546 26.792 25.1935 27.07 25.1935 27.7999C25.1935 28.6688 24.3805 29.0251 23.5156 29.0251H21.7254V24.75V24.75ZM23.161 26.9484H22.8151L22.8238 28.7384H23.2562C23.7059 28.7384 24.0951 28.4169 24.0951 27.8521C24.0951 27.2525 23.7665 26.9484 23.161 26.9484Z" fill="#FAB327"/>
<path d="M10.1622 34.6817C10.5427 36.6281 12.2119 37.7664 14.0973 37.7664C15.2735 37.7664 16.32 37.3232 16.32 36.35C16.32 35.6983 15.8962 35.2639 15.2995 34.9163C14.9968 34.7425 14.6508 34.5861 14.2703 34.4384C13.8984 34.2907 13.5005 34.143 13.1027 33.9865C11.5027 33.3522 9.95459 32.5615 9.95459 30.6673C9.95459 28.521 12.0562 27.5044 14.1232 27.5044C15.0746 27.5044 15.7405 27.7042 16.2422 27.9041C16.493 28.0084 16.7092 28.1039 16.8995 28.1821C17.0897 28.2603 17.2541 28.3125 17.4184 28.3125C17.773 28.3125 17.9459 28.1474 17.9892 27.6869H18.2314V30.7194H17.9805C17.5481 29.0424 16.1211 28.0518 14.2962 28.0518C13.2843 28.0518 12.4541 28.4863 12.4541 29.4421C12.4541 30.0156 12.8692 30.3892 13.4573 30.6846C14.0454 30.9801 14.8238 31.2147 15.6108 31.5101C17.1762 32.0923 18.6984 32.9004 18.6984 34.8815C18.6984 37.3145 16.8908 38.3051 14.4173 38.3051C13.7168 38.3051 12.9384 38.1487 12.2897 37.9923C11.9611 37.9141 11.6757 37.8359 11.4422 37.7751C11.2173 37.7142 11.0357 37.6795 10.9492 37.6795C10.5946 37.6795 10.2919 37.9141 10.1708 38.1834H9.92V34.6817H10.1622ZM33.5135 38.1748V37.9315C32.7092 37.9315 32.3978 37.749 32.3978 36.9061V34.4558C33.6519 34.4558 34.1622 34.6382 34.2314 35.9416H34.4908V32.4746H34.2314C34.1622 33.778 33.6519 33.9605 32.3978 33.9605V30.8584H33.747C34.9492 30.8584 35.5805 31.3624 35.693 32.5181H35.9438V30.3805H28.7741V30.6238C29.5784 30.6238 29.8897 30.8063 29.8897 31.6491V36.9061C29.8897 37.749 29.5784 37.9315 28.7741 37.9315V38.1748H33.5135ZM50.3005 38.1748V37.9315C49.5914 37.9315 49.3924 37.7229 49.3924 37.4362C49.3924 37.2276 49.453 37.0625 49.5395 36.8192L49.9546 35.6896H52.1427L52.6876 36.993C52.7481 37.1494 52.8173 37.3406 52.8173 37.5144C52.8173 37.7751 52.6097 37.9228 52.3416 37.9228H51.8227V38.1661H56V37.9228C55.6195 37.888 55.5243 37.8359 55.3168 37.3493L52.3849 30.3631H51.5719L48.9168 36.8801C48.5795 37.6968 48.3805 37.8793 47.9049 37.9228V38.1661H50.3005V38.1748V38.1748ZM51.9697 35.2552H50.1189L51.0443 32.9525L51.9697 35.2552ZM41.6 38.2182H41.8595C41.9286 38.0183 42.1535 37.8446 42.4043 37.8446C42.6465 37.8446 43.9265 38.3051 44.9643 38.3051C46.7978 38.3051 48.1643 37.5578 48.1643 35.7331C48.1643 32.744 43.5459 33.3175 43.5459 31.7187C43.5459 31.0496 44.1254 30.7368 44.8692 30.7368C46.2184 30.7368 47.2562 31.4667 47.5589 32.7092H47.8097V30.3805H47.5589C47.533 30.7281 47.4205 30.841 47.1784 30.841C46.7373 30.841 46.1578 30.2502 44.7395 30.2502C43.2086 30.2502 41.6173 31.0061 41.6173 32.6223C41.6173 35.4898 46.3222 34.9858 46.3222 36.8105C46.3222 37.4883 45.5957 37.8185 44.7222 37.8185C43.3297 37.8185 42.1103 36.9756 41.8508 35.5419H41.5914V38.2182H41.6V38.2182ZM19.6757 34.2733C19.6757 36.9322 21.6043 38.3051 24.173 38.3051C26.7503 38.3051 28.6703 36.9409 28.6703 34.2733C28.6703 31.6144 26.7416 30.2415 24.173 30.2415C21.6043 30.2415 19.6757 31.6144 19.6757 34.2733ZM22.253 34.2733C22.253 31.71 23.04 30.7281 24.1816 30.7281C25.3146 30.7281 26.1103 31.71 26.1103 34.2733C26.1103 36.8366 25.3232 37.8185 24.1816 37.8185C23.04 37.8185 22.253 36.8366 22.253 34.2733ZM40.96 38.1748V37.9315C40.173 37.9315 39.8616 37.749 39.8616 36.9061V31.6491C39.8616 30.8063 40.173 30.6238 40.96 30.6238V30.3805H36.2378V30.6238C37.0422 30.6238 37.3535 30.8063 37.3535 31.6491V36.9061C37.3535 37.749 37.0422 37.9315 36.2378 37.9315V38.1748H40.96ZM8 24.7586H20.4886V25.5319H8V24.7586ZM8 26.0794H20.4886V26.3313H8V26.0794ZM8 40.3818H20.4886V41.1552H8V40.3818ZM8 39.5737H20.4886V39.8257H8V39.5737Z" fill="white"/>
</svg>
