<svg width="64" height="64" viewBox="0 0 64 64" fill="none" xmlns="http://www.w3.org/2000/svg">
<rect width="64" height="64" fill="#20286D"/>
<path fill-rule="evenodd" clip-rule="evenodd" d="M33.1464 35.956C34.8047 35.6433 36.2895 34.7209 37.3143 33.3667C38.7174 31.5376 39.4289 29.113 39.4289 26.071C39.4289 23.0916 38.575 20.6054 36.8669 18.6322C35.8708 17.4816 34.7729 16.6801 33.5529 16.2492C33.4107 16.2079 33.2886 16.1669 33.1464 16.1256V14.8516C33.9622 14.9016 34.7719 15.0255 35.5657 15.2217C36.7247 15.5298 37.965 16.1462 39.2867 17.071C41.5027 18.797 42.6209 21.4479 42.6209 25.003C42.6209 28.4144 41.6248 31.3323 39.6119 33.7366C38.5344 35.0108 37.294 35.894 35.8505 36.3668C34.9704 36.6454 34.0643 36.8314 33.1464 36.9218V35.956V35.956ZM26.884 15.5915V33.2848C26.884 35.1545 28.4699 36.0792 31.6418 36.0792C32.1461 36.0814 32.6497 36.0402 33.1471 35.956V36.9218C32.1305 37.0243 30.931 37.0868 29.589 37.0868H24.0173L23.9968 18.5101C23.9968 17.2975 23.8546 16.5166 23.5497 16.1469C23.2448 15.7772 22.594 15.592 21.6181 15.592H21.3333V14.6667H29.5883C30.9709 14.7079 32.1703 14.7693 33.1464 14.8514V16.1254C31.9675 15.7557 30.3812 15.5913 28.409 15.5913L26.884 15.5915Z" fill="white"/>
<path d="M38.4324 42.0592H31.2351V49.3333H38.4324V42.0592Z" fill="white"/>
<path d="M31.2352 42.0592H24.0173V49.3333H31.2352V42.0592Z" fill="#878787"/>
</svg>
