<svg width="64" height="64" viewBox="0 0 64 64" fill="none" xmlns="http://www.w3.org/2000/svg">
<rect width="64" height="64" fill="#02355A"/>
<path d="M32.4741 51.088C22.8387 51.088 15 43.2252 15 33.5594C15 23.8936 22.8387 16.0309 32.4741 16.0309C42.1095 16.0309 49.9481 23.8936 49.9481 33.5594C49.9481 43.2251 42.1087 51.088 32.4741 51.088ZM32.4741 19.0207C24.4875 19.0207 17.9898 25.5429 17.9898 33.5594C17.9898 41.576 24.4875 48.0982 32.4741 48.0982C40.4606 48.0982 46.9587 41.576 46.9587 33.5594C46.9587 25.5429 40.4598 19.0207 32.4741 19.0207ZM43.812 12.4065C44.5964 13.1025 44.5353 14.4513 43.677 15.4178C42.8187 16.3843 41.4863 16.6046 40.7027 15.9082C39.9191 15.2118 39.9791 13.8639 40.8378 12.897C41.6965 11.9301 43.0281 11.7106 43.812 12.4065Z" fill="#C1A34C"/>
<path d="M35.0929 23.0548H39.6335L30.0004 39.8847C30.0004 39.8847 29.0039 42.7651 31.1078 41.9866C31.1078 41.9866 33.2097 42.2937 37.087 37.1576H38.8577C38.8577 37.1576 33.4323 45.3084 28.4496 44.4225C23.4669 43.5366 26.568 37.4499 27.4528 36.1203C28.3375 34.7906 35.0917 23.0548 35.0917 23.0548" fill="#C1A34C"/>
</svg>
