<svg width="64" height="64" viewBox="0 0 64 64" fill="none" xmlns="http://www.w3.org/2000/svg">
<rect width="64" height="64" fill="#02C4C2"/>
<g clip-path="url(#clip0_2_169)">
<path d="M30.6081 33.4246C30.7104 33.528 30.7918 33.6511 30.8472 33.787C30.9027 33.9229 30.9313 34.0686 30.9313 34.2159C30.9313 34.3632 30.9027 34.509 30.8472 34.6448C30.7918 34.7807 30.7104 34.9039 30.6081 35.0072C29.9419 35.6887 29.0935 36.1525 28.1701 36.3401C27.2467 36.5277 26.2897 36.4306 25.4201 36.0612C24.5505 35.6918 23.8073 35.0666 23.2845 34.2646C22.7616 33.4626 22.4826 32.5199 22.4826 31.5555C22.4826 30.5911 22.7616 29.6483 23.2845 28.8463C23.8073 28.0443 24.5505 27.4191 25.4201 27.0497C26.2897 26.6803 27.2467 26.5833 28.1701 26.7709C29.0935 26.9585 29.9419 27.4223 30.6081 28.1037C30.7104 28.207 30.7918 28.3302 30.8472 28.4661C30.9027 28.6019 30.9313 28.7477 30.9313 28.895C30.9313 29.0423 30.9027 29.1881 30.8472 29.3239C30.7918 29.4598 30.7104 29.583 30.6081 29.6863V29.6863C30.4029 29.8896 30.1287 30.0032 29.8433 30.0032C29.558 30.0032 29.2838 29.8896 29.0786 29.6863C28.5771 29.2209 27.9231 28.9655 27.2464 28.971C26.5971 28.9841 25.9776 29.2521 25.5157 29.7197C25.0537 30.1873 24.7847 30.8187 24.7641 31.4836C24.7435 32.1486 24.9728 32.7962 25.4049 33.2929C25.8369 33.7895 26.4386 34.0973 27.0857 34.1526C27.4469 34.1871 27.811 34.142 28.1537 34.0202C28.4964 33.8985 28.8097 33.7029 29.0724 33.4467C29.1718 33.3418 29.2903 33.258 29.4213 33.2001C29.5523 33.1422 29.6931 33.1113 29.8358 33.1092C29.9784 33.1072 30.1201 33.134 30.2526 33.1881C30.3851 33.2422 30.5059 33.3226 30.6081 33.4246V33.4246Z" fill="white"/>
<path d="M36.7536 26.6667C35.8119 26.6667 34.8914 26.9527 34.1084 27.4887C33.3254 28.0247 32.7151 28.7865 32.3547 29.6778C31.9944 30.5691 31.9001 31.5498 32.0838 32.496C32.2675 33.4422 32.721 34.3114 33.3869 34.9936C34.0527 35.6757 34.9011 36.1403 35.8247 36.3285C36.7484 36.5167 37.7057 36.4201 38.5757 36.0509C39.4457 35.6817 40.1894 35.0565 40.7125 34.2544C41.2357 33.4522 41.515 32.5092 41.515 31.5444C41.515 30.9039 41.3918 30.2696 41.1525 29.6778C40.9133 29.086 40.5625 28.5483 40.1204 28.0953C39.6783 27.6424 39.1534 27.2831 38.5757 27.038C37.998 26.7928 37.3789 26.6667 36.7536 26.6667V26.6667ZM36.7536 34.121C36.2556 34.121 35.7687 33.9697 35.3546 33.6863C34.9405 33.4028 34.6177 32.9999 34.4272 32.5285C34.2366 32.0571 34.1867 31.5384 34.2839 31.038C34.381 30.5376 34.6209 30.0779 34.973 29.7171C35.3252 29.3563 35.7739 29.1106 36.2624 29.0111C36.7508 28.9116 37.2572 28.9626 37.7173 29.1579C38.1774 29.3532 38.5707 29.6838 38.8474 30.108C39.1241 30.5323 39.2718 31.0311 39.2718 31.5413C39.2718 31.8809 39.2064 32.2171 39.0792 32.5307C38.9521 32.8443 38.7658 33.1291 38.531 33.3688C38.2962 33.6085 38.0175 33.7983 37.7109 33.9274C37.4043 34.0565 37.0758 34.1223 36.7444 34.121H36.7536Z" fill="white"/>
<path d="M18.2492 36.0772C18.1447 35.968 18.0622 35.8387 18.0065 35.6968C17.9509 35.5549 17.9231 35.4032 17.9248 35.2502C17.9265 35.0973 17.9577 34.9462 18.0166 34.8057C18.0754 34.6651 18.1608 34.5379 18.2678 34.4312C18.8503 33.8318 19.177 33.0202 19.1762 32.1743C19.1841 31.7532 19.111 31.3347 18.961 30.9425C18.811 30.5504 18.5871 30.1924 18.302 29.8889C17.7263 29.276 16.9366 28.9225 16.1065 28.9061C15.2764 28.8897 14.4739 29.2119 13.8756 29.8016C13.2773 30.3914 12.9323 31.2005 12.9163 32.0509C12.8991 32.4908 12.971 32.9297 13.1273 33.3399C13.2836 33.75 13.5211 34.1227 13.8247 34.4344C13.9314 34.541 14.0164 34.6681 14.075 34.8085C14.1335 34.9489 14.1644 35.0998 14.1658 35.2525C14.1672 35.4051 14.1392 35.5566 14.0833 35.6981C14.0274 35.8397 13.9448 35.9685 13.8401 36.0772V36.0772C13.6352 36.2909 13.3565 36.4137 13.0641 36.4191C12.7717 36.4244 12.4889 36.3118 12.2767 36.1057C11.518 35.3401 10.9983 34.361 10.7835 33.2924C10.5687 32.2239 10.6685 31.114 11.0703 30.1037C11.4721 29.0933 12.1577 28.228 13.0402 27.6174C13.9227 27.0068 14.9624 26.6784 16.0273 26.674C17.0922 26.6695 18.1344 26.9892 19.0218 27.5924C19.9091 28.1956 20.6016 29.0552 21.0114 30.0622C21.4212 31.0691 21.5299 32.1781 21.3236 33.2484C21.1173 34.3187 20.6054 35.3021 19.8528 36.074C19.7481 36.1828 19.6234 36.2693 19.4859 36.3284C19.3484 36.3876 19.2008 36.4181 19.0517 36.4184C18.9025 36.4187 18.7548 36.3887 18.6171 36.3301C18.4793 36.2716 18.3543 36.1856 18.2492 36.0772V36.0772Z" fill="white"/>
<path d="M50.1601 36.0772C50.0556 35.968 49.9731 35.8388 49.9174 35.6969C49.8617 35.555 49.834 35.4032 49.8357 35.2503C49.8374 35.0974 49.8686 34.9463 49.9275 34.8057C49.9863 34.6652 50.0717 34.5379 50.1786 34.4312C50.7612 33.8319 51.0879 33.0202 51.087 32.1744C51.103 31.324 50.7886 30.5019 50.2129 29.889C49.6372 29.2761 48.8475 28.9225 48.0173 28.9062C47.1872 28.8898 46.3848 29.2119 45.7865 29.8017C45.1882 30.3914 44.8431 31.2005 44.8272 32.0509C44.81 32.4909 44.8819 32.9298 45.0382 33.3399C45.1945 33.7501 45.4319 34.1227 45.7356 34.4344C45.8422 34.541 45.9273 34.6682 45.9858 34.8086C46.0444 34.949 46.0752 35.0998 46.0767 35.2525C46.0781 35.4052 46.0501 35.5567 45.9942 35.6982C45.9383 35.8397 45.8557 35.9685 45.751 36.0772C45.5461 36.291 45.2674 36.4138 44.975 36.4191C44.6826 36.4244 44.3998 36.3119 44.1876 36.1057C43.4271 35.3409 42.9057 34.3618 42.6894 33.2928C42.4732 32.2238 42.572 31.113 42.9733 30.1016C43.3745 29.0902 44.0601 28.2238 44.943 27.6124C45.8259 27.001 46.8662 26.6722 47.9319 26.6678C48.9976 26.6633 50.0405 26.9834 50.9282 27.5874C51.8159 28.1914 52.5084 29.052 52.9177 30.06C53.327 31.068 53.4347 32.1779 53.227 33.2487C53.0193 34.3195 52.5057 35.3029 51.7513 36.074C51.5404 36.29 51.2546 36.4116 50.9564 36.4122C50.6582 36.4128 50.3719 36.2923 50.1601 36.0772V36.0772Z" fill="white"/>
<path d="M27.1877 32.684C27.8054 32.684 28.3062 32.1709 28.3062 31.5381C28.3062 30.9053 27.8054 30.3923 27.1877 30.3923C26.5699 30.3923 26.0692 30.9053 26.0692 31.5381C26.0692 32.1709 26.5699 32.684 27.1877 32.684Z" fill="white"/>
</g>
<defs>
<clipPath id="clip0_2_169">
<rect width="42.6667" height="10.6667" fill="white" transform="translate(10.6667 26.6667)"/>
</clipPath>
</defs>
</svg>
