<svg width="64" height="64" viewBox="0 0 64 64" fill="none" xmlns="http://www.w3.org/2000/svg">
<rect width="64" height="64" fill="#143B68"/>
<g clip-path="url(#clip0_2_308)">
<path d="M47.8996 47.9511H34.9756C34.9756 47.9511 32.822 47.9511 32.1042 44.0594C31.8983 42.7287 31.6951 39.7577 31.6951 39.7577C31.6951 39.7577 31.2834 32.9982 35.8993 27.7757C37.6438 25.8312 39.4886 23.9872 41.5392 22.6564C44.8224 20.5056 47.8996 19.278 47.8996 19.278V47.9511Z" fill="white"/>
<path d="M36.5142 24.1934C35.5905 25.2173 34.7698 26.2411 34.0519 27.1644C30.8717 31.7705 30.7688 35.2521 30.7688 35.2521C30.7688 35.2521 30.7688 31.7705 24.2052 26.8549C19.7951 23.577 16.1029 22.8601 16.1029 22.8601V16H47.8996C47.8996 16 42.0513 18.3546 36.5142 24.1934Z" fill="#2DBBDC"/>
<path d="M26.8707 47.9511H16.1029V25.4211C16.1029 25.4211 19.898 26.0349 23.899 28.5958C26.5671 30.3367 29.4386 33.9214 30.0535 37.6068C31.4866 47.4379 26.8707 47.9511 26.8707 47.9511Z" fill="#1777A6"/>
</g>
<defs>
<clipPath id="clip0_2_308">
<rect width="32" height="32" fill="white" transform="translate(16 16)"/>
</clipPath>
</defs>
</svg>
