<svg width="64" height="64" viewBox="0 0 64 64" fill="none" xmlns="http://www.w3.org/2000/svg">
<rect width="64" height="64" fill="#003B70"/>
<g clip-path="url(#clip0_2_176)">
<path d="M14.1441 35.2295L14.1099 35.2623C13.5584 35.8189 12.9201 36.114 12.2624 36.114C10.8896 36.114 9.89307 35.0936 9.89307 33.6856C9.89307 32.2802 10.8896 31.2583 12.2624 31.2583C12.9201 31.2583 13.5584 31.5546 14.1099 32.1127L14.1441 32.1465L15.027 31.0887L15.0034 31.06C14.2691 30.2004 13.3881 29.7819 12.3051 29.7819C11.2182 29.7819 10.2247 30.1443 9.50873 30.7978C8.73076 31.5056 8.32001 32.5037 8.32001 33.6856C8.32001 34.8669 8.73076 35.8675 9.50873 36.5754C10.2247 37.232 11.2182 37.5924 12.3051 37.5924C13.3881 37.5924 14.2691 37.1742 15.0034 36.3141L15.027 36.2874L14.1441 35.2295Z" fill="white"/>
<path d="M15.9191 37.449H17.4788V29.905H15.9191V37.449V37.449Z" fill="white"/>
<path d="M23.5884 35.8086C23.1723 36.0597 22.785 36.1859 22.4373 36.1859C21.9333 36.1859 21.7056 35.9224 21.7056 35.3354V31.3325H23.2941V29.9119H21.7056V27.5645L20.1769 28.3751V29.9119H18.8581V31.3325H20.1769V35.5907C20.1769 36.7509 20.8705 37.5434 21.9058 37.564C22.6089 37.5777 23.0327 37.3702 23.2901 37.2185L23.3052 37.2074L23.6807 35.7528L23.5884 35.8086V35.8086Z" fill="white"/>
<path d="M24.8802 37.449H26.4409V29.905H24.8802V37.449V37.449Z" fill="white"/>
<path d="M51.317 27.0345V34.2307L51.8028 33.4814C51.8024 33.4848 53.9857 30.3523 54.2655 29.9529H55.2385C55.0314 30.2286 53.3148 32.5693 53.3148 32.5693C53.3148 32.5693 55.5508 37.186 55.68 37.449H54.7245C54.672 37.3413 52.7511 33.3121 52.7511 33.3121L51.317 35.303V37.449H50.4268V27.5382C50.5046 27.4939 51.1074 27.1515 51.317 27.0345V27.0345ZM44.0043 30.8466C44.4635 30.1664 45.1829 29.7914 46.0247 29.7914C47.7031 29.7914 48.5926 30.852 48.5926 32.859V37.449H47.7001V33.0491C47.7001 31.3416 47.1017 30.5489 45.8054 30.5489C44.5647 30.5489 43.8239 31.484 43.8239 33.0491V37.449H42.9339V29.9529H43.8239V31.1153L44.0043 30.8466V30.8466ZM38.5329 29.7914C40.2601 29.7914 41.0997 30.5739 41.0997 32.1842V37.449H40.2094V36.3554L40.0362 36.5446C39.381 37.2608 38.629 37.611 37.7336 37.611C37.0319 37.611 35.3994 37.3809 35.3994 35.2469C35.3994 33.5026 36.8526 32.8835 38.214 32.8835C38.8976 32.8835 39.5729 33.0395 40.0629 33.3115L40.2094 33.392V32.3158C40.2094 31.1227 39.6213 30.5184 38.4591 30.5184C37.7424 30.5184 37.0956 30.6977 36.4324 31.068C36.3739 30.9348 36.1681 30.4842 36.1109 30.3556C36.8041 29.9937 37.66 29.7914 38.5329 29.7914ZM36.2723 35.1735C36.2723 36.2941 36.8583 36.9116 37.923 36.9116C38.8291 36.9116 39.6339 36.4874 40.1927 35.7161L40.2094 35.6896V34.0461L40.16 34.0177C39.5917 33.6968 39.0098 33.5673 38.1544 33.5673C36.9769 33.5673 36.2723 34.1676 36.2723 35.1735ZM29.3984 27.0345V31.0445L29.5707 30.8576C30.2263 30.1401 30.952 29.7914 31.7864 29.7914C33.4561 29.7914 34.4145 31.1703 34.4145 33.5752C34.4145 36.0267 33.326 37.611 31.6407 37.611C30.8196 37.611 30.1621 37.2954 29.5716 36.6188L29.3984 36.419V37.449H28.51V27.5382C28.5856 27.4939 29.1895 27.1515 29.3984 27.0345ZM29.4195 31.6977L29.3984 31.7253V35.6274L29.4143 35.6514C29.9053 36.4043 30.7053 36.8545 31.5567 36.8545C32.8716 36.8545 33.5382 35.7564 33.5382 33.5912C33.5382 31.6569 32.7997 30.5489 31.5122 30.5489C30.7318 30.5489 30.0277 30.9352 29.4195 31.6977" fill="white"/>
<path fill-rule="evenodd" clip-rule="evenodd" d="M27.3752 28.5665C25.9474 26.5627 23.5763 25.3672 21.1639 25.3672C18.7524 25.3672 16.3808 26.5627 14.9554 28.5665L14.8823 28.6696H16.6801L16.7 28.6482C17.9236 27.3969 19.5209 26.7352 21.1639 26.7352C22.8071 26.7352 24.404 27.3969 25.63 28.6482L25.6499 28.6696H27.4471L27.3752 28.5665Z" fill="#D9261C"/>
</g>
<defs>
<clipPath id="clip0_2_176">
<rect width="48" height="12.878" fill="white" transform="translate(8 25.05)"/>
</clipPath>
</defs>
</svg>
