<svg width="64" height="64" viewBox="0 0 64 64" fill="none" xmlns="http://www.w3.org/2000/svg">
<rect width="64" height="64" fill="#6EB84B"/>
<path d="M37.088 24.9717C37.0796 26.5028 36.6847 27.2738 36.1949 27.3313C35.8739 27.3692 35.5044 27.1021 35.1687 26.5478C34.0636 24.741 32.8686 22.9914 31.5883 21.3055C31.589 21.3018 31.59 21.2982 31.5912 21.2947C32.087 18.6145 32.8807 15.8821 34.2379 13.5057C35.9365 16.9459 37.1084 21.1453 37.0877 24.973L37.088 24.9717ZM30.7138 24.8834C31.9143 25.9635 32.2429 26.8276 31.9746 27.2981C31.7992 27.6063 31.3611 27.7525 30.7188 27.6761C28.5708 27.4338 26.4112 27.3106 24.2498 27.3073C24.2477 27.3047 24.2451 27.3007 24.2424 27.2978C22.1921 24.8452 20.3379 22.0818 19.1458 19.0987C23.2092 20.0665 27.6061 22.0868 30.7138 24.8848V24.8834ZM26.6172 30.4754C28.2214 30.1353 29.0975 30.4153 29.2943 30.9477C29.4237 31.2973 29.2634 31.7644 28.809 32.2628C27.3186 33.9127 25.9169 35.6415 24.6098 37.4416H24.5978C21.3648 37.6822 18.0011 37.5483 14.8463 36.7567C18.0609 33.8942 22.4196 31.3653 26.6172 30.4751V30.4754ZM28.4494 37.3737C29.1507 35.8721 29.8994 35.3091 30.4148 35.4661C30.7531 35.5691 31.0016 35.9809 31.0925 36.6419C31.3877 38.724 31.7933 40.7889 32.3076 42.8276C32.3058 42.8305 32.3029 42.8342 32.3008 42.8371C30.5419 45.3465 28.6546 47.7633 26.287 49.7285C26.0074 45.6716 26.7393 41.0323 28.4492 37.3734L28.4494 37.3737ZM34.523 39.8355C33.8988 38.4627 33.9465 37.532 34.3684 37.2101C34.6462 36.9993 35.088 37.0391 35.6032 37.3447C37.1702 38.297 38.8052 39.1315 40.4947 39.8413C40.4947 39.8444 40.4947 39.8484 40.4965 39.8515C41.1486 42.4309 41.4213 45.0923 41.306 47.7512C38.3793 45.7724 36.0364 43.0382 34.523 39.8355V39.8355ZM39.872 36.453C38.5788 36.1658 37.959 35.5836 37.9999 35.0525C38.0261 34.7048 38.327 34.37 38.856 34.1342C40.4942 33.4234 42.0793 32.5951 43.5992 31.6556L43.6073 31.6603C45.6448 32.6653 47.4965 34.013 49.0824 35.645C46.2679 36.7478 42.7839 37.1015 39.8712 36.4535L39.872 36.453ZM40.9307 30.0739C39.9064 30.9743 39.1178 31.1276 38.7727 30.7607C38.5463 30.5209 38.501 30.0578 38.6723 29.4588C39.2077 27.5592 39.6471 25.6337 39.9889 23.6896C39.9919 23.6886 39.9948 23.6874 39.9976 23.6859C42.0617 22.7146 44.1346 21.8234 46.4262 21.5823C45.3434 24.6909 43.3812 27.9187 40.9307 30.0734" fill="#D9E7CD"/>
<path d="M34.2367 13.5056C32.8796 15.8815 32.0863 18.6138 31.59 21.2935L31.5874 21.3045C31.2467 20.8593 30.7947 20.323 30.4037 19.8343C28.9213 17.9789 27.2837 16.2426 25.626 14.5393C28.3558 13.4395 31.3259 13.0832 34.2365 13.5063L34.2367 13.5056ZM14.6667 28.0443C17.2023 27.7324 19.7505 27.4476 22.2743 27.3614C22.9263 27.339 23.6661 27.3061 24.2497 27.3048C24.2473 27.3022 24.2449 27.2982 24.2423 27.2951C22.1923 24.8433 20.3377 22.0804 19.1462 19.0975C16.8857 21.6246 15.3391 24.7137 14.6667 28.0443V28.0443ZM19.6627 45.476C20.8558 43.2895 22.1124 41.1259 23.4873 39.0853C23.8524 38.5437 24.263 37.9212 24.6081 37.4415H24.5961C21.3639 37.6823 18.001 37.5485 14.8464 36.7566C15.6482 40.0435 17.3113 43.0544 19.6627 45.4763V45.476ZM34.8845 50.4083C34.1172 48.4636 33.3798 46.5052 32.7944 44.5308C32.6317 43.9823 32.4398 43.3453 32.3062 42.8285C32.3044 42.8311 32.3015 42.8346 32.2996 42.8377C30.541 45.3467 28.654 47.7621 26.2869 49.7281C29.1451 50.5695 31.921 50.9647 34.8845 50.4083ZM46.7489 41.9091C45.0956 41.5062 43.4695 40.9977 41.8805 40.387C41.4314 40.2086 40.9086 40.02 40.4932 39.8422L40.4951 39.8525C41.1472 42.4314 41.42 45.0926 41.3048 47.751C43.5279 46.2336 45.3875 44.2381 46.7489 41.9091V41.9091ZM48.9604 27.7719C47.6477 28.88 46.271 29.9092 44.8375 30.8541C44.4355 31.1133 43.9788 31.4262 43.5986 31.6581L43.6064 31.6625C45.6436 32.6672 47.4952 34.0143 49.0812 35.6457C49.4539 33.0314 49.4132 30.3744 48.9604 27.7729V27.7719ZM40.7755 15.9213C40.6544 17.966 40.5079 20.0156 40.2325 22.0166C40.1578 22.559 40.0732 23.1915 39.9883 23.6905L39.9966 23.6868C42.0606 22.7155 44.1331 21.8246 46.4248 21.5833C44.9863 19.2952 43.0558 17.3604 40.7755 15.9213" fill="white"/>
</svg>
