<svg width="64" height="64" viewBox="0 0 64 64" fill="none" xmlns="http://www.w3.org/2000/svg">
<rect width="64" height="64" fill="#B81D2C"/>
<path d="M31.936 43.1298C38.6729 37.3554 48.1365 31.7413 53.3335 29.7203C52.5315 29.207 51.2804 28.4691 49.8689 27.6671C43.1641 29.8807 35.3365 34.7889 28.343 40.3388C29.53 41.2371 30.7811 42.1674 31.936 43.1298V43.1298Z" fill="white"/>
<path d="M28.8561 27.4426C27.8616 26.9614 26.7709 26.5123 25.9368 26.1273C23.4025 27.3784 20.0982 29.2712 15.9278 32.2546C16.826 32.7358 17.7885 33.3133 18.815 33.8907C22.023 31.5168 25.2631 29.2712 28.8561 27.4426V27.4426Z" fill="white"/>
<path d="M34.8551 24.6837C33.636 24.01 29.4015 22.4381 26.4822 21.7644C25.616 22.0852 24.3969 22.5664 23.5629 22.9193C24.6215 23.208 28.5674 24.2667 31.9358 25.9669C32.802 25.5499 34.021 25.0366 34.8551 24.6837V24.6837Z" fill="white"/>
<path d="M20.5153 24.2666C16.7619 25.999 12.816 28.3729 10.6667 29.7523C11.4366 30.1052 12.2065 30.394 13.2652 30.9072C18.013 27.6992 21.7343 25.7423 23.21 25.1007C22.1514 24.7158 21.1569 24.4591 20.5153 24.2666V24.2666Z" fill="white"/>
<path d="M37.6782 23.6892C38.5444 23.4005 39.5389 23.1439 40.405 22.8872C37.9028 21.8286 34.7589 20.7058 31.9359 20C31.4867 20.1283 30.1394 20.4812 29.2091 20.7699C30.1715 21.0586 33.3474 21.7965 37.6782 23.6892ZM21.8627 35.7514C22.8893 36.3609 23.98 37.195 25.0386 37.9008C32.0642 32.4471 38.9935 28.2446 46.5965 25.8707C45.5379 25.3253 44.6075 24.8441 43.4206 24.2667C38.8652 25.4216 31.0697 28.5333 21.8627 35.7514Z" fill="white"/>
</svg>
