<svg width="64" height="64" viewBox="0 0 64 64" fill="none" xmlns="http://www.w3.org/2000/svg">
<rect width="64" height="64" fill="#003641"/>
<path d="M16.3956 18.6667C16.1163 18.6909 15.8453 18.7746 15.6009 18.9121C15.315 19.0771 15.0776 19.315 14.9136 19.6014C14.7496 19.8879 14.6644 20.2127 14.6667 20.5428C14.6663 20.8347 14.733 21.1229 14.8612 21.3852L24.1162 37.4658L27.1186 32.2763L31.9992 23.8434L29.0083 18.6667H16.3956Z" fill="#75B62D"/>
<path d="M29.0072 18.6667L36.8761 32.2763H42.857L49.1459 21.3469C49.2808 21.0689 49.3448 20.7617 49.3316 20.4529C49.3185 20.1442 49.2287 19.8435 49.0707 19.5778C48.9128 19.3122 48.6915 19.0899 48.4265 18.9309C48.1615 18.7719 47.8611 18.6811 47.5524 18.6667H29.0072Z" fill="#00A093"/>
<path d="M42.4119 32.2751H27.1143L24.112 37.4646L30.4456 48.3748C30.614 48.6292 30.843 48.8377 31.1121 48.9814C31.3812 49.1251 31.6821 49.1996 31.9872 49.1981C32.2999 49.1961 32.6072 49.117 32.882 48.9678C33.1568 48.8186 33.3905 48.604 33.5626 48.3429L42.8539 32.2751H42.4119Z" fill="#C5D205"/>
</svg>
