<svg width="64" height="64" viewBox="0 0 64 64" fill="none" xmlns="http://www.w3.org/2000/svg">
<rect width="64" height="64" fill="#3CC8C8"/>
<path fill-rule="evenodd" clip-rule="evenodd" d="M32 64C49.6731 64 64 49.6731 64 32C64 14.3269 49.6731 0 32 0C14.3269 0 0 14.3269 0 32C0 49.6731 14.3269 64 32 64Z" fill="#3CC8C8"/>
<path d="M30.937 13.4439C31.7833 12.9847 32.8162 14.0499 32.3666 14.9297C32.1055 15.6469 31.1154 15.8376 30.6097 15.2909C30.0739 14.7663 30.2486 13.7293 30.937 13.4439ZM21.8351 14.4649C22.3491 14.2447 22.9999 14.7348 22.9474 15.3178C23.002 15.9507 22.2583 16.4166 21.7343 16.1158C21.0401 15.836 21.1195 14.6632 21.8351 14.4649ZM40.477 16.1335C39.6736 16.0325 39.5465 14.7182 40.3199 14.4535C40.9198 14.1491 41.4702 14.72 41.5579 15.3117C41.4321 15.817 41.0256 16.2796 40.477 16.1335ZM23.9061 18.4962C24.7655 17.9305 25.9919 18.7729 25.8596 19.8117C25.815 20.8606 24.4763 21.4683 23.7209 20.7592C22.9905 20.2022 23.1012 18.9245 23.9061 18.4962ZM37.0258 19.0964C37.4093 18.0681 38.9629 18.037 39.3993 19.038C39.8307 19.817 39.3001 20.7816 38.5315 21.0465C37.5135 21.2443 36.5465 20.099 37.0258 19.0964ZM29.8409 20.9881C29.8326 20.1043 30.6062 19.4457 31.4134 19.3855C31.9489 19.4972 32.5324 19.7346 32.7621 20.2968C33.1901 21.0723 32.81 22.1402 32.0366 22.4962C31.6829 22.7024 31.2647 22.6251 30.8796 22.601C30.2908 22.3002 29.7949 21.7103 29.8409 20.9881ZM16.305 22.276C17.09 21.7738 18.1492 22.6903 17.852 23.5778C17.6884 24.3455 16.6967 24.6578 16.1298 24.1677C15.5247 23.7085 15.6206 22.6045 16.305 22.276ZM45.3717 22.2744C46.0377 21.7362 47.1369 22.3536 47.0575 23.2287C47.1022 24.0267 46.1519 24.6285 45.4907 24.2176C44.7625 23.877 44.6881 22.7111 45.3717 22.2744ZM33.6475 23.8633C34.7467 23.4523 36.0523 23.9441 36.6787 24.9639C37.5052 26.2105 37.0654 28.1091 35.783 28.8245C34.4542 29.6705 32.5138 28.9534 32.023 27.4091C31.4658 26.0267 32.2775 24.2966 33.6475 23.8633ZM27.1984 23.9992C28.4166 23.4008 30.056 23.9028 30.6445 25.1996C31.3369 26.4618 30.8015 28.2194 29.5635 28.8711C28.324 29.6037 26.5752 29.0483 25.9754 27.6932C25.3027 26.3826 25.9 24.6026 27.1984 23.9992ZM20.7409 26.2966C20.8335 25.4798 21.5739 24.9483 22.321 24.8934C23.1259 24.9944 23.7688 25.6449 23.8564 26.4925C23.8036 27.3317 23.1804 28.1519 22.3258 28.1469C21.3856 28.2311 20.5613 27.2578 20.7409 26.2966ZM39.8142 25.0709C40.7794 24.4863 42.1197 25.3374 42.0768 26.4913C42.143 27.714 40.6596 28.5756 39.6985 27.8584C38.7001 27.2612 38.7779 25.5794 39.8142 25.0709ZM24.5739 29.38C25.7028 29.0568 26.9936 29.6105 27.5473 30.6903C28.1537 31.7772 27.9058 33.2871 26.9639 34.0843C25.7558 35.2536 23.5277 34.7841 22.8847 33.1883C22.1459 31.7255 23.0433 29.7651 24.5739 29.38ZM36.8061 29.374C37.9035 29.0473 39.1928 29.4875 39.7827 30.5279C40.5628 31.7178 40.1904 33.4925 39.0291 34.2596C37.8127 35.1503 35.9284 34.6827 35.259 33.2899C34.4476 31.8493 35.2641 29.8134 36.8061 29.374ZM17.3131 30.7315C18.2882 30.3477 19.3692 31.4675 18.9741 32.4736C18.7328 33.3901 17.4915 33.7289 16.8503 33.0532C16.1 32.4186 16.3778 31.0067 17.3131 30.7315ZM43.7444 32.1915C43.7163 31.3507 44.3074 30.6061 45.136 30.5596C45.8038 30.6697 46.4532 31.2303 46.4004 31.9869C46.4615 32.9861 45.3045 33.6653 44.4864 33.1958C44.103 32.993 43.9063 32.5837 43.7444 32.1915ZM12.5184 31.2251C13.105 30.9586 13.8307 31.4877 13.6968 32.1657C13.6653 32.9334 12.5762 33.2285 12.1761 32.5871C11.8226 32.1416 12.0342 31.4548 12.5184 31.2251ZM49.5092 31.2097C49.9224 30.9037 50.5851 31.1237 50.7488 31.6259C51.0264 32.1744 50.5174 32.9259 49.9241 32.8332C49.0913 32.9121 48.8218 31.5913 49.5092 31.2097ZM27.7604 34.8948C29.3042 34.477 30.9636 35.8166 30.9733 37.4707C31.0741 39.1423 29.4397 40.6245 27.8594 40.2384C26.6379 40.0338 25.6795 38.8093 25.7191 37.5249C25.7158 36.2964 26.6067 35.1546 27.7604 34.8948ZM33.8741 34.8913C35.4409 34.4356 37.1499 35.7992 37.125 37.4915C37.2077 39.1322 35.6244 40.5645 34.0771 40.239C32.6211 40.0431 31.5468 38.3784 31.9533 36.9081C32.1585 35.9283 32.9452 35.1315 33.8741 34.8913ZM22.0865 35.9095C23.1707 35.717 24.1872 36.9758 23.7475 38.0471C23.4268 39.1887 21.8302 39.4984 21.1243 38.5659C20.2964 37.6703 20.9145 36.0332 22.0865 35.9095ZM40.0157 35.9598C40.9825 35.5384 42.1692 36.4087 42.0949 37.5006C42.1337 38.7027 40.6686 39.5315 39.7231 38.8299C38.6523 38.2 38.8472 36.3463 40.0157 35.9598ZM45.0271 41.1905C44.6485 40.4562 45.3361 39.4829 46.1197 39.6188C46.5097 39.6119 46.7824 39.9317 47.0321 40.2C47.0833 40.6352 47.1693 41.1544 46.8222 41.4897C46.3509 42.1105 45.2831 41.9334 45.0271 41.1905ZM16.3017 39.8233C17.0339 39.316 18.0877 40.0726 17.9231 40.9635C17.8355 41.7513 16.8817 42.2016 16.2535 41.7546C15.5793 41.3487 15.6041 40.1932 16.3017 39.8233ZM30.7685 41.4726C31.7272 41.0324 32.9485 41.9008 32.8576 42.9996C32.9286 44.2138 31.4181 45.0546 30.4808 44.3255C29.4397 43.6994 29.6132 41.8576 30.7685 41.4726ZM24.068 43.0992C24.8845 42.6522 25.9802 43.4243 25.9059 44.3752C25.9307 45.156 25.1984 45.8214 24.458 45.7061C23.8447 45.6924 23.4448 45.1202 23.2482 44.5762C23.2583 43.9833 23.4928 43.3229 24.068 43.0992ZM37.6407 43.113C38.4803 42.573 39.6736 43.3485 39.5942 44.3655C39.6158 45.4283 38.2671 46.1091 37.4854 45.4109C36.7284 44.8637 36.8208 43.5481 37.6407 43.113ZM40.0009 49.1851C39.6274 48.597 40.0671 47.8885 40.6736 47.7544C41.1613 47.8576 41.6769 48.2392 41.5744 48.8275C41.5034 49.6237 40.3844 49.8679 40.0009 49.1851ZM21.2649 48.6744C21.4136 48.2083 21.7739 47.7451 22.3012 47.8663C23.0697 47.9231 23.2979 49.1285 22.6252 49.5C22.0203 49.9245 21.3185 49.3433 21.2649 48.6744ZM30.304 49.2091C30.4511 48.5196 31.3088 48.1843 31.8741 48.5505C32.2476 48.7174 32.3567 49.1524 32.4526 49.5221C32.4014 49.7146 32.3556 49.9073 32.3105 50.0998C32.0791 50.3853 31.7817 50.6707 31.3965 50.6604C30.6808 50.7477 30.0351 49.9057 30.304 49.2091Z" fill="white"/>
</svg>
