<svg width="64" height="64" viewBox="0 0 64 64" fill="none" xmlns="http://www.w3.org/2000/svg">
<g clip-path="url(#clip0_2_990)">
<rect width="64" height="64" fill="#2E3148"/>
<path d="M32 64C49.6731 64 64 49.6731 64 32C64 14.3269 49.6731 0 32 0C14.3269 0 0 14.3269 0 32C0 49.6731 14.3269 64 32 64Z" fill="#2E3148"/>
<path d="M32 50.5678C42.2547 50.5678 50.5679 42.2547 50.5679 31.9999C50.5679 21.7451 42.2547 13.432 32 13.432C21.7452 13.432 13.4321 21.7451 13.4321 31.9999C13.4321 42.2547 21.7452 50.5678 32 50.5678Z" fill="#1B1E36"/>
<path d="M32.0658 4.0824C28.6116 4.0824 25.8107 16.611 25.8107 32.066C25.8107 47.521 28.6116 60.0496 32.0658 60.0496C35.52 60.0496 38.3209 47.521 38.3209 32.066C38.3209 16.611 35.52 4.0824 32.0658 4.0824ZM32.4977 58.4704C32.1027 58.9972 31.7077 58.602 31.7077 58.602C30.1169 56.7588 29.3215 53.3345 29.3215 53.3345C26.539 44.3799 27.2013 25.1535 27.2013 25.1535C28.5089 9.88976 30.8877 6.284 31.6972 5.48349C31.7798 5.40178 31.8887 5.35186 32.0045 5.34249C32.1204 5.33313 32.2358 5.36492 32.3305 5.43229C33.505 6.26454 34.4901 9.74512 34.4901 9.74512C37.3991 20.5435 37.1356 30.6834 37.1356 30.6834C37.3991 39.5064 35.678 49.3829 35.678 49.3829C34.3532 56.8888 32.4977 58.4704 32.4977 58.4704Z" fill="#6F7390"/>
<path d="M56.3385 18.1399C54.6187 15.1426 42.3585 18.9483 28.9464 26.6391C15.5343 34.3298 6.07359 42.9947 7.79212 45.9906C9.51065 48.9866 21.772 45.1822 35.1841 37.4914C48.5962 29.8007 58.057 21.1358 56.3385 18.1399ZM9.37881 45.5795C8.72038 45.4965 8.86912 44.9554 8.86912 44.9554C9.6768 42.6588 12.247 40.2647 12.247 40.2647C18.6325 33.3947 35.6401 24.4016 35.6401 24.4016C49.5291 17.9397 53.8432 18.2123 54.9376 18.5136C55.05 18.545 55.1476 18.6151 55.2132 18.7115C55.2788 18.808 55.3081 18.9245 55.296 19.0405C55.1644 20.4741 52.6293 23.0597 52.6293 23.0597C44.7158 30.9596 35.7888 35.778 35.7888 35.778C28.2668 40.3988 18.8434 43.8187 18.8434 43.8187C11.6731 46.4025 9.37907 45.5795 9.37907 45.5795H9.37881Z" fill="#6F7390"/>
<path d="M56.2776 46.0903C58.0107 43.101 48.5738 34.3965 35.2089 26.648C21.8439 18.8994 9.58541 15.0466 7.85384 18.041C6.12226 21.0355 15.5576 29.7348 28.9302 37.4834C42.3028 45.2319 54.546 49.085 56.2776 46.0903ZM9.00225 19.1961C8.74625 18.5891 9.28666 18.443 9.28666 18.443C11.6792 17.9911 15.04 19.0207 15.04 19.0207C24.183 21.1028 40.4863 31.3151 40.4863 31.3151C53.0387 40.0986 54.9638 43.9676 55.2523 45.0658C55.2816 45.1784 55.2702 45.2978 55.2201 45.4029C55.17 45.5079 55.0844 45.5919 54.9784 45.64C53.6695 46.2393 50.1638 45.3464 50.1638 45.3464C39.3589 42.4492 30.7176 37.1411 30.7176 37.1411C22.9534 32.9535 15.276 26.51 15.276 26.51C9.44231 21.5981 9.00404 19.2028 9.00404 19.2028L9.00225 19.1961Z" fill="#6F7390"/>
<path d="M32 35.2922C33.8182 35.2922 35.2921 33.8183 35.2921 32C35.2921 30.1818 33.8182 28.7079 32 28.7079C30.1818 28.7079 28.7078 30.1818 28.7078 32C28.7078 33.8183 30.1818 35.2922 32 35.2922Z" fill="#B7B9C8"/>
<path d="M45.4979 21.3333C46.5524 21.3333 47.4074 20.4489 47.4074 19.358C47.4074 18.2671 46.5524 17.3827 45.4979 17.3827C44.4433 17.3827 43.5883 18.2671 43.5883 19.358C43.5883 20.4489 44.4433 21.3333 45.4979 21.3333Z" fill="#B7B9C8"/>
<path d="M14.1563 28.0495C15.2109 28.0495 16.0658 27.1651 16.0658 26.0742C16.0658 24.9832 15.2109 24.0989 14.1563 24.0989C13.1017 24.0989 12.2468 24.9832 12.2468 26.0742C12.2468 27.1651 13.1017 28.0495 14.1563 28.0495Z" fill="#B7B9C8"/>
<path d="M28.1152 52.2798C29.1698 52.2798 30.0247 51.3954 30.0247 50.3045C30.0247 49.2136 29.1698 48.3292 28.1152 48.3292C27.0606 48.3292 26.2056 49.2136 26.2056 50.3045C26.2056 51.3954 27.0606 52.2798 28.1152 52.2798Z" fill="#B7B9C8"/>
</g>
<defs>
<clipPath id="clip0_2_990">
<rect width="64" height="64" fill="white"/>
</clipPath>
</defs>
</svg>
