<svg width="64" height="64" viewBox="0 0 64 64" fill="none" xmlns="http://www.w3.org/2000/svg">
<g clip-path="url(#clip0_2_986)">
<rect width="64" height="64" fill="#E84142"/>
<path d="M51.7365 10.9788H12.2209V46.8937H51.7365V10.9788Z" fill="white"/>
<path fill-rule="evenodd" clip-rule="evenodd" d="M63.9787 32.0001C63.9787 49.6498 49.6615 63.9575 32 63.9575C14.3386 63.9575 0.0212708 49.6498 0.0212708 32.0001C0.0212708 14.3504 14.3386 0.0426025 32 0.0426025C49.6615 0.0426025 63.9787 14.3504 63.9787 32.0001ZM22.9381 44.7175H16.732C15.4279 44.7175 14.7837 44.7175 14.3909 44.4664C13.9667 44.1915 13.7074 43.7362 13.676 43.2337C13.6524 42.7707 13.9745 42.2052 14.6187 41.0747L29.9425 14.0824C30.5946 12.9362 30.9245 12.3631 31.3409 12.1511C31.7886 11.9235 32.3229 11.9235 32.7707 12.1511C33.187 12.3631 33.517 12.9362 34.169 14.0824L37.3193 19.5779L37.3353 19.6059C38.0396 20.8356 38.3967 21.4592 38.5526 22.1136C38.7254 22.8281 38.7254 23.5817 38.5526 24.2961C38.3955 24.9556 38.042 25.5837 37.3271 26.8319L29.2779 41.0512L29.257 41.0876C28.5482 42.3274 28.1889 42.9558 27.691 43.4298C27.1489 43.9481 26.4969 44.3247 25.782 44.5371C25.1299 44.7175 24.3994 44.7175 22.9381 44.7175ZM38.6108 44.7175H47.5035C48.8154 44.7175 49.4754 44.7175 49.8685 44.4588C50.2926 44.1839 50.5596 43.7205 50.5834 43.2183C50.606 42.7703 50.2909 42.2269 49.6734 41.1621C49.6521 41.1258 49.6309 41.0889 49.6091 41.0514L45.1547 33.4362L45.104 33.3505C44.4781 32.2927 44.1621 31.7585 43.7563 31.552C43.3088 31.3243 42.782 31.3243 42.3345 31.552C41.9259 31.764 41.596 32.3214 40.944 33.4441L36.5054 41.0592L36.4902 41.0855C35.8404 42.2063 35.5157 42.7664 35.5391 43.226C35.5705 43.7286 35.8298 44.1915 36.254 44.4664C36.6389 44.7175 37.2988 44.7175 38.6108 44.7175Z" fill="#E84142"/>
</g>
<defs>
<clipPath id="clip0_2_986">
<rect width="64" height="64" fill="white"/>
</clipPath>
</defs>
</svg>
