<svg width="64" height="64" viewBox="0 0 64 64" fill="none" xmlns="http://www.w3.org/2000/svg">
<rect width="64" height="64" fill="#F3BA2F"/>
<path fill-rule="evenodd" clip-rule="evenodd" d="M32 64C49.6731 64 64 49.6731 64 32C64 14.3269 49.6731 0 32 0C14.3269 0 0 14.3269 0 32C0 49.6731 14.3269 64 32 64Z" fill="#F3BA2F"/>
<path d="M24.4144 29.3274L32 21.9377L39.5887 29.3334L44 25.0312L32 13.3334L20 25.0282L24.4144 29.3274Z" fill="white"/>
<path d="M13.3333 32.0014L17.3319 28L21.3333 32.0014L17.3319 36L13.3333 32.0014Z" fill="white"/>
<path d="M24.4138 34.6696L31.9985 42.0651L39.5862 34.6666L44 38.9644L32.0015 50.6666L20 38.9734L24.4138 34.6696Z" fill="white"/>
<path d="M42.6667 32L46.6653 28L50.6667 31.9972L46.6653 36L42.6667 32Z" fill="white"/>
<path d="M36 32.0055L32 28L29.042 30.96L28.7002 31.2993L28 32L32 36L36 32.0083V32.0055Z" fill="white"/>
</svg>
