<svg width="64" height="64" viewBox="0 0 64 64" fill="none" xmlns="http://www.w3.org/2000/svg">
<rect width="64" height="64" fill="#F7931A"/>
<path fill-rule="evenodd" clip-rule="evenodd" d="M32 64C49.6731 64 64 49.6731 64 32C64 14.3269 49.6731 0 32 0C14.3269 0 0 14.3269 0 32C0 49.6731 14.3269 64 32 64Z" fill="#F7931A"/>
<path d="M44.7875 28.6026C45.3316 24.9601 42.5582 23.002 38.7661 21.6958L39.9962 16.7616L36.9919 16.0131L35.7943 20.8172C35.0056 20.6205 34.1946 20.4349 33.3888 20.2509L34.5949 15.4151L31.5932 14.6666L30.3622 19.5991C29.7087 19.4502 29.0671 19.3031 28.4443 19.1483L28.4478 19.1329L24.3057 18.0986L23.5067 21.3065C23.5067 21.3065 25.7352 21.8172 25.6881 21.8489C26.9045 22.1526 27.1253 22.9575 27.0876 23.5957L25.6864 29.2168C25.7702 29.2382 25.8789 29.269 25.9986 29.3169L25.6821 29.2382L23.7172 37.1125C23.5683 37.482 23.1911 38.0364 22.3408 37.8259C22.3707 37.8696 20.1577 37.281 20.1577 37.281L18.6667 40.7199L22.576 41.6942C23.3032 41.8764 24.0157 42.0672 24.7163 42.2468L23.4734 47.2383L26.4734 47.9868L27.7052 43.0492C28.5239 43.2717 29.3195 43.477 30.0979 43.6703L28.8712 48.5848L31.8746 49.3333L33.1176 44.3521C38.2391 45.3213 42.0912 44.9303 43.7105 40.299C45.0168 36.5693 43.6463 34.4179 40.9517 33.0141C42.9141 32.5598 44.3923 31.269 44.7866 28.6026H44.7875ZM37.9243 38.2254C36.9953 41.9551 30.7164 39.9397 28.6796 39.4333L30.3289 32.8216C32.3648 33.3297 38.8927 34.3357 37.9252 38.2254H37.9243ZM38.8525 28.5487C38.0056 31.9414 32.7788 30.2177 31.0825 29.7951L32.5778 23.7984C34.2742 24.221 39.7353 25.0097 38.8525 28.5487Z" fill="white"/>
</svg>
