<svg width="64" height="64" viewBox="0 0 64 64" fill="none" xmlns="http://www.w3.org/2000/svg">
<rect width="64" height="64" fill="#F3BA2F"/>
<path fill-rule="evenodd" clip-rule="evenodd" d="M32 64C49.6731 64 64 49.6731 64 32C64 14.3269 49.6731 0 32 0C14.3269 0 0 14.3269 0 32C0 49.6731 14.3269 64 32 64Z" fill="#F3BA2F"/>
<path d="M31.3305 10.6666L36.4488 16.1088L23.5606 29.4902L18.4422 24.176L31.3305 10.6666Z" fill="white"/>
<path d="M39.105 18.6144L44.2244 24.0324L23.5617 45.3856L18.4422 40.0951L39.105 18.6144Z" fill="white"/>
<path d="M15.7822 26.562L20.8977 32.0647L15.7822 37.4378L10.6667 32.0647L15.7822 26.562Z" fill="white"/>
<path d="M46.8806 26.562L52 31.98L31.3372 53.3333L26.2178 48.0427L46.8806 26.562Z" fill="white"/>
</svg>
