<svg width="64" height="64" viewBox="0 0 64 64" fill="none" xmlns="http://www.w3.org/2000/svg">
<rect width="64" height="64" fill="black"/>
<path fill-rule="evenodd" clip-rule="evenodd" d="M32 64C49.6731 64 64 49.6731 64 32C64 14.3269 49.6731 0 32 0C14.3269 0 0 14.3269 0 32C0 49.6731 14.3269 64 32 64Z" fill="black"/>
<path fill-rule="evenodd" clip-rule="evenodd" d="M18.8371 42.4295C17.9043 41.8607 17.3333 40.8505 17.3333 39.7626V33.6888C17.3333 32.9677 17.923 32.3833 18.6468 32.3864C18.8777 32.3864 19.1054 32.4486 19.3051 32.5636L33.0608 40.5552C33.8657 41.0214 34.3618 41.8794 34.3618 42.8088V49.1001C34.3649 49.9642 33.6629 50.6667 32.7956 50.6667C32.5054 50.6667 32.2184 50.5859 31.9719 50.4367L18.8371 42.4295ZM39.3411 30.9006C40.1461 31.3669 40.639 32.2279 40.6421 33.1542V45.9233C40.6421 46.2994 40.4393 46.6476 40.1086 46.831L37.0979 48.5188C37.0605 48.5406 37.0199 48.5561 36.9762 48.5686V41.4784C36.9762 40.5614 36.4927 39.7097 35.7002 39.2372L23.6199 32.0383V24.0342C23.6199 23.3131 24.2096 22.7287 24.9334 22.7318C25.1643 22.7318 25.392 22.794 25.5917 22.909L39.3411 30.9006ZM45.3626 21.4698C46.1706 21.9361 46.6667 22.7971 46.6667 23.7265V42.3767C46.6635 42.759 46.4514 43.1103 46.1144 43.2937L43.2597 44.8292V31.8455C43.2597 30.9286 42.7762 30.08 41.9899 29.6075L29.6414 22.2283V14.6376C29.6414 14.4076 29.7038 14.1807 29.8161 13.9818C30.1811 13.3601 30.9829 13.1487 31.6069 13.5093L45.3626 21.4698Z" fill="#00D395"/>
</svg>
