<svg width="64" height="64" viewBox="0 0 64 64" fill="none" xmlns="http://www.w3.org/2000/svg">
<rect width="64" height="64" fill="#243163"/>
<path fill-rule="evenodd" clip-rule="evenodd" d="M32 64C49.6731 64 64 49.6731 64 32C64 14.3269 49.6731 0 32 0C14.3269 0 0 14.3269 0 32C0 49.6731 14.3269 64 32 64Z" fill="#243163"/>
<path d="M43.2531 13.3334H21.7712L19.276 24.3369H45.8872L43.2531 13.3334ZM25.5821 39.4525V32.1396L19.2078 28.0987L12 33.4621L21.8394 50.6667H25.7918L30.4336 46.278V44.1179L25.5821 39.4525Z" fill="white"/>
<path d="M39.5692 25.9692H25.7846L28.0603 32.0505L27.3721 38.8923H37.9868L37.2986 32.0505L39.5692 25.9692Z" fill="white"/>
<path d="M45.8255 27.9795L39.4901 32.1112V39.4634L34.6872 44.154V46.3257L39.3506 50.6667H43.2502L53.0667 33.4407L45.8255 27.9795Z" fill="white"/>
</svg>
