<svg width="64" height="64" viewBox="0 0 64 64" fill="none" xmlns="http://www.w3.org/2000/svg">
<rect width="64" height="64" fill="#F5AC37"/>
<path fill-rule="evenodd" clip-rule="evenodd" d="M32 64C49.6731 64 64 49.6731 64 32C64 14.3269 49.6731 0 32 0C14.3269 0 0 14.3269 0 32C0 49.6731 14.3269 64 32 64Z" fill="#F5AC37"/>
<path d="M33.0965 33.2851H43.5592C43.7823 33.2851 43.8876 33.2851 43.9037 32.9922C43.9892 31.9261 43.9892 30.8539 43.9037 29.7866C43.9037 29.5794 43.8008 29.4937 43.5766 29.4937H22.754C22.4963 29.4937 22.4269 29.5794 22.4269 29.8214V32.8892C22.4269 33.2851 22.4269 33.2851 22.8395 33.2851H33.0965ZM42.7353 25.9084C42.765 25.8302 42.765 25.7446 42.7353 25.6676C42.5605 25.2866 42.3536 24.923 42.1132 24.5817C41.7514 23.9984 41.3252 23.4611 40.8395 22.9783C40.6102 22.6867 40.3451 22.4248 40.0477 22.2027C38.5584 20.9331 36.7877 20.0346 34.8845 19.5829C33.9242 19.3669 32.9429 19.2639 31.9591 19.2726H22.7181C22.4604 19.2726 22.4257 19.3756 22.4257 19.6002V25.7185C22.4257 25.9766 22.4257 26.0461 22.7528 26.0461H42.6113C42.6113 26.0461 42.7836 26.0114 42.8183 25.9084H42.734H42.7353ZM42.7353 36.8704C42.4428 36.8381 42.1479 36.8381 41.8555 36.8704H22.7714C22.5137 36.8704 22.4269 36.8704 22.4269 37.2154V43.1972C22.4269 43.4727 22.4269 43.5422 22.7714 43.5422H31.5824C32.0037 43.5744 32.425 43.5447 32.8376 43.4566C34.1163 43.3647 35.3739 43.0867 36.5734 42.6288C37.0095 42.4774 37.4308 42.2801 37.8285 42.043H37.9487C40.0143 40.967 41.692 39.2768 42.7501 37.2018C42.7501 37.2018 42.8703 36.9411 42.7353 36.8729V36.8704ZM18.9687 46.6435V46.5405V42.5245V41.1631V37.1124C18.9687 36.8878 18.9687 36.8543 18.6936 36.8543H14.9591C14.7522 36.8543 14.6667 36.8543 14.6667 36.5788V33.3037H18.6589C18.882 33.3037 18.9687 33.3037 18.9687 33.0108V29.7705C18.9687 29.5632 18.9687 29.5123 18.6936 29.5123H14.9591C14.7522 29.5123 14.6667 29.5123 14.6667 29.2368V26.2038C14.6667 26.0139 14.6667 25.963 14.9417 25.963H18.6416C18.8993 25.963 18.9687 25.963 18.9687 25.6354V16.345C18.9687 16.0695 18.9687 16 19.3132 16H32.2193C33.156 16.0372 34.0866 16.1402 35.0072 16.3103C36.9042 16.6615 38.7269 17.3403 40.3934 18.3096C41.4987 18.9611 42.5159 19.7479 43.4217 20.6539C44.1032 21.3625 44.7178 22.1294 45.2629 22.946C45.8044 23.7738 46.2542 24.6587 46.6073 25.5832C46.6507 25.824 46.8812 25.9866 47.1215 25.9456H50.2019C50.5971 25.9456 50.5971 25.9456 50.6145 26.3254V29.1524C50.6145 29.4279 50.5116 29.4974 50.2353 29.4974H47.86C47.6197 29.4974 47.5503 29.4974 47.5676 29.8077C47.6618 30.8576 47.6618 31.9112 47.5676 32.9612C47.5676 33.254 47.5676 33.2888 47.896 33.2888H50.6132C50.7334 33.4439 50.6132 33.5991 50.6132 33.7554C50.6306 33.9552 50.6306 34.1575 50.6132 34.3573V36.4435C50.6132 36.7364 50.5277 36.8232 50.2688 36.8232H47.0162C46.7895 36.7798 46.5689 36.925 46.5169 37.1509C45.7425 39.1676 44.5034 40.9757 42.9025 42.4253C42.3177 42.9527 41.7031 43.4491 41.0613 43.907C40.3723 44.3042 39.702 44.7174 38.9957 45.0451C37.696 45.6308 36.333 46.0627 34.9341 46.337C33.6058 46.5753 32.2589 46.6832 30.9071 46.6646H18.9637V46.6472L18.9687 46.6435Z" fill="#FEFEFD"/>
</svg>
