<svg width="64" height="64" viewBox="0 0 64 64" fill="none" xmlns="http://www.w3.org/2000/svg">
<rect width="64" height="64" fill="#C2A633"/>
<path fill-rule="evenodd" clip-rule="evenodd" d="M32 64C49.6731 64 64 49.6731 64 32C64 14.3269 49.6731 0 32 0C14.3269 0 0 14.3269 0 32C0 49.6731 14.3269 64 32 64Z" fill="#C2A633"/>
<path d="M32.48 25.1801H29.6224V30.8139H34.1182V33.1727H29.6224V38.8061H32.62C33.3902 38.8061 38.9432 38.8931 38.9346 32.2517C38.926 25.6103 33.5488 25.1801 32.48 25.1801Z" fill="white"/>
<path d="M32 12C20.9542 12 12 20.9542 12 32C12 43.0458 20.9542 52 32 52C43.0458 52 52 43.0458 52 32C52 20.9542 43.0458 12 32 12ZM32.7858 42.802H25.5428V33.1728H22.9896V30.814H25.5426V21.1842H31.759C33.2296 21.1842 42.9702 20.8788 42.9702 32.1738C42.9702 43.6556 32.786 42.802 32.786 42.802H32.7858Z" fill="white"/>
</svg>
