<svg width="64" height="64" viewBox="0 0 64 64" fill="none" xmlns="http://www.w3.org/2000/svg">
<rect width="64" height="64" fill="#E6007A"/>
<path fill-rule="evenodd" clip-rule="evenodd" d="M32 64C49.6731 64 64 49.6731 64 32C64 14.3269 49.6731 0 32 0C14.3269 0 0 14.3269 0 32C0 49.6731 14.3269 64 32 64Z" fill="#E6007A"/>
<path d="M31.5343 21.1643C35.2524 21.1643 38.2665 19.4113 38.2665 17.2488C38.2665 15.0864 35.2524 13.3334 31.5343 13.3334C27.8161 13.3334 24.802 15.0864 24.802 17.2488C24.802 19.4113 27.8161 21.1643 31.5343 21.1643Z" fill="white"/>
<path d="M31.5343 50.6668C35.2524 50.6668 38.2665 48.9137 38.2665 46.7513C38.2665 44.5888 35.2524 42.8358 31.5343 42.8358C27.8161 42.8358 24.802 44.5888 24.802 46.7513C24.802 48.9137 27.8161 50.6668 31.5343 50.6668Z" fill="white"/>
<path d="M22.1529 26.5849C24.0119 23.365 23.9999 19.8777 22.1259 18.7957C20.252 17.7137 17.2258 19.4469 15.3667 22.6668C13.5076 25.8867 13.5197 29.374 15.3936 30.456C17.2676 31.538 20.2938 29.8048 22.1529 26.5849Z" fill="white"/>
<path d="M47.6977 41.3332C49.5568 38.1133 49.5458 34.6266 47.6731 33.5453C45.8004 32.4641 42.7752 34.1979 40.9161 37.4178C39.0571 40.6377 39.0681 44.1244 40.9408 45.2057C42.8135 46.2869 45.8387 44.5531 47.6977 41.3332Z" fill="white"/>
<path d="M22.1254 45.2048C23.9993 44.1228 24.0114 40.6355 22.1523 37.4156C20.2933 34.1957 17.267 32.4625 15.3931 33.5445C13.5191 34.6264 13.5071 38.1138 15.3661 41.3337C17.2252 44.5536 20.2514 46.2868 22.1254 45.2048Z" fill="white"/>
<path d="M47.6751 30.4568C49.5478 29.3756 49.5589 25.8889 47.6998 22.669C45.8407 19.4491 42.8156 17.7153 40.9429 18.7965C39.0702 19.8778 39.0591 23.3645 40.9182 26.5844C42.7773 29.8043 45.8025 31.5381 47.6751 30.4568Z" fill="white"/>
</svg>
