<svg width="64" height="64" viewBox="0 0 64 64" fill="none" xmlns="http://www.w3.org/2000/svg">
<rect width="64" height="64" fill="#2A5ADA"/>
<path fill-rule="evenodd" clip-rule="evenodd" d="M32 64C49.6731 64 64 49.6731 64 32C64 14.3269 49.6731 0 32 0C14.3269 0 0 14.3269 0 32C0 49.6731 14.3269 64 32 64Z" fill="#2A5ADA"/>
<path d="M32.1755 10.6666L28.1878 12.9596L17.3211 19.2403L13.3333 21.5333V43.2666L17.3211 45.5596L28.2875 51.8403L32.2752 54.1333L36.263 51.8403L47.03 45.5596L51.0177 43.2666V21.5333L47.03 19.2403L36.1633 12.9596L32.1755 10.6666ZM21.3089 38.6807V26.1192L32.1755 19.8385L43.0422 26.1192V38.6807L32.1755 44.9614L21.3089 38.6807Z" fill="white"/>
</svg>
