<svg width="64" height="64" viewBox="0 0 64 64" fill="none" xmlns="http://www.w3.org/2000/svg">
<rect width="64" height="64" fill="#172852"/>
<path fill-rule="evenodd" clip-rule="evenodd" d="M32 64C49.6731 64 64 49.6731 64 32C64 14.3269 49.6731 0 32 0C14.3269 0 0 14.3269 0 32C0 49.6731 14.3269 64 32 64Z" fill="#172852"/>
<path d="M26.592 16.9296C29.7982 15.7303 33.4069 15.7276 36.6733 16.7133C40.9254 18.033 44.5149 21.2419 46.3904 25.2695C46.9079 26.4167 47.4035 27.6132 47.4528 28.8891C45.0625 27.5037 42.4422 26.6056 39.8165 25.787C35.6164 24.2729 31.2192 23.2215 27.2436 21.1406C26.3182 20.5875 25.1381 20.0208 24.8862 18.8681C24.7849 17.8714 25.839 17.3156 26.592 16.9296Z" fill="#FFD83D"/>
<path d="M16.9132 26.6221C17.8413 24.1031 19.3637 21.7649 21.4308 20.0317C21.9565 24.355 23.7965 28.5332 26.8356 31.6764C30.4799 35.4631 35.6712 37.7876 40.9527 37.7C43.05 37.7657 45.1008 37.2811 47.1461 36.8896C45.1337 44.1617 37.1634 48.9888 29.779 47.8279C25.3215 47.2584 21.2063 44.6189 18.723 40.8925C15.922 36.7746 15.2156 31.3068 16.9132 26.6221Z" fill="#FFD83D"/>
<path d="M39.8165 25.787C42.4422 26.6056 45.0625 27.5037 47.4527 28.8891L47.6143 28.974C47.8361 30.6415 47.9976 32.3417 47.7019 34.0119C46.4999 33.5027 45.5252 32.6073 44.5067 31.8161C42.5462 30.1842 40.5448 28.3169 39.8165 25.787Z" fill="#FF6F03"/>
</svg>
