<svg width="64" height="64" viewBox="0 0 64 64" fill="none" xmlns="http://www.w3.org/2000/svg">
<rect width="64" height="64" fill="#8247E5"/>
<path fill-rule="evenodd" clip-rule="evenodd" d="M32 64C49.6731 64 64 49.6731 64 32C64 14.3269 49.6731 0 32 0C14.3269 0 0 14.3269 0 32C0 49.6731 14.3269 64 32 64Z" fill="#8247E5"/>
<g clip-path="url(#clip0_2_992)">
<path d="M40.8472 25.3373C40.2153 24.9711 39.4028 24.9711 38.6806 25.3373L33.625 28.3582L30.1944 30.2806L25.2292 33.3015C24.5972 33.6677 23.7847 33.6677 23.0625 33.3015L19.1806 30.9214C18.5486 30.5552 18.0972 29.8229 18.0972 28.999V24.4219C18.0972 23.6895 18.4583 22.9572 19.1806 22.4995L23.0625 20.2109C23.6944 19.8448 24.5069 19.8448 25.2292 20.2109L29.1111 22.591C29.7431 22.9572 30.1944 23.6895 30.1944 24.5134V27.5343L33.625 25.5204V22.4079C33.625 21.6756 33.2639 20.9433 32.5417 20.4856L25.3194 16.1831C24.6875 15.8169 23.875 15.8169 23.1528 16.1831L15.75 20.5771C15.0278 20.9433 14.6667 21.6756 14.6667 22.4079V31.0129C14.6667 31.7453 15.0278 32.4776 15.75 32.9353L23.0625 37.2378C23.6944 37.604 24.5069 37.604 25.2292 37.2378L30.1944 34.3084L33.625 32.2945L38.5903 29.3652C39.2222 28.999 40.0347 28.999 40.7569 29.3652L44.6389 31.6537C45.2708 32.0199 45.7222 32.7522 45.7222 33.5761V38.1532C45.7222 38.8856 45.3611 39.6179 44.6389 40.0756L40.8472 42.3642C40.2153 42.7303 39.4028 42.7303 38.6806 42.3642L34.7986 40.0756C34.1667 39.7094 33.7153 38.9771 33.7153 38.1532V35.2239L30.2847 37.2378V40.2587C30.2847 40.991 30.6458 41.7234 31.3681 42.1811L38.6806 46.4836C39.3125 46.8497 40.125 46.8497 40.8472 46.4836L48.1597 42.1811C48.7917 41.8149 49.2431 41.0826 49.2431 40.2587V31.5622C49.2431 30.8298 48.8819 30.0975 48.1597 29.6398L40.8472 25.3373Z" fill="white"/>
</g>
<defs>
<clipPath id="clip0_2_992">
<rect width="34.6667" height="30.6667" fill="white" transform="translate(14.6667 16)"/>
</clipPath>
</defs>
</svg>
