<svg width="64" height="64" viewBox="0 0 64 64" fill="none" xmlns="http://www.w3.org/2000/svg">
<rect width="64" height="64" fill="black"/>
<path fill-rule="evenodd" clip-rule="evenodd" d="M32 64C49.6731 64 64 49.6731 64 32C64 14.3269 49.6731 0 32 0C14.3269 0 0 14.3269 0 32C0 49.6731 14.3269 64 32 64Z" fill="black"/>
<path d="M41.6426 17.6356L34.9656 27.5556C34.5039 28.2311 35.3918 29.0489 36.0311 28.48L42.6016 22.7556C42.7791 22.6133 43.0277 22.72 43.0277 22.9689V40.8533C43.0277 41.1022 42.7081 41.2089 42.566 41.0311L22.677 17.2089C22.0377 16.4267 21.1143 16 20.0844 16H19.374C17.5272 16 16 17.5289 16 19.4133V44.5867C16 46.4711 17.5272 48 19.4095 48C20.5816 48 21.6826 47.3956 22.3219 46.3644L28.9989 36.4444C29.4606 35.7689 28.5727 34.9511 27.9334 35.52L21.3629 41.2089C21.1853 41.3511 20.9367 41.2444 20.9367 40.9956V23.1467C20.9367 22.8978 21.2564 22.7911 21.3984 22.9689L41.2875 46.7911C41.9267 47.5733 42.8857 48 43.8801 48H44.5905C46.4728 48 48 46.4711 48 44.5867V19.4133C48 17.5289 46.4728 16 44.5905 16C43.3829 16 42.2819 16.6044 41.6426 17.6356Z" fill="white"/>
</svg>
