<svg width="64" height="64" viewBox="0 0 64 64" fill="none" xmlns="http://www.w3.org/2000/svg">
<rect width="64" height="64" fill="#F00500"/>
<path fill-rule="evenodd" clip-rule="evenodd" d="M32 64C49.6731 64 64 49.6731 64 32C64 14.3269 49.6731 0 32 0C14.3269 0 0 14.3269 0 32C0 49.6731 14.3269 64 32 64Z" fill="#F00500"/>
<path d="M40.9289 15.5213C39.9004 16.5505 38.9582 17.6659 38.1206 18.8553L37.8558 18.769C36.3284 18.2699 34.7457 17.9617 33.1506 17.857C32.6702 17.82 30.8781 17.82 30.293 17.857C28.5255 17.9741 27.1706 18.239 25.6309 18.7752C25.5693 18.7999 25.5139 18.8183 25.4585 18.8368C24.5901 17.6536 23.6232 16.5443 22.5577 15.5274C27.6694 12.9083 33.6494 12.594 39.0013 14.6585C39.574 14.8742 40.1345 15.1269 40.6826 15.398L40.9289 15.5213Z" fill="#F00500"/>
<path d="M50.4625 38.8964C49.6865 41.1088 48.5225 43.161 47.0136 44.9482C46.1945 45.9096 45.2892 46.7908 44.3161 47.592C42.0375 49.4285 39.3769 50.7411 36.5378 51.4314C33.3969 52.1894 30.1205 52.1894 26.9796 51.4314C24.1343 50.7411 21.4799 49.4285 19.2012 47.592C18.2282 46.7908 17.3229 45.9096 16.5038 44.9482C12.1619 39.8146 10.844 32.7645 13.0549 26.4107C13.4737 25.2336 13.9972 24.0997 14.6254 23.0212C14.9148 22.5282 15.272 21.9735 15.4445 21.7455C16.0357 24.2907 16.7624 26.5278 17.0334 27.3351C17.0149 27.3782 16.9903 27.4275 16.9657 27.4707C15.5307 30.3795 14.7547 33.1835 14.57 36.1663C14.57 36.2033 14.5638 36.2464 14.5638 36.2834C14.5145 37.177 14.5392 37.6022 14.687 38.163C15.1489 39.9194 16.5715 41.8545 18.8009 43.7526C22.453 46.8586 27.4045 49.1018 31.1551 49.3607C35.0659 49.6257 40.8365 47.3393 44.6795 43.9991C45.2831 43.463 45.8496 42.896 46.3793 42.292C46.7611 41.8483 47.3277 41.0841 47.2846 41.0841C47.2723 41.0841 47.2846 41.0718 47.3092 41.0595C47.3277 41.0472 47.3462 41.0287 47.3339 41.0163C47.3277 41.0102 47.34 40.9917 47.3585 40.9855C47.377 40.9794 47.3893 40.967 47.3831 40.9547C47.377 40.9424 47.3832 40.9301 47.4078 40.9239C47.4263 40.9177 47.4324 40.8993 47.4263 40.8869C47.4201 40.8746 47.4263 40.8623 47.4386 40.8623C47.4509 40.8623 47.4632 40.8438 47.4632 40.8315C47.4632 40.8191 47.4755 40.8007 47.4878 40.8007C47.5002 40.8007 47.5125 40.7883 47.5125 40.776C47.531 40.7267 47.5618 40.6774 47.5925 40.6343C47.6849 40.4925 48.0544 39.8331 48.1037 39.7222C48.4548 38.9272 48.6765 38.2185 48.7812 37.5098C48.8304 37.1708 48.8612 36.5484 48.8366 36.4005C48.8304 36.3758 48.8304 36.3327 48.8243 36.2649C48.812 36.1416 48.8058 35.9568 48.7935 35.7719C48.7812 35.4945 48.7565 35.1063 48.738 34.9152C48.4732 32.1174 47.7588 29.831 46.4039 27.409C46.3485 27.3166 46.2992 27.2242 46.2684 27.1502C46.2561 27.1317 46.25 27.1132 46.2438 27.1009C46.4347 26.5278 47.2169 24.1305 47.8389 21.3881L47.8512 21.4004L47.9436 21.5236C48.1037 21.7393 48.5287 22.3803 48.7196 22.6884C49.5879 24.1058 50.2654 25.628 50.7458 27.218C51.8605 31.0451 51.7681 35.1248 50.4625 38.8964Z" fill="#F00500"/>
<path d="M42.4686 31.532C42.4501 31.6306 42.1607 31.9264 41.8712 32.1421C41.0213 32.7646 39.5001 33.3439 37.9543 33.6212C37.0736 33.7814 36.193 33.8061 35.9281 33.6767C35.7557 33.5904 35.7311 33.5226 35.7926 33.3007C35.922 32.8385 36.3408 32.3332 36.9936 31.8587C37.3261 31.6183 38.6749 30.7987 39.3031 30.4536C40.3377 29.8866 41.1753 29.5476 41.7419 29.4675C41.9205 29.4429 42.136 29.4367 42.2038 29.4675C42.3146 29.5107 42.4378 29.8373 42.4871 30.2317C42.5117 30.4412 42.4994 31.3656 42.4686 31.532Z" fill="black"/>
<path d="M27.9589 33.5719C27.9219 33.6458 27.7372 33.7259 27.5278 33.7567C27.3184 33.7876 26.6779 33.7691 26.3145 33.7259C25.0089 33.5534 23.6232 33.1528 22.6132 32.6598C22.0466 32.3825 21.6401 32.1051 21.3383 31.8032L21.1659 31.6244L21.1474 31.3903C21.1166 30.9835 21.1228 30.3426 21.1721 30.1146C21.2028 29.9235 21.2706 29.7386 21.363 29.5722C21.4122 29.5106 21.4122 29.5106 21.6339 29.5106C21.9049 29.5106 22.1328 29.5538 22.5023 29.6709C23.2598 29.905 24.3869 30.472 25.7602 31.2978C26.8934 31.9757 27.3184 32.3085 27.6448 32.7645C27.8665 33.048 28.0143 33.4486 27.9589 33.5719Z" fill="black"/>
<path d="M36.6795 42.1503C36.6795 42.1688 36.6056 42.4646 36.5132 42.8159C36.4208 43.1672 36.3469 43.4507 36.3469 43.463C36.2792 43.4691 36.2176 43.4753 36.1499 43.4691H35.9528L35.6818 44.1101C35.534 44.4613 35.3985 44.788 35.38 44.8373L35.3431 44.9236L35.2137 44.714L35.0844 44.5045V42.7974L35.0351 42.8097C34.9305 42.8344 34.1853 42.933 33.8588 42.9638C32.5101 43.0994 31.1552 43.0686 29.8126 42.8775C29.5971 42.8467 29.4123 42.8221 29.4061 42.8282C29.4 42.8344 29.4062 43.2288 29.4185 43.7157L29.4369 44.5908L29.3322 44.751C29.2768 44.8373 29.2214 44.9112 29.2214 44.9174C29.2029 44.9359 29.1413 44.8373 28.9997 44.5538C28.8457 44.258 28.7349 43.9437 28.6548 43.6171L28.6117 43.4383L28.4208 43.4507L28.2298 43.4691L28.1806 43.2411C28.1559 43.1179 28.1252 42.9268 28.1128 42.8221L28.0944 42.6249L27.9342 42.4831C27.8419 42.403 27.7495 42.3229 27.731 42.3106C27.7002 42.2859 27.6879 42.2428 27.6879 42.2058V42.1318L28.4577 42.138L29.2275 42.1442L29.2522 42.2243L29.2768 42.3044L29.5416 42.3167C29.6894 42.3229 30.1575 42.3352 30.5763 42.3475L31.3461 42.366L31.5432 42.0579L31.7464 41.7497H32.0051L31.9989 41.1088L31.9928 40.4679L31.6541 40.32C30.564 39.8393 29.9235 39.2908 29.6833 38.6252C29.634 38.4897 29.634 38.4404 29.6217 37.8241C29.6155 37.214 29.6155 37.1585 29.6587 37.0229C29.7449 36.7148 29.9851 36.4745 30.293 36.3943C30.3977 36.3635 30.6748 36.3635 32.1283 36.3635L33.8404 36.3697L34.0313 36.4621C34.2592 36.5731 34.3639 36.6532 34.4932 36.8257C34.641 37.0229 34.6841 37.177 34.6841 37.5529C34.6841 38.0891 34.6472 38.5513 34.5917 38.7362C34.5117 38.9888 34.3885 39.2292 34.2345 39.4449C33.9266 39.8393 33.3662 40.2337 32.855 40.4124L32.7072 40.4679L32.7133 41.115L32.7195 41.7621L32.855 41.7744L32.9905 41.7867L33.1752 42.064L33.3538 42.3414H34.1791C34.6348 42.3414 35.0351 42.3475 35.0721 42.3537C35.1337 42.366 35.146 42.3599 35.2076 42.2551L35.2815 42.1442H35.9897C36.5194 42.1195 36.6795 42.1318 36.6795 42.1503Z" fill="black"/>
<path d="M33.4278 43.9191C33.3108 43.9869 33.2307 44.0177 33.2122 44.0054C33.1938 43.9992 33.1075 43.9253 33.0152 43.8575L32.8489 43.7219L32.6764 43.9068C32.3008 44.3135 32.2884 44.332 32.1776 44.3382C32.0051 44.3567 31.9682 44.3258 31.7588 44.0115C31.6479 43.8513 31.5617 43.7157 31.5617 43.7157C31.5617 43.7157 31.4817 43.7034 31.3893 43.6972L31.2168 43.6788L31.1368 43.8451L31.0567 44.0115L30.9151 43.9684C30.8042 43.9314 30.6934 43.8883 30.5887 43.839L30.4039 43.7465V43.3953L32.0421 43.4014L33.6803 43.4076L33.6864 43.574C33.6926 43.7712 33.6988 43.765 33.4278 43.9191Z" fill="black"/>
<path d="M48.8243 36.4006C48.8181 36.3759 48.8181 36.3328 48.8119 36.265C47.3339 36.1047 43.1152 36.0061 39.1983 39.2416C39.1983 39.2416 37.9358 33.4486 32.0235 33.4486C26.1112 33.4486 23.9188 39.2416 23.9188 39.2416C20.6054 35.6734 16.1712 35.9322 14.57 36.1664C14.57 36.2033 14.5638 36.2465 14.5638 36.2835C14.5145 37.1771 14.5392 37.6023 14.687 38.1631C15.1489 39.9195 16.5715 41.8546 18.8009 43.7527C22.453 46.8587 27.4045 49.1019 31.1551 49.3608C35.0659 49.6258 40.8365 47.3394 44.6795 43.9992C45.2831 43.463 45.8496 42.8961 46.3793 42.2921C46.7611 41.8484 47.3277 41.0842 47.2846 41.0842C47.2723 41.0842 47.2846 41.0719 47.3092 41.0596C47.3277 41.0472 47.3462 41.0288 47.3339 41.0164C47.3277 41.0103 47.34 40.9918 47.3585 40.9856C47.377 40.9795 47.3893 40.9671 47.3831 40.9548C47.377 40.9425 47.3831 40.9302 47.4078 40.924C47.4263 40.9178 47.4324 40.8993 47.4263 40.887C47.4201 40.8747 47.4263 40.8624 47.4386 40.8624C47.4509 40.8624 47.4632 40.8439 47.4632 40.8316C47.4632 40.8192 47.4755 40.8007 47.4878 40.8007C47.5002 40.8007 47.5125 40.7884 47.5125 40.7761C47.531 40.7268 47.5617 40.6775 47.5925 40.6343C47.6849 40.4926 48.0544 39.8332 48.1037 39.7223C48.4547 38.9273 48.6765 38.2186 48.7812 37.5098C48.8181 37.1709 48.8489 36.5485 48.8243 36.4006ZM33.4277 43.9191C33.3107 43.9869 33.2306 44.0177 33.2121 44.0054C33.1937 43.9992 33.1074 43.9252 33.0151 43.8575L32.8488 43.7219L32.6763 43.9068C32.3007 44.3135 32.2883 44.332 32.1775 44.3381C32.005 44.3566 31.9681 44.3258 31.7587 44.0115C31.6478 43.8513 31.5616 43.7157 31.5616 43.7157C31.5616 43.7157 31.4816 43.7034 31.3892 43.6972L31.2167 43.6787L31.1367 43.8451L31.0566 44.0115L30.915 43.9684C30.8041 43.9314 30.6933 43.8883 30.5886 43.839L30.4038 43.7465V43.3953L32.042 43.4014L33.6802 43.4076L33.6863 43.574C33.6925 43.7712 33.6987 43.765 33.4277 43.9191ZM36.507 42.8098C36.4146 43.1611 36.3407 43.4446 36.3407 43.4569C36.273 43.463 36.2114 43.4692 36.1436 43.463H35.9466L35.6817 44.1101C35.5339 44.4614 35.3984 44.788 35.38 44.8373L35.343 44.9236L35.2137 44.7141L35.0844 44.5045V42.7975L35.0351 42.8098C34.9304 42.8344 34.1852 42.933 33.8588 42.9639C32.51 43.0994 31.1551 43.0686 29.8126 42.8776C29.597 42.8468 29.4123 42.8221 29.4061 42.8283C29.3999 42.8344 29.4061 43.2289 29.4184 43.7157L29.4369 44.5908L29.3322 44.751C29.2768 44.8373 29.2213 44.9113 29.2213 44.9174C29.2029 44.9359 29.1413 44.8373 28.9996 44.5538C28.8457 44.258 28.7348 43.9437 28.6547 43.6171L28.6116 43.4384L28.4207 43.4507L28.2298 43.4692L28.1805 43.2412C28.1559 43.1179 28.1251 42.9269 28.1128 42.8221L28.0943 42.6249L27.9342 42.4832C27.8418 42.403 27.7494 42.3229 27.731 42.3106C27.7002 42.286 27.6878 42.2428 27.6878 42.2058V42.1319L28.4577 42.1381L29.2275 42.1442L29.2521 42.2243L29.2768 42.3044L29.5416 42.3168C29.6894 42.3229 30.1574 42.3353 30.5762 42.3476L31.3461 42.3661L31.5431 42.0579L31.7464 41.7498H32.005L31.9989 41.1089L31.9927 40.468L31.654 40.32C30.5639 39.8394 29.9234 39.2909 29.6832 38.6253C29.634 38.4897 29.634 38.4404 29.6216 37.8241C29.6155 37.214 29.6155 37.1586 29.6586 37.023C29.7448 36.7149 29.985 36.4745 30.2929 36.3944C30.3976 36.3636 30.6748 36.3636 32.1282 36.3636L33.8403 36.3697L34.0312 36.4622C34.2591 36.5731 34.3638 36.6532 34.4931 36.8258C34.6409 37.023 34.684 37.1771 34.684 37.553C34.684 38.0891 34.6471 38.5513 34.5917 38.7362C34.5116 38.9889 34.3884 39.2292 34.2345 39.4449C33.9265 39.8394 33.3661 40.2338 32.8549 40.4125L32.7071 40.468L32.7133 41.115L32.7194 41.7621L32.8549 41.7745L32.9904 41.7868L33.1752 42.0641L33.3538 42.3414H34.179C34.6348 42.3414 35.0351 42.3476 35.072 42.3537C35.1336 42.3661 35.1459 42.3599 35.2075 42.2551L35.2814 42.1442H35.9897C36.5378 42.1442 36.6979 42.1504 36.6979 42.1689C36.6794 42.1627 36.5994 42.4647 36.507 42.8098Z" fill="white"/>
<path d="M48.7751 35.7719C48.7628 35.4946 48.7382 35.1064 48.7197 34.9153C48.4549 32.1174 47.7405 29.8311 46.3856 27.4091C46.3301 27.3167 46.2809 27.2242 46.2501 27.1503C46.2377 27.1318 46.2316 27.1133 46.2254 27.101C46.4163 26.5278 47.1985 24.1305 47.8205 21.3881C48.6642 17.6658 49.2001 13.315 47.5619 12.0085C47.5619 12.0085 44.7289 11.7989 40.9352 15.5212C39.9067 16.5504 38.9644 17.6659 38.1268 18.8553L37.862 18.769C36.3347 18.2698 34.7519 17.9617 33.1568 17.8569C32.6764 17.8199 30.8843 17.8199 30.2992 17.8569C28.5317 17.974 27.1768 18.239 25.6371 18.7751C25.5755 18.7998 25.5201 18.8183 25.4647 18.8368C24.5963 17.6535 23.6294 16.5442 22.564 15.5274C18.6163 11.7866 15.6786 12.0023 15.6786 12.0023C13.9419 13.3519 14.5331 17.9 15.4323 21.7456C16.0235 24.2908 16.7502 26.5278 17.0212 27.3352C17.0027 27.3783 16.9781 27.4276 16.9534 27.4707C15.5185 30.3796 14.7425 33.1836 14.5577 36.1663C16.1651 35.9322 20.5932 35.6672 23.9127 39.2415C23.9127 39.2415 26.1052 33.4486 32.0175 33.4486C37.9298 33.4486 39.1923 39.2415 39.1923 39.2415C43.1092 36.0061 47.3278 36.1109 48.8059 36.265C48.7997 36.1417 48.7874 35.9568 48.7751 35.7719ZM18.1852 25.0118C18.1852 25.0118 15.8818 19.2497 16.4731 15.9588C16.5716 15.4041 16.7564 14.9173 17.0458 14.5475C17.0458 14.5475 19.6571 14.8063 23.8696 19.49C23.8696 19.49 23.069 19.8783 21.9974 20.7041C21.9974 20.7041 21.9912 20.7102 21.985 20.7102C20.8211 21.6038 19.3307 23.0213 18.1852 25.0118ZM27.9589 33.5718C27.922 33.6458 27.7372 33.7259 27.5278 33.7567C27.3184 33.7875 26.6779 33.769 26.3146 33.7259C25.0089 33.5534 23.6233 33.1528 22.6132 32.6598C22.0466 32.3824 21.6402 32.1051 21.3384 31.8031L21.166 31.6244L21.1475 31.3902C21.1167 30.9835 21.1228 30.3426 21.1721 30.1146C21.2029 29.9235 21.2706 29.7386 21.363 29.5722C21.4123 29.5106 21.4123 29.5106 21.634 29.5106C21.905 29.5106 22.1329 29.5537 22.5024 29.6708C23.2599 29.905 24.3869 30.472 25.7603 31.2978C26.8935 31.9757 27.3184 32.3085 27.6448 32.7645C27.8665 33.048 28.0144 33.4486 27.9589 33.5718ZM42.4687 31.532C42.4502 31.6306 42.1607 31.9264 41.8713 32.1421C41.0214 32.7645 39.5002 33.3438 37.9544 33.6211C37.0737 33.7814 36.193 33.806 35.9282 33.6766C35.7558 33.5903 35.7311 33.5225 35.7927 33.3007C35.922 32.8385 36.3408 32.3331 36.9936 31.8586C37.3262 31.6183 38.6749 30.7986 39.3031 30.4535C40.3378 29.8865 41.1754 29.5476 41.7419 29.4675C41.9205 29.4428 42.1361 29.4367 42.2038 29.4675C42.3147 29.5106 42.4379 29.8372 42.4871 30.2316C42.5118 30.4412 42.4995 31.3656 42.4687 31.532ZM41.4463 20.7041L41.434 20.6979C40.3994 19.8721 39.6234 19.4839 39.6234 19.4839C43.6942 14.8002 46.2131 14.5413 46.2131 14.5413C46.4903 14.9173 46.6689 15.398 46.7674 15.9526C47.3401 19.2435 45.1169 25.0118 45.1169 25.0118C44.1869 23.354 42.9367 21.8873 41.4463 20.7041Z" fill="#FFA409"/>
<path d="M46.7734 15.9526C46.293 15.891 44.0205 15.8787 41.4462 20.7041L41.4338 20.6979C40.3992 19.8721 39.6232 19.4839 39.6232 19.4839C43.6941 14.8002 46.2129 14.5414 46.2129 14.5414C46.4962 14.9173 46.6748 15.398 46.7734 15.9526Z" fill="#FF9300"/>
<path d="M45.1228 25.0119C44.1867 23.3479 42.9427 21.8874 41.4461 20.7041C44.0204 15.8787 46.2868 15.891 46.7733 15.9527C47.3461 19.2497 45.1228 25.0119 45.1228 25.0119Z" fill="#FF8300"/>
<path d="M46.8658 15.9712C46.835 15.9651 46.8042 15.9589 46.7734 15.9528L46.8658 15.9712Z" fill="#FF8300"/>
<path d="M23.8695 19.484C23.8695 19.484 23.0689 19.8723 21.9973 20.6981C21.9973 20.6981 21.9912 20.7042 21.985 20.7042C19.3183 15.8727 16.9719 15.8911 16.4669 15.9528C16.5654 15.3981 16.7502 14.9113 17.0396 14.5415C17.0458 14.5415 19.657 14.8003 23.8695 19.484Z" fill="#FF9300"/>
<path d="M21.9913 20.7041C20.8212 21.6039 19.3308 23.0152 18.1853 25.0119C18.1853 25.0119 15.8819 19.2497 16.4732 15.9527C16.972 15.891 19.3246 15.8787 21.9913 20.7041Z" fill="#FF8300"/>
<path d="M16.4731 15.9528C16.4423 15.9589 16.4054 15.9651 16.3746 15.9712L16.4731 15.9528Z" fill="#FF8300"/>
<path d="M38.8905 28.2102C38.8905 28.2102 36.9197 28.3335 37.1661 26.7928C37.4124 25.2521 38.9521 25.0673 39.3832 25.1289C39.8143 25.1905 41.5387 25.8068 41.2308 27.101C40.9228 28.3951 40.4917 28.1486 40.2454 28.2102C39.9991 28.2719 38.8905 28.2102 38.8905 28.2102Z" fill="white"/>
<path d="M24.3561 28.2102C24.3561 28.2102 22.3853 28.3335 22.6317 26.7928C22.878 25.2521 24.4177 25.0673 24.8488 25.1289C25.2799 25.1905 27.0043 25.8068 26.6964 27.101C26.3884 28.3951 25.9573 28.1486 25.711 28.2102C25.4646 28.2719 24.3561 28.2102 24.3561 28.2102Z" fill="white"/>
</svg>
