<svg width="64" height="64" viewBox="0 0 64 64" fill="none" xmlns="http://www.w3.org/2000/svg">
<rect width="64" height="64" fill="black"/>
<path fill-rule="evenodd" clip-rule="evenodd" d="M32 64C49.6731 64 64 49.6731 64 32C64 14.3269 49.6731 0 32 0C14.3269 0 0 14.3269 0 32C0 49.6731 14.3269 64 32 64Z" fill="black"/>
<path d="M19.3992 39.721C19.6279 39.4909 19.9385 39.3613 20.2626 39.3607H50.0553C50.1761 39.3605 50.2942 39.3963 50.3947 39.4636C50.4952 39.5308 50.5735 39.6264 50.6197 39.7383C50.6659 39.8502 50.6779 39.9733 50.6542 40.0921C50.6306 40.2109 50.5722 40.3199 50.4866 40.4054L44.6016 46.3056C44.4882 46.4192 44.3535 46.5093 44.2054 46.5708C44.0573 46.6322 43.8985 46.6638 43.7382 46.6637H13.9454C13.8255 46.6629 13.7084 46.6268 13.6088 46.5597C13.5092 46.4927 13.4315 46.3977 13.3854 46.2867C13.3394 46.1756 13.3269 46.0535 13.3497 45.9354C13.3724 45.8173 13.4293 45.7085 13.5134 45.6227L19.3992 39.721Z" fill="url(#paint0_linear_2_995)"/>
<path d="M19.3992 17.6907C19.6304 17.4646 19.9396 17.3367 20.2626 17.3334H50.0553C50.1761 17.3332 50.2942 17.369 50.3947 17.4362C50.4952 17.5034 50.5735 17.5991 50.6197 17.711C50.6659 17.8229 50.6779 17.946 50.6542 18.0648C50.6306 18.1835 50.5722 18.2925 50.4866 18.378L44.6016 24.2783C44.4882 24.3919 44.3535 24.482 44.2054 24.5434C44.0573 24.6048 43.8985 24.6364 43.7382 24.6363H13.9454C13.8255 24.6356 13.7084 24.5994 13.6088 24.5324C13.5092 24.4653 13.4315 24.3704 13.3854 24.2593C13.3394 24.1483 13.3269 24.0261 13.3497 23.908C13.3724 23.7899 13.4293 23.6812 13.5134 23.5954L19.3992 17.6907Z" fill="url(#paint1_linear_2_995)"/>
<path d="M44.6016 28.6359C44.4882 28.5223 44.3535 28.4322 44.2054 28.3707C44.0573 28.3093 43.8985 28.2777 43.7382 28.2778H13.9454C13.8247 28.2779 13.7067 28.3138 13.6064 28.381C13.506 28.4482 13.4278 28.5437 13.3815 28.6555C13.3353 28.7673 13.3231 28.8903 13.3466 29.009C13.3701 29.1277 13.4281 29.2368 13.5134 29.3225L19.3992 35.2227C19.5125 35.3364 19.6472 35.4265 19.7953 35.4879C19.9435 35.5494 20.1022 35.5809 20.2626 35.5808H50.0553C50.1761 35.5809 50.2942 35.5452 50.3947 35.4779C50.4952 35.4107 50.5735 35.3151 50.6197 35.2032C50.6659 35.0913 50.6779 34.9681 50.6542 34.8494C50.6306 34.7306 50.5722 34.6216 50.4866 34.5361L44.6016 28.6359Z" fill="url(#paint2_linear_2_995)"/>
<defs>
<linearGradient id="paint0_linear_2_995" x1="47.2094" y1="13.8089" x2="26.5063" y2="53.36" gradientUnits="userSpaceOnUse">
<stop stop-color="#00FFA3"/>
<stop offset="1" stop-color="#DC1FFF"/>
</linearGradient>
<linearGradient id="paint1_linear_2_995" x1="12716.3" y1="1047.78" x2="12211.3" y2="5991.16" gradientUnits="userSpaceOnUse">
<stop stop-color="#00FFA3"/>
<stop offset="1" stop-color="#DC1FFF"/>
</linearGradient>
<linearGradient id="paint2_linear_2_995" x1="14992.8" y1="1291.1" x2="14487.9" y2="6234.49" gradientUnits="userSpaceOnUse">
<stop stop-color="#00FFA3"/>
<stop offset="1" stop-color="#DC1FFF"/>
</linearGradient>
</defs>
</svg>
