<svg width="64" height="64" viewBox="0 0 64 64" fill="none" xmlns="http://www.w3.org/2000/svg">
<rect width="64" height="64" fill="#FF060A"/>
<path fill-rule="evenodd" clip-rule="evenodd" d="M32 64C49.6731 64 64 49.6731 64 32C64 14.3269 49.6731 0 32 0C14.3269 0 0 14.3269 0 32C0 49.6731 14.3269 64 32 64Z" fill="#FF060A"/>
<g clip-path="url(#clip0_2_982)">
<path d="M49.2375 27.2467C47.4875 25.6308 45.0667 23.1633 43.095 21.4133L42.9783 21.3317C42.7842 21.1758 42.5654 21.0535 42.3308 20.97C37.5767 20.0833 15.4508 15.9475 15.0192 16C14.8982 16.0169 14.7826 16.0608 14.6808 16.1283L14.57 16.2158C14.4335 16.3544 14.3299 16.5219 14.2667 16.7058L14.2375 16.7817V17.1958V17.26C16.7283 24.1958 26.5633 46.9167 28.5 52.2483C28.6167 52.61 28.8383 53.2983 29.2525 53.3333H29.3458C29.5675 53.3333 30.5125 52.085 30.5125 52.085C30.5125 52.085 47.4058 31.5983 49.115 29.4167C49.3362 29.1479 49.5316 28.8589 49.6983 28.5533C49.7409 28.3143 49.7208 28.0683 49.6401 27.8393C49.5593 27.6103 49.4206 27.4061 49.2375 27.2467ZM34.8467 29.6325L42.0567 23.6533L46.2858 27.55L34.8467 29.6325ZM32.0467 29.2417L19.6333 19.0683L39.7175 22.7725L32.0467 29.2417ZM33.1667 31.9075L45.8717 29.86L31.3467 47.36L33.1667 31.9075ZM17.9475 20.0833L31.0083 31.1667L29.1183 47.3717L17.9475 20.0833Z" fill="white"/>
</g>
<defs>
<clipPath id="clip0_2_982">
<rect width="37.3333" height="37.3333" fill="white" transform="translate(13.3333 16)"/>
</clipPath>
</defs>
</svg>
