<svg width="64" height="64" viewBox="0 0 64 64" fill="none" xmlns="http://www.w3.org/2000/svg">
<g clip-path="url(#clip0_2_973)">
<rect width="64" height="64" fill="#FFE8F3"/>
<path d="M32 0C49.6711 0 64 14.3289 64 32C64 49.6711 49.6711 64 32 64C14.3289 64 0 49.68 0 32C0 14.32 14.3289 0 32 0Z" fill="#FFE8F3"/>
<g clip-path="url(#clip1_2_973)">
<path d="M27.1634 18.3158C26.6809 18.2457 26.6579 18.2223 26.8877 18.1989C27.3242 18.1287 28.3351 18.2223 29.0473 18.386C30.7015 18.7837 32.1949 19.8129 33.7801 21.6141L34.1937 22.1053L34.791 22.0117C37.3412 21.5907 39.9604 21.9182 42.143 22.9474C42.7403 23.2281 43.6823 23.7895 43.7972 23.9299C43.8431 23.9766 43.9121 24.2807 43.958 24.5848C44.1188 25.6842 44.0499 26.503 43.7053 27.1345C43.5215 27.4854 43.5215 27.579 43.6364 27.8831C43.7283 28.117 44.0039 28.2807 44.2567 28.2807C44.8081 28.2807 45.3824 27.3918 45.6581 26.1521L45.773 25.6609L45.9798 25.8948C47.1515 27.2281 48.0705 29.0761 48.2083 30.386L48.2543 30.7369L48.0475 30.4328C47.7029 29.8948 47.3813 29.5439 46.9447 29.2398C46.1636 28.7018 45.3365 28.538 43.1539 28.4211C41.178 28.3041 40.0523 28.1404 38.9495 27.7661C37.0655 27.1345 36.1006 26.3158 33.872 23.2983C32.8841 21.9649 32.2638 21.2398 31.6435 20.6316C30.288 19.2983 28.9324 18.5965 27.1634 18.3158Z" fill="#FF007A"/>
<path d="M44.2797 21.2866C44.3256 20.3977 44.4405 19.8129 44.6932 19.2749C44.7851 19.0643 44.877 18.8772 44.9 18.8772C44.923 18.8772 44.877 19.0409 44.8081 19.2281C44.6243 19.7427 44.6013 20.4678 44.7162 21.2866C44.877 22.3392 44.9459 22.4795 46.0487 23.6257C46.5542 24.1637 47.1515 24.8421 47.3813 25.1228L47.7718 25.6374L47.3813 25.2632C46.8988 24.7953 45.796 23.9064 45.5433 23.7895C45.3825 23.6959 45.3595 23.6959 45.2446 23.8129C45.1527 23.9064 45.1297 24.0468 45.1297 24.7252C45.1068 25.7778 44.9689 26.4328 44.6243 27.1111C44.4405 27.462 44.4175 27.3918 44.5783 26.9942C44.6932 26.6901 44.7162 26.5497 44.7162 25.5439C44.7162 23.5088 44.4864 23.0175 43.085 22.1988C42.7404 21.9883 42.143 21.6842 41.7984 21.5205C41.4308 21.3567 41.1551 21.2164 41.1781 21.2164C41.224 21.1696 42.5795 21.5673 43.1079 21.8012C43.9121 22.1287 44.0499 22.1521 44.1418 22.1287C44.2107 22.0585 44.2567 21.8713 44.2797 21.2866Z" fill="#FF007A"/>
<path d="M28.1054 24.7719C27.1404 23.4152 26.5201 21.3099 26.6579 19.7427L26.7039 19.2515L26.9336 19.2982C27.3472 19.3684 28.0594 19.6491 28.404 19.8597C29.323 20.4211 29.7366 21.193 30.1271 23.1111C30.242 23.6725 30.4028 24.3275 30.4718 24.538C30.5866 24.8889 31.0232 25.7076 31.3908 26.2222C31.6435 26.5965 31.4827 26.7836 30.9083 26.7368C30.0353 26.6433 28.8635 25.8246 28.1054 24.7719Z" fill="#FF007A"/>
<path d="M43.1079 34.9474C38.5589 33.076 36.9507 31.462 36.9507 28.7251C36.9507 28.3275 36.9737 28 36.9737 28C36.9966 28 37.1575 28.1404 37.3642 28.3041C38.2832 29.0526 39.3171 29.3801 42.1889 29.8012C43.8661 30.0585 44.8311 30.2456 45.7041 30.5497C48.4841 31.4854 50.2072 33.4035 50.6207 36C50.7356 36.7485 50.6667 38.1754 50.4829 38.924C50.322 39.5088 49.8625 40.5848 49.7477 40.6082C49.7247 40.6082 49.6787 40.4912 49.6787 40.3041C49.6328 39.3216 49.1503 38.386 48.3462 37.6608C47.3813 36.8187 46.1406 36.1871 43.1079 34.9474Z" fill="#FF007A"/>
<path d="M39.8915 35.7193C39.8455 35.3684 39.7306 34.924 39.6617 34.7369L39.5468 34.386L39.7536 34.6433C40.0523 34.9942 40.282 35.4152 40.4888 36C40.6496 36.4445 40.6496 36.5848 40.6496 37.31C40.6496 38.0117 40.6266 38.1755 40.4888 38.5731C40.2591 39.2047 39.9834 39.6491 39.5239 40.1404C38.6968 41.0059 37.6169 41.4737 36.0776 41.6842C35.8019 41.7076 35.0208 41.7778 34.3315 41.8246C32.6084 41.9182 31.4597 42.1053 30.4258 42.4796C30.288 42.5263 30.1501 42.5731 30.1271 42.5497C30.0812 42.5029 30.7934 42.0819 31.3678 41.8012C32.1719 41.4035 32.999 41.193 34.814 40.8655C35.71 40.7252 36.629 40.538 36.8588 40.4445C39.1333 39.7193 40.2591 37.9182 39.8915 35.7193Z" fill="#FF007A"/>
<path d="M41.9822 39.4854C41.3848 38.1521 41.247 36.8889 41.5686 35.696C41.6146 35.579 41.6605 35.462 41.7065 35.462C41.7524 35.462 41.8903 35.5322 42.0281 35.6258C42.3038 35.8129 42.8782 36.1404 44.3486 36.9591C46.2095 37.9884 47.2664 38.7837 48.0016 39.696C48.6449 40.4913 49.0354 41.4036 49.2192 42.5264C49.3341 43.1579 49.2652 44.6784 49.1044 45.31C48.5989 47.2983 47.4502 48.8889 45.773 49.8012C45.5203 49.9416 45.3135 50.0351 45.2905 50.0351C45.2676 50.0351 45.3595 49.8012 45.4973 49.5205C46.0487 48.3275 46.1176 47.1813 45.7041 45.8948C45.4514 45.0995 44.9229 44.1404 43.8661 42.5264C42.6025 40.655 42.3038 40.1638 41.9822 39.4854Z" fill="#FF007A"/>
<path d="M24.8659 46.6432C26.5661 45.1929 28.6568 44.1637 30.5867 43.8362C31.4138 43.6959 32.7922 43.7426 33.5504 43.9532C34.7681 44.2807 35.8709 44.9824 36.4452 45.8479C36.9966 46.69 37.2494 47.4152 37.5021 49.0292C37.594 49.6608 37.7089 50.3157 37.7318 50.4561C37.9156 51.2982 38.2832 51.9532 38.7427 52.304C39.4549 52.8421 40.6956 52.8654 41.9133 52.3976C42.12 52.3274 42.3038 52.2573 42.3038 52.2807C42.3498 52.3274 41.7295 52.7485 41.3159 52.959C40.7415 53.2631 40.282 53.3567 39.6617 53.3567C38.5589 53.3567 37.617 52.7719 36.8588 51.6023C36.698 51.3684 36.3763 50.69 36.1006 50.0584C35.2965 48.1637 34.883 47.6023 33.941 46.9707C33.1139 46.4327 32.057 46.3157 31.2529 46.7134C30.1961 47.228 29.9204 48.6081 30.6556 49.4502C30.9543 49.8011 31.5057 50.0818 31.9651 50.152C32.8152 50.269 33.5504 49.5906 33.5504 48.7251C33.5504 48.1637 33.3436 47.8362 32.7922 47.5789C32.057 47.2514 31.2529 47.6257 31.2759 48.3508C31.2759 48.6549 31.4138 48.8421 31.7124 48.9824C31.8962 49.076 31.8962 49.076 31.7584 49.0526C31.0921 48.9122 30.9313 48.0701 31.4597 47.5321C32.103 46.8771 33.4585 47.1578 33.918 48.0701C34.1018 48.4444 34.1248 49.1929 33.964 49.6608C33.5734 50.69 32.4706 51.228 31.3448 50.9239C30.5867 50.7134 30.265 50.5029 29.346 49.5438C27.7378 47.8596 27.1175 47.5321 24.82 47.1812L24.3835 47.1111L24.8659 46.6432Z" fill="#FF007A"/>
<path fill-rule="evenodd" clip-rule="evenodd" d="M12.7815 9.00585C18.1346 15.6257 26.3826 25.9181 26.7961 26.4795C27.1407 26.9474 27.0029 27.3918 26.4285 27.7193C26.1069 27.9064 25.4406 28.0936 25.119 28.0936C24.7514 28.0936 24.3148 27.9064 24.0162 27.6023C23.8094 27.3918 22.9134 26.0585 20.8916 22.8538C19.3523 20.3977 18.0427 18.3626 18.0197 18.3392C17.9278 18.2924 17.9278 18.2924 20.7308 23.3918C22.4998 26.5965 23.0742 27.7427 23.0742 27.883C23.0742 28.1871 22.9823 28.3509 22.6147 28.7719C21.9944 29.4737 21.7187 30.269 21.5119 31.9298C21.2822 33.7778 20.6618 35.0877 18.8928 37.3099C17.8589 38.6199 17.6981 38.8538 17.4454 39.3918C17.1237 40.0468 17.0318 40.421 16.9859 41.2632C16.9399 42.152 17.0318 42.7134 17.2845 43.5555C17.5143 44.3041 17.767 44.7953 18.3873 45.7544C18.9157 46.5965 19.2374 47.2281 19.2374 47.462C19.2374 47.6491 19.2833 47.6491 20.1104 47.462C22.0863 46.9941 23.7175 46.1988 24.6135 45.2164C25.1649 44.6082 25.3028 44.2807 25.3028 43.4386C25.3028 42.9006 25.2798 42.7836 25.1419 42.4561C24.9122 41.9415 24.4757 41.5205 23.5337 40.8655C22.2931 40 21.7646 39.2982 21.6268 38.3626C21.5119 37.5672 21.6498 37.0292 22.339 35.5556C23.0512 34.0351 23.235 33.4035 23.3499 31.8596C23.4188 30.8772 23.5337 30.4795 23.8094 30.1754C24.1081 29.848 24.3608 29.731 25.073 29.6374C26.2447 29.4737 27.0029 29.1696 27.6002 28.5848C28.1287 28.0936 28.3584 27.6023 28.3814 26.8772L28.4044 26.3392L28.1057 26.0117C27.0259 24.7485 12.0692 8 12.0003 8C11.9773 8 12.3449 8.44444 12.7815 9.00585ZM19.8347 42.269C20.0875 41.8246 19.9496 41.2632 19.5361 40.9824C19.1455 40.7251 18.5482 40.8421 18.5482 41.193C18.5482 41.2865 18.5941 41.3801 18.732 41.4269C18.9387 41.5439 18.9617 41.6608 18.8009 41.9181C18.6401 42.1754 18.6401 42.4094 18.8468 42.5731C19.1685 42.8304 19.605 42.6901 19.8347 42.269Z" fill="#FF007A"/>
<path fill-rule="evenodd" clip-rule="evenodd" d="M29.1392 29.9649C28.5878 30.1286 28.0594 30.7368 27.8986 31.345C27.8067 31.7193 27.8526 32.3976 28.0135 32.6082C28.2662 32.9357 28.4959 33.0292 29.1392 33.0292C30.4028 33.0292 31.4827 32.4678 31.5975 31.7895C31.7124 31.228 31.2299 30.4561 30.5637 30.1052C30.219 29.9181 29.5068 29.8479 29.1392 29.9649ZM30.6096 31.1345C30.7934 30.8538 30.7245 30.5497 30.3799 30.3392C29.7595 29.9415 28.8176 30.269 28.8176 30.8772C28.8176 31.1813 29.3001 31.5088 29.7595 31.5088C30.0582 31.5088 30.4718 31.3216 30.6096 31.1345Z" fill="#FF007A"/>
</g>
</g>
<defs>
<clipPath id="clip0_2_973">
<rect width="64" height="64" fill="white"/>
</clipPath>
<clipPath id="clip1_2_973">
<rect width="38.6667" height="45.3333" fill="white" transform="translate(12 8)"/>
</clipPath>
</defs>
</svg>
