<svg width="64" height="64" viewBox="0 0 64 64" fill="none" xmlns="http://www.w3.org/2000/svg">
<rect width="64" height="64" fill="#2775CA"/>
<path fill-rule="evenodd" clip-rule="evenodd" d="M32 64C49.6731 64 64 49.6731 64 32C64 14.3269 49.6731 0 32 0C14.3269 0 0 14.3269 0 32C0 49.6731 14.3269 64 32 64Z" fill="#2775CA"/>
<path d="M40 35.9275C40 32.0557 37.4919 30.728 32.4758 30.173C28.8929 29.7295 28.1763 28.8452 28.1763 27.297C28.1763 25.7489 29.3716 24.7531 31.7592 24.7531C33.909 24.7531 35.1043 25.4169 35.7005 27.0766C35.8209 27.4086 36.1791 27.629 36.5374 27.629H38.4493C38.928 27.629 39.2863 27.297 39.2863 26.8536V26.742C38.8076 24.3069 36.6578 22.4268 33.9119 22.2064V19.5509C33.9119 19.1074 33.5536 18.7755 32.9574 18.6666H31.1659C30.6872 18.6666 30.3289 18.9986 30.2114 19.5509V22.0949C26.6284 22.5384 24.3583 24.7504 24.3583 27.5175C24.3583 31.1688 26.746 32.6081 31.7621 33.1604C35.1071 33.7128 36.182 34.3766 36.182 36.1479C36.182 37.9191 34.5109 39.1353 32.2408 39.1353C29.1365 39.1353 28.0616 37.9191 27.7033 36.2594C27.5829 35.8159 27.2247 35.5955 26.8664 35.5955H24.837C24.3583 35.5955 24 35.9275 24 36.3709V36.4825C24.4787 39.2495 26.3877 41.2411 30.3289 41.7935V44.449C30.3289 44.8925 30.6872 45.2244 31.2834 45.3333H33.0749C33.5536 45.3333 33.9119 45.0014 34.0294 44.449V41.7935C37.6095 41.2385 40 38.9149 40 35.9275Z" fill="white"/>
<path d="M25.9731 48.1848C16.7534 44.9467 12.0244 34.8885 15.4542 25.9872C17.2272 21.1315 21.1278 17.4329 25.9731 15.6987C26.4469 15.4684 26.6824 15.1215 26.6824 14.5416V12.924C26.6824 12.4606 26.4469 12.1138 25.9731 12C25.854 12 25.6185 12 25.4994 12.1165C14.2712 15.5849 8.12378 27.2608 11.6698 38.2458C13.7975 44.7192 18.8811 49.6914 25.4994 51.7725C25.9732 52.0028 26.4441 51.7725 26.5632 51.3091C26.6824 51.1926 26.6824 51.0788 26.6824 50.8457V49.2281C26.6824 48.8785 26.3278 48.4179 25.9731 48.1848ZM38.5006 12.1138C38.0269 11.8835 37.5559 12.1138 37.4368 12.5771C37.3177 12.6937 37.3177 12.8074 37.3177 13.0405V14.6582C37.3177 15.1215 37.6723 15.5821 38.0269 15.8152C47.2466 19.0533 51.9756 29.1115 48.5459 38.0128C46.7728 42.8685 42.8722 46.5671 38.0269 48.3013C37.5531 48.5316 37.3177 48.8785 37.3177 49.4584V51.076C37.3177 51.5394 37.5531 51.8862 38.0269 52C38.146 52 38.3815 52 38.5006 51.8835C49.7288 48.4151 55.8762 36.7392 52.3302 25.7542C50.2026 19.167 45.0026 14.1948 38.5006 12.1138Z" fill="white"/>
</svg>
