<svg width="64" height="64" viewBox="0 0 64 64" fill="none" xmlns="http://www.w3.org/2000/svg">
<g clip-path="url(#clip0_2_978)">
<rect width="64" height="64" fill="#26A17B"/>
<path d="M32 0C49.6711 0 64 14.3289 64 32C64 49.6711 49.6711 64 32 64C14.3289 64 0 49.68 0 32C0 14.32 14.3289 0 32 0Z" fill="#26A17B"/>
<path d="M36.5058 28.4321V23.6677H47.3948V16.4144H17.7502V23.6677H28.6392V28.4321C19.7947 28.841 13.1369 30.5921 13.1369 32.6899C13.1369 34.7876 19.7947 36.5387 28.6392 36.9476V52.192H36.5147V36.9476C45.3503 36.5387 51.9903 34.7876 51.9903 32.6899C51.9814 30.5921 45.3414 28.841 36.5058 28.4321ZM36.5147 35.6587C36.2925 35.6676 35.1547 35.7387 32.6125 35.7387C30.5769 35.7387 29.1547 35.6854 28.648 35.6587V35.6676C20.8347 35.321 14.9947 33.961 14.9947 32.3343C14.9947 30.7077 20.8258 29.3477 28.648 29.001V34.2988C29.1636 34.3343 30.6214 34.4232 32.6481 34.4232C35.0747 34.4232 36.2925 34.3254 36.5236 34.2988V28.9832C44.3281 29.3299 50.1503 30.6899 50.1503 32.3165C50.1325 33.9432 44.3103 35.3032 36.5147 35.6587Z" fill="white"/>
</g>
<defs>
<clipPath id="clip0_2_978">
<rect width="64" height="64" fill="white"/>
</clipPath>
</defs>
</svg>
