<svg width="64" height="64" viewBox="0 0 64 64" fill="none" xmlns="http://www.w3.org/2000/svg">
<rect width="64" height="64" fill="#23292F"/>
<path fill-rule="evenodd" clip-rule="evenodd" d="M32 64C49.6731 64 64 49.6731 64 32C64 14.3269 49.6731 0 32 0C14.3269 0 0 14.3269 0 32C0 49.6731 14.3269 64 32 64Z" fill="#23292F"/>
<g clip-path="url(#clip0_2_993)">
<path d="M44.2545 17.3334H49.2681L38.836 27.4026C35.0595 31.048 28.9377 31.048 25.1612 27.4026L14.7305 17.3334H19.7441L27.6687 24.9826C30.0597 27.2916 33.9375 27.2916 36.3299 24.9826L44.2545 17.3334ZM19.6803 45.3334H14.6667L25.1626 35.202C28.9391 31.5566 35.0609 31.5566 38.8374 35.202L49.3333 45.3334H44.3197L36.3299 37.6219C33.9389 35.3129 30.0611 35.3129 27.6687 37.6219L19.6803 45.3334Z" fill="white"/>
</g>
<defs>
<clipPath id="clip0_2_993">
<rect width="34.6667" height="28" fill="white" transform="translate(14.6667 17.3334)"/>
</clipPath>
</defs>
</svg>
